<svg xmlns="http://www.w3.org/2000/svg" xmlns:xlink="http://www.w3.org/1999/xlink" width="20" height="16.6" viewBox="0 0 20 16.6">
  <defs>
    <clipPath id="clip-mail_h">
      <rect width="20" height="16.6"/>
    </clipPath>
  </defs>
  <g id="mail_h" clip-path="url(#clip-mail_h)">
    <rect width="20" height="16.6" fill="rgba(255,255,255,0)"/>
    <g id="black-back-closed-envelope-shape" transform="translate(0.3 0.7)">
      <path id="Combined_Shape" data-name="Combined Shape" d="M1.734,15.26A1.661,1.661,0,0,1,.6,14.831l5.5-5.5.38.275q.618.455,1,.71a6.179,6.179,0,0,0,1.024.52A3.119,3.119,0,0,0,9.7,11.1h.021a3.119,3.119,0,0,0,1.193-.266,6.179,6.179,0,0,0,1.024-.52q.385-.255,1-.71l.381-.274,5.5,5.5a1.661,1.661,0,0,1-1.137.428ZM14.574,8.444q1.55-1.081,3.764-2.58a5.934,5.934,0,0,0,1.084-.943v8.372ZM0,4.92a5.736,5.736,0,0,0,1.094.943Q3.4,7.428,4.85,8.442L0,13.292ZM9.711,9.711H9.7a1.7,1.7,0,0,1-.542-.1,3.242,3.242,0,0,1-.624-.292c-.22-.13-.408-.248-.563-.352s-.35-.242-.585-.412l-.3-.215-.162-.115c-.3-.213-.669-.469-1.094-.765-.5-.348-1.079-.751-1.746-1.213Q2.232,4.964,1.864,4.7A5.4,5.4,0,0,1,.6,3.452,2.534,2.534,0,0,1,0,1.972,2.187,2.187,0,0,1,.45.563,1.548,1.548,0,0,1,1.734,0H17.687a1.676,1.676,0,0,1,1.219.509,1.662,1.662,0,0,1,.515,1.225,2.872,2.872,0,0,1-.53,1.636A5.156,5.156,0,0,1,17.569,4.7q-2.631,1.825-3.975,2.76l-1.1.762-.162.115-.3.215c-.235.17-.43.307-.585.412s-.344.222-.564.352a3.236,3.236,0,0,1-.623.292,1.708,1.708,0,0,1-.542.1Z" transform="translate(0 0)" fill="#9768ff"/>
    </g>
  </g>
</svg>
