<svg xmlns="http://www.w3.org/2000/svg" xmlns:xlink="http://www.w3.org/1999/xlink" width="20" height="16.5" viewBox="0 0 20 16.5">
  <defs>
    <clipPath id="clip-tele">
      <rect width="20" height="16.5"/>
    </clipPath>
  </defs>
  <g id="tele" clip-path="url(#clip-tele)">
    <rect width="20" height="16.5" fill="rgba(255,255,255,0)"/>
    <path id="Path" d="M4.457.7A.909.909,0,0,0,3.482,0H2.646A1.665,1.665,0,0,0,1.532.557,4.576,4.576,0,0,0,0,4.178,7.915,7.915,0,0,0,1.811,8.635c.279.279,2.925,4.735,7.242,6.406,3.621,1.393,4.317,1.114,5.153,1.114a4.342,4.342,0,0,0,2.925-2.089,3.079,3.079,0,0,0,.279-2.089,8.248,8.248,0,0,0-.836-.557,27.836,27.836,0,0,0-2.925-1.393c-.418-.139-.7-.279-.975.279a17.687,17.687,0,0,1-1.393,1.671.825.825,0,0,1-.975.139,16.129,16.129,0,0,1-3.482-2.089A14.053,14.053,0,0,1,4.457,7.1.6.6,0,0,1,4.6,6.267c.279-.418.975-1.114,1.114-1.393a.622.622,0,0,0,0-.7A15.233,15.233,0,0,0,4.457.7Z" transform="translate(1.5 0.2)" fill="#1f1933"/>
  </g>
</svg>
