<svg xmlns="http://www.w3.org/2000/svg" xmlns:xlink="http://www.w3.org/1999/xlink" width="20" height="16.5" viewBox="0 0 20 16.5">
  <defs>
    <clipPath id="clip-wsp">
      <rect width="20" height="16.5"/>
    </clipPath>
  </defs>
  <g id="wsp" clip-path="url(#clip-wsp)">
    <rect width="20" height="16.5" fill="rgba(255,255,255,0)"/>
    <g id="whatsapp" transform="translate(1.549 -1.784)">
      <path id="Shape" d="M0,16.377H0l1.106-4.2A7.8,7.8,0,0,1,0,8.115,8.138,8.138,0,0,1,8.115,0a8.072,8.072,0,0,1,5.754,2.361,7.966,7.966,0,0,1,2.36,5.754,8.138,8.138,0,0,1-8.115,8.115,8.67,8.67,0,0,1-3.836-.959L0,16.377ZM4.5,13.8h0l.221.147a6.9,6.9,0,0,0,3.393.959,6.721,6.721,0,0,0,6.713-6.713,6.414,6.414,0,0,0-1.992-4.721A6.677,6.677,0,0,0,1.4,8.188,6.625,6.625,0,0,0,2.435,11.73l.147.221-.664,2.508L4.5,13.8Z" transform="translate(0.487 1.883)" fill="#1f1933"/>
      <g id="Group" transform="translate(0.451 1.834)">
        <path id="Shape_1_" d="M0,16.377H0l1.18-4.2A7.8,7.8,0,0,1,.074,8.115,8.139,8.139,0,0,1,8.188,0a8.072,8.072,0,0,1,5.754,2.361,8.663,8.663,0,0,1,2.287,5.827A8.139,8.139,0,0,1,8.115,16.3a8.67,8.67,0,0,1-3.836-.959L0,16.377ZM4.5,13.8h0l.221.147a6.9,6.9,0,0,0,3.393.959,6.721,6.721,0,0,0,6.713-6.713,6.414,6.414,0,0,0-1.992-4.721A6.743,6.743,0,0,0,8.115,1.475,6.685,6.685,0,0,0,2.508,11.73l.147.221-.664,2.508L4.5,13.8Z" transform="translate(0 0)" fill="#1f1933"/>
        <path id="Path" d="M2.139.369C1.918.074,1.77,0,1.623,0H1.254A.639.639,0,0,0,.738.3,2.127,2.127,0,0,0,0,1.992,4.3,4.3,0,0,0,.811,4.057,8.037,8.037,0,0,0,4.279,7.082,4.587,4.587,0,0,0,6.713,7.6a1.92,1.92,0,0,0,1.328-.959,3.2,3.2,0,0,0,.148-.959,1.613,1.613,0,0,0-.369-.221c-.221-.074-1.18-.59-1.4-.664s-.3-.074-.443.074a7.84,7.84,0,0,1-.664.811c-.148.148-.221.148-.443.074A4.009,4.009,0,0,1,3.246,4.721a4.568,4.568,0,0,1-1.107-1.4c-.148-.221,0-.3.074-.443a7.144,7.144,0,0,1,.516-.664c.074-.148,0-.221,0-.369A11.928,11.928,0,0,1,2.139.369Z" transform="translate(4.057 4.426)" fill="#1f1933"/>
      </g>
    </g>
  </g>
</svg>
