<svg xmlns="http://www.w3.org/2000/svg" width="125.81" height="53.68" viewBox="0 0 125.81 53.68">
  <g id="Grupo_3091" transform="translate(-628.934 -641.901)">
    <g id="Grupo_658" transform="translate(671.541 642.768)">
      <path id="Trazado_1135" d="M21.212,23.8a5.222,5.222,0,0,1-.574,2.294,7.852,7.852,0,0,1-1.95,2.409,11.133,11.133,0,0,1-3.212,1.836,13.868,13.868,0,0,1-4.359.688,10.872,10.872,0,0,1-8.145-3.1A11.467,11.467,0,0,1,.1,19.444a14.879,14.879,0,0,1,1.377-6.31,9.916,9.916,0,0,1,3.9-4.245,12.892,12.892,0,0,1,10.1-.8,8.261,8.261,0,0,1,3.1,1.721,8.862,8.862,0,0,1,1.95,2.18,3.777,3.777,0,0,1,.688,2.18,2.064,2.064,0,0,1-.8,1.721,2.605,2.605,0,0,1-1.836.688,1.938,1.938,0,0,1-1.147-.344,5.519,5.519,0,0,1-1.032-1.262,8.674,8.674,0,0,0-2.18-2.409,4.928,4.928,0,0,0-2.868-.8,4.7,4.7,0,0,0-4.015,2.065A8.539,8.539,0,0,0,5.84,19.329a12.5,12.5,0,0,0,.344,2.983,6.174,6.174,0,0,0,1.147,2.294A4.786,4.786,0,0,0,9.167,26.1a5.136,5.136,0,0,0,2.294.459,4.928,4.928,0,0,0,2.868-.8,7.727,7.727,0,0,0,2.18-2.524,3.727,3.727,0,0,1,1.147-1.491,2.181,2.181,0,0,1,1.491-.574,2.44,2.44,0,0,1,1.721.8A10.33,10.33,0,0,1,21.212,23.8Z" transform="translate(-0.073 1.091)" fill="#040505"/>
      <path id="Trazado_1136" d="M37.187,27.767a17.473,17.473,0,0,1-3.9,2.524,11.713,11.713,0,0,1-4.359.8,7.131,7.131,0,0,1-3.786-.918,6.376,6.376,0,0,1-2.524-2.409A6.913,6.913,0,0,1,21.7,24.44a6.111,6.111,0,0,1,1.491-4.13,7.443,7.443,0,0,1,4.015-2.294c.344-.115,1.262-.229,2.639-.574s2.639-.574,3.671-.8,2.065-.574,3.327-.918a6.217,6.217,0,0,0-.918-3.442c-.574-.688-1.606-1.032-3.327-1.032a6.178,6.178,0,0,0-3.212.574,5.611,5.611,0,0,0-1.836,1.836A8.422,8.422,0,0,1,26.4,15.263a1.508,1.508,0,0,1-1.377.344,2.352,2.352,0,0,1-2.294-2.294,4.713,4.713,0,0,1,1.032-2.983,7.168,7.168,0,0,1,3.327-2.409A12.962,12.962,0,0,1,32.6,7a14.566,14.566,0,0,1,5.851.918,5.617,5.617,0,0,1,2.983,2.868,13.264,13.264,0,0,1,.918,5.162V22.6a12.015,12.015,0,0,0,.574,3.442,13.418,13.418,0,0,1,.574,2.294,2.007,2.007,0,0,1-.8,1.606,2.605,2.605,0,0,1-1.836.688,2.44,2.44,0,0,1-1.721-.8A3.831,3.831,0,0,1,37.187,27.767Zm-.459-8.375c-1.147.459-2.409.688-3.556,1.032a24.867,24.867,0,0,0-3.212.8,4.137,4.137,0,0,0-1.721.918,2.184,2.184,0,0,0-.8,1.95,3.411,3.411,0,0,0,.918,2.294,3.45,3.45,0,0,0,2.524.918,5.953,5.953,0,0,0,3.1-.8,4.86,4.86,0,0,0,2.065-1.95,9.518,9.518,0,0,0,.8-4.359Z" transform="translate(3.111 1.028)" fill="#040505"/>
      <path id="Trazado_1137" d="M51.089,11.931V31.663a30.145,30.145,0,0,1-.115,3.442,5.827,5.827,0,0,1-.344,1.95c-.918,2.524-2.868,3.671-5.965,3.671a9.051,9.051,0,0,1-3.9-.688A2.1,2.1,0,0,1,39.5,37.972a3.091,3.091,0,0,1,.574-1.721,1.925,1.925,0,0,1,1.606-.688h.344a2.24,2.24,0,0,1,.8.115h.8a1.391,1.391,0,0,0,1.491-.918,8.049,8.049,0,0,0,.344-3.327v-19.5a3.792,3.792,0,0,1,.8-2.639,2.873,2.873,0,0,1,2.065-.918,2.45,2.45,0,0,1,1.95.918A4.234,4.234,0,0,1,51.089,11.931ZM48.221,5.736a2.516,2.516,0,0,1-1.95-.8,2.908,2.908,0,0,1,0-4.13,2.687,2.687,0,0,1,1.95-.8,3.115,3.115,0,0,1,1.95.688,2.394,2.394,0,0,1,.8,2.065,2.6,2.6,0,0,1-.8,2.065A2.45,2.45,0,0,1,48.221,5.736Z" transform="translate(5.729 0)" fill="#040505"/>
      <path id="Trazado_1138" d="M68.972,27.767a17.473,17.473,0,0,1-3.9,2.524,10.744,10.744,0,0,1-4.245.8,7.131,7.131,0,0,1-3.786-.918,6.376,6.376,0,0,1-2.524-2.409A6.913,6.913,0,0,1,53.6,24.44a6.111,6.111,0,0,1,1.491-4.13,7.443,7.443,0,0,1,4.015-2.294c.344-.115,1.262-.229,2.639-.574s2.639-.574,3.671-.8,2.065-.574,3.327-.918a6.217,6.217,0,0,0-.918-3.442c-.574-.688-1.606-1.032-3.327-1.032a6.178,6.178,0,0,0-3.212.574,5.611,5.611,0,0,0-1.836,1.836A8.422,8.422,0,0,1,58.3,15.263a1.508,1.508,0,0,1-1.377.344,2.352,2.352,0,0,1-2.294-2.294,4.713,4.713,0,0,1,1.032-2.983,7.168,7.168,0,0,1,3.327-2.409A12.961,12.961,0,0,1,64.5,7a14.566,14.566,0,0,1,5.851.918,5.617,5.617,0,0,1,2.983,2.868,13.264,13.264,0,0,1,.918,5.162V22.6a12.015,12.015,0,0,0,.574,3.442,13.417,13.417,0,0,1,.574,2.294,2.007,2.007,0,0,1-.8,1.606,2.605,2.605,0,0,1-1.836.688,2.44,2.44,0,0,1-1.721-.8A3.656,3.656,0,0,1,68.972,27.767Zm-.459-8.375c-1.147.459-2.409.688-3.556,1.032a24.868,24.868,0,0,0-3.212.8,4.137,4.137,0,0,0-1.721.918,2.184,2.184,0,0,0-.8,1.95,3.411,3.411,0,0,0,.918,2.294,3.45,3.45,0,0,0,2.524.918,5.953,5.953,0,0,0,3.1-.8,4.86,4.86,0,0,0,2.065-1.95,9.518,9.518,0,0,0,.8-4.359Z" transform="translate(7.807 1.028)" fill="#040505"/>
    </g>
    <g id="Grupo_659" transform="translate(672.35 682.944)">
      <path id="Trazado_1139" d="M4.933,8.615a4.737,4.737,0,0,1-1.262.8,5.758,5.758,0,0,1-1.377.229A1.938,1.938,0,0,1,1.147,9.3a1.784,1.784,0,0,1-.918-.688A3.35,3.35,0,0,1,0,7.583,1.725,1.725,0,0,1,.459,6.321a2.735,2.735,0,0,1,1.262-.688c.115,0,.344-.115.8-.229a3.541,3.541,0,0,0,1.262-.229c.344-.115.688-.115,1.032-.229a1.85,1.85,0,0,0-.344-1.032.871.871,0,0,0-1.032-.344A1.7,1.7,0,0,0,2.409,3.8c-.229,0-.344.229-.574.459-.115.229-.229.344-.344.574-.115.115-.229.115-.459.115S.688,4.829.459,4.715c0-.115-.115-.344-.115-.459a1.3,1.3,0,0,1,.344-.918A2.063,2.063,0,0,1,1.721,2.65a2.363,2.363,0,0,1,1.721-.344,8.916,8.916,0,0,1,1.836.229,1.245,1.245,0,0,1,.918.918,2.523,2.523,0,0,1,.229,1.606V7.124c0,.344.115.688.115,1.032.344.229.344.459.459.688-.115.229-.115.459-.344.574a.876.876,0,0,1-.574.229c-.229,0-.344-.115-.574-.229C5.277,9.189,5.162,8.845,4.933,8.615ZM4.818,5.977c-.344.115-.8.229-1.147.344a7.313,7.313,0,0,0-1.032.229c-.229,0-.344.115-.574.229a1.631,1.631,0,0,0-.229.688.818.818,0,0,0,.344.688,1.041,1.041,0,0,0,.8.344,3.35,3.35,0,0,0,1.032-.229,3.042,3.042,0,0,0,.574-.688,2.91,2.91,0,0,0,.229-1.377Z" transform="translate(0 0.333)" fill="#040505"/>
      <path id="Trazado_1140" d="M9.127,7.018V8.51a1.658,1.658,0,0,1-.229.8.818.818,0,0,1-.688.344,1.631,1.631,0,0,1-.688-.229,1.3,1.3,0,0,1-.115-.918V3.462c0-.8.344-1.262.918-1.262a1.631,1.631,0,0,1,.688.229c0,.344.115.688.115,1.032a1.784,1.784,0,0,1,.688-.918.892.892,0,0,1,.918-.229,4.076,4.076,0,0,1,1.147.229.863.863,0,0,1,.574.8.876.876,0,0,1-.229.574.87.87,0,0,1-.459.229c-.115,0-.344-.115-.459-.115a1.455,1.455,0,0,0-.688-.115,1.631,1.631,0,0,0-.688.229.737.737,0,0,0-.574.574c0,.229-.115.574-.115.918A4.727,4.727,0,0,0,9.127,7.018Z" transform="translate(1.083 0.324)" fill="#040505"/>
      <path id="Trazado_1141" d="M17.295,6.445H13.738a2.74,2.74,0,0,0,.229,1.032,1.654,1.654,0,0,0,1.491.918,1.034,1.034,0,0,0,.574-.115c.229,0,.344-.115.574-.229.115-.115.344-.229.459-.344.229,0,.459-.229.688-.459a.421.421,0,0,1,.344-.115.69.69,0,0,1,.459.115c.115.115.229.229.115.459a.876.876,0,0,1-.229.574,1.382,1.382,0,0,1-.574.574,3.435,3.435,0,0,1-.918.459,5.758,5.758,0,0,1-1.377.229A3.617,3.617,0,0,1,12.821,8.51,3.276,3.276,0,0,1,11.9,5.871a6.714,6.714,0,0,1,.229-1.491,2.38,2.38,0,0,1,.688-1.147,4.12,4.12,0,0,1,1.147-.8A3.388,3.388,0,0,1,15.459,2.2a3.366,3.366,0,0,1,1.836.459,2.765,2.765,0,0,1,1.147,1.147A3.176,3.176,0,0,1,18.786,5.3c0,.459-.115.8-.344.918A3.394,3.394,0,0,1,17.295,6.445ZM13.853,5.412H17.18a2.811,2.811,0,0,0-.459-1.377,1.663,1.663,0,0,0-2.294,0,1.544,1.544,0,0,0-.574,1.377Z" transform="translate(1.749 0.324)" fill="#040505"/>
      <path id="Trazado_1142" d="M24.288,11.148V8.51a2.622,2.622,0,0,1-1.147.8,2.269,2.269,0,0,1-1.262.229,2.306,2.306,0,0,1-1.491-.459,3.586,3.586,0,0,1-1.032-1.262,4.636,4.636,0,0,1,0-3.9A2.446,2.446,0,0,1,20.5,2.659,2.634,2.634,0,0,1,22.108,2.2a2.313,2.313,0,0,1,1.262.344,7.422,7.422,0,0,1,1.032.918V3.347a2.127,2.127,0,0,1,.229-.8.9.9,0,0,1,1.262,0h0a.968.968,0,0,1,.229.8v7.8c0,.8-.229,1.262-.8,1.147a.818.818,0,0,1-.688-.344A.854.854,0,0,1,24.288,11.148ZM20.732,5.986a4.879,4.879,0,0,0,.229,1.262,2.058,2.058,0,0,0,.574.8,2.127,2.127,0,0,0,.8.229,2.7,2.7,0,0,0,.918-.229,4.989,4.989,0,0,0,.688-.8,2.47,2.47,0,0,0,.229-1.262,3.176,3.176,0,0,0-.115-1.032l-.344-.688a1.145,1.145,0,0,0-.574-.459,1.455,1.455,0,0,0-.688-.115,1.842,1.842,0,0,0-1.262.574,2.765,2.765,0,0,0-.459,1.721Z" transform="translate(2.786 0.324)" fill="#040505"/>
      <path id="Trazado_1143" d="M31.3,8.61V8.38l-.688.688a1.849,1.849,0,0,1-.8.459,2.851,2.851,0,0,1-.918.115,3.394,3.394,0,0,1-1.147-.229,1.807,1.807,0,0,1-.8-.8A3.664,3.664,0,0,1,26.6,7V3.332a1.658,1.658,0,0,1,.229-.8c.115-.229.459-.229.688-.229a1.631,1.631,0,0,1,.688.229.968.968,0,0,1,.229.8V6.2a3.176,3.176,0,0,0,.115,1.032c0,.229.229.459.344.688a1.631,1.631,0,0,0,.688.229,2.7,2.7,0,0,0,.918-.229,3.042,3.042,0,0,0,.574-.688,4.373,4.373,0,0,0,.115-1.721V3.332a1.658,1.658,0,0,1,.229-.8c.115-.229.459-.229.688-.229a1.631,1.631,0,0,1,.688.229,1.092,1.092,0,0,1,.229.8V8.61a2.127,2.127,0,0,1-.229.8.766.766,0,0,1-1.147,0h0A1.239,1.239,0,0,1,31.3,8.61Z" transform="translate(3.915 0.339)" fill="#040505"/>
      <path id="Trazado_1144" d="M34.721,1.721a1.631,1.631,0,0,1-.688-.229.9.9,0,0,1,0-1.262h0A1.631,1.631,0,0,1,34.721,0,.876.876,0,0,1,35.3.229a.552.552,0,0,1,.229.688,1.63,1.63,0,0,1-.229.688A.86.86,0,0,1,34.721,1.721Zm.918,1.95V8.948a1.658,1.658,0,0,1-.229.8c-.115.229-.459.229-.688.229a1.631,1.631,0,0,1-.688-.229,1.092,1.092,0,0,1-.229-.8V3.671a1.658,1.658,0,0,1,.229-.8c.115-.229.344-.229.688-.229a1.631,1.631,0,0,1,.688.229,1.658,1.658,0,0,1,.229.8Z" transform="translate(4.972)" fill="#040505"/>
      <path id="Trazado_1145" d="M38.721,3.347v.229a2.251,2.251,0,0,1,1.032-1.032,2.574,2.574,0,0,1,2.753.115,3.052,3.052,0,0,1,1.147,1.262,5.4,5.4,0,0,1,.459,1.95,5.813,5.813,0,0,1-.229,1.491,2.38,2.38,0,0,1-.688,1.147,1.784,1.784,0,0,1-.918.688,4.076,4.076,0,0,1-1.147.229,2.313,2.313,0,0,1-1.262-.344,7.423,7.423,0,0,1-1.032-.918v2.983c0,.8-.344,1.147-.918,1.147a.818.818,0,0,1-.688-.344,1.092,1.092,0,0,1-.229-.8v-7.8a2.127,2.127,0,0,1,.229-.8c.115-.229.344-.229.574-.229a.876.876,0,0,1,.574.229A1.041,1.041,0,0,1,38.721,3.347Zm3.442,2.524a4.879,4.879,0,0,0-.229-1.262,2.058,2.058,0,0,0-.574-.8,1.092,1.092,0,0,0-.8-.229,1.842,1.842,0,0,0-1.262.574,2.324,2.324,0,0,0-.459,1.721,3.237,3.237,0,0,0,.459,1.721,1.842,1.842,0,0,0,1.262.574,1.658,1.658,0,0,0,.8-.229,2.058,2.058,0,0,0,.574-.8,1.593,1.593,0,0,0,.229-1.262Z" transform="translate(5.446 0.324)" fill="#040505"/>
      <path id="Trazado_1146" d="M49.033,8.624a4.737,4.737,0,0,1-1.262.8,2.91,2.91,0,0,1-1.377.229,4.879,4.879,0,0,1-1.262-.229c-.344-.115-.574-.459-.8-.688A1.7,1.7,0,0,1,44.1,7.707a1.725,1.725,0,0,1,.459-1.262,2.735,2.735,0,0,1,1.262-.688c.115,0,.344-.115.8-.229A5.049,5.049,0,0,1,47.771,5.3c.344-.115.688-.115,1.032-.229a1.85,1.85,0,0,0-.344-1.032,1.6,1.6,0,0,0-1.032-.344,1.7,1.7,0,0,0-1.032.229c-.115-.115-.344.115-.459.344a1.584,1.584,0,0,1-.344.459c-.115.115-.229.115-.459.115s-.344-.115-.574-.229a.87.87,0,0,1-.229-.459,1.3,1.3,0,0,1,.344-.918,2.063,2.063,0,0,1,1.032-.688A4.756,4.756,0,0,1,47.542,2.2a8.916,8.916,0,0,1,1.836.229,1.245,1.245,0,0,1,.918.918,2.523,2.523,0,0,1,.229,1.606V7.018c0,.344.115.688.115,1.032a1.525,1.525,0,0,1,.344.8.6.6,0,0,1-.229.459.832.832,0,0,1-1.147,0A1.686,1.686,0,0,1,49.033,8.624Zm-.115-2.639c-.344.115-.8.229-1.147.344a5.819,5.819,0,0,1-1.032.229c-.229,0-.344.115-.574.344-.229.115-.229.344-.229.574a.818.818,0,0,0,.344.688,1.041,1.041,0,0,0,.8.344,3.35,3.35,0,0,0,1.032-.229,3.041,3.041,0,0,0,.688-.574,2.91,2.91,0,0,0,.229-1.377V5.986Z" transform="translate(6.491 0.324)" fill="#040505"/>
    </g>
    <g id="Grupo_661" transform="translate(628.934 641.901)">
      <path id="Trazado_1147" d="M19.9.567s7.342-1.606,9.751.8,1.262,7.342.8,9.178a11.05,11.05,0,0,0-7.342-2.983C22.883,7.45,20.588,1.141,19.9.567Z" transform="translate(3.004 0.12)" fill="#a3552c"/>
      <path id="Trazado_1148" d="M8.04,7.471A11.393,11.393,0,0,0,.7,10.454C.124,8.733-1.023,3.8,1.5,1.277s9.751-.8,9.751-.8C10.564,1.162,8.269,7.471,8.04,7.471Z" transform="translate(0.066 0.099)" fill="#666121"/>
      <path id="Trazado_1149" d="M15.023,3.154S17.777.286,20.645.4a7.757,7.757,0,0,1,3.1,7.113,22.756,22.756,0,0,0-6.08,2.868C17.662,10.5,13.991,5.563,15.023,3.154Z" transform="translate(2.26 0.172)" fill="#e6524d"/>
      <path id="Trazado_1150" d="M15.837,3.154S13.084.286,10.216.4A7.648,7.648,0,0,0,7,7.4,25.681,25.681,0,0,1,13.2,10.381C13.2,10.5,16.87,5.563,15.837,3.154Z" transform="translate(1.102 0.172)" fill="#fa9a1f"/>
      <path id="Trazado_1151" d="M19.186,7.6a3.844,3.844,0,0,1-7.686,0c0-2.065,2.18-4.7,3.786-4.7C16.892,2.786,19.186,5.539,19.186,7.6Z" transform="translate(1.768 0.54)" fill="#d6000d"/>
    </g>
    <g id="Grupo_662" transform="translate(629.02 663.978)">
      <path id="Trazado_1152" d="M23.112,4.083A11.393,11.393,0,0,0,30.454,1.1c.574,1.721,1.721,6.654-.8,9.178s-9.751.8-9.751.8C20.588,10.507,22.883,4.083,23.112,4.083Z" transform="translate(2.919 0.162)" fill="#006893"/>
      <path id="Trazado_1153" d="M11.241,11.081s-7.342,1.606-9.751-.8S.228,2.936.687,1.1A11.05,11.05,0,0,0,8.029,4.083C8.258,4.083,10.553,10.507,11.241,11.081Z" transform="translate(-0.009 0.162)" fill="#2c7328"/>
      <path id="Trazado_1154" d="M15.023,8.327s2.753,2.868,5.621,2.753a7.757,7.757,0,0,0,3.1-7.113A24.544,24.544,0,0,1,17.662,1.1S13.991,5.918,15.023,8.327Z" transform="translate(2.174 0.162)" fill="#e6524d"/>
      <path id="Trazado_1155" d="M15.826,8.327s-2.753,2.868-5.621,2.753A7.043,7.043,0,0,1,7.108,4.2a27.568,27.568,0,0,0,6.08-3.1S16.859,5.918,15.826,8.327Z" transform="translate(1.027 0.162)" fill="#fa9a1f"/>
      <path id="Trazado_1156" d="M19.186,3.786a3.844,3.844,0,0,0-7.686,0c0,2.065,2.18,4.7,3.786,4.7S19.186,5.851,19.186,3.786Z" transform="translate(1.682)" fill="#d6000d"/>
    </g>
    <g id="Grupo_663" transform="translate(629.72 649.48)">
      <path id="Trazado_1157" d="M2.87,8.523S-.228,11.85,0,14.6a8.783,8.783,0,0,0,7.457,3.1,21.994,21.994,0,0,1,2.753-6.539C10.1,11.162,5.279,7.491,2.87,8.523Z" transform="translate(0.011 1.173)" fill="#14a5a9"/>
      <path id="Trazado_1158" d="M2.87,9.285S-.228,5.844,0,3.09A8.3,8.3,0,0,1,7.344.108,22.66,22.66,0,0,0,10.1,6.761S5.279,10.433,2.87,9.285Z" transform="translate(0.011 -0.047)" fill="#90b51c"/>
      <path id="Trazado_1159" d="M7.2,12.572a3.819,3.819,0,0,0,3.671-3.9A3.624,3.624,0,0,0,7.2,5C5.139,5,2.5,7.18,2.5,8.786,2.5,10.277,5.139,12.572,7.2,12.572Z" transform="translate(0.38 0.682)" fill="#407727"/>
    </g>
    <g id="Grupo_664" transform="translate(650.953 649.48)">
      <path id="Trazado_1160" d="M8.342,8.523s3.1,3.327,2.868,6.08a8.783,8.783,0,0,1-7.457,3.1A21.994,21.994,0,0,0,1,11.162C1.115,11.162,5.933,7.491,8.342,8.523Z" transform="translate(0.147 1.173)" fill="#14a5a9"/>
      <path id="Trazado_1161" d="M8.327,9.285s3.1-3.442,2.868-6.195A8.3,8.3,0,0,0,3.853.108,24.017,24.017,0,0,1,1.1,6.761S5.918,10.433,8.327,9.285Z" transform="translate(0.162 -0.047)" fill="#90b51c"/>
      <path id="Trazado_1162" d="M3.786,12.572A3.786,3.786,0,1,1,3.786,5c2.065,0,4.7,2.18,4.7,3.786C8.489,10.277,5.851,12.572,3.786,12.572Z" transform="translate(0 0.682)" fill="#407727"/>
    </g>
  </g>
</svg>
