<svg xmlns="http://www.w3.org/2000/svg" width="203.714" height="46.518" viewBox="0 0 203.714 46.518">
  <g id="Grupo_5227" data-name="Grupo 5227" transform="translate(-201 -339)">
    <g id="Grupo_5185" data-name="Grupo 5185" transform="translate(201 339)">
      <path id="Trazado_17629" data-name="Trazado 17629" d="M15.57,36.975a7.438,7.438,0,0,0,2.276-.414,4.886,4.886,0,0,0,1.862-1.242l1.242-1.862a10.386,10.386,0,0,0,.414-2.483,10.386,10.386,0,0,0-.414-2.483,3.722,3.722,0,0,0-1.242-1.862,3.013,3.013,0,0,0-1.862-1.242,8.8,8.8,0,0,0-2.276-.414H14.328a8.962,8.962,0,0,0-1.035.207,8.962,8.962,0,0,0-1.035.207V36.354a8.962,8.962,0,0,1,1.035.207c.414,0,.621.207,1.035.207A2.624,2.624,0,0,0,15.57,36.975ZM12.259,21.249a8.962,8.962,0,0,0,1.035-.207c.414,0,.621-.207,1.035-.207H15.57a9.6,9.6,0,0,1,4.345.828,11.116,11.116,0,0,1,3.311,2.069A9.011,9.011,0,0,1,25.3,27.043a12.1,12.1,0,0,1,.828,3.931,8.4,8.4,0,0,1-.828,3.931,11.116,11.116,0,0,1-2.069,3.311,8.1,8.1,0,0,1-3.311,2.069,9.6,9.6,0,0,1-4.345.828,12.725,12.725,0,0,1-2.9-.207c-.828-.207-1.655-.414-2.69-.621A11.666,11.666,0,0,1,7.5,39.458V14.007a.2.2,0,0,1,.207-.207h4.345a.2.2,0,0,1,.207.207h0v7.242Z" transform="translate(-7.5 -13.179)" fill="#fff" fill-rule="evenodd"/>
      <path id="Trazado_17630" data-name="Trazado 17630" d="M54.174,35.2v.207a7.259,7.259,0,0,1-1.655,1.035,8.648,8.648,0,0,1-2.069.828,12.725,12.725,0,0,1-2.9.207,9.6,9.6,0,0,1-4.345-.828A11.117,11.117,0,0,1,39.9,34.581a6.953,6.953,0,0,1-2.069-3.311A13.359,13.359,0,0,1,37,27.339a8.4,8.4,0,0,1,.828-3.931A11.116,11.116,0,0,1,39.9,20.1a8.1,8.1,0,0,1,3.311-2.069,9.6,9.6,0,0,1,4.345-.828,6.111,6.111,0,0,1,2.69.414c.828.207,1.448.414,2.069.621a4.505,4.505,0,0,1,1.655,1.035v.207l-1.655,3.1s-.207.207-.207,0h0c-.414-.207-.621-.414-1.035-.621a2.991,2.991,0,0,0-1.448-.414,5.142,5.142,0,0,0-1.655-.207,10.386,10.386,0,0,0-2.483.414,14.522,14.522,0,0,0-1.862,1.242,4.886,4.886,0,0,0-1.242,1.862,8.8,8.8,0,0,0-.414,2.276,5.777,5.777,0,0,0,1.655,4.138,4.886,4.886,0,0,0,1.862,1.242,5.249,5.249,0,0,0,2.483.414,6.552,6.552,0,0,0,3.311-.828,4.524,4.524,0,0,0,1.035-.621h.207L54.174,35.2Z" transform="translate(24.144 -9.544)" fill="#fff" fill-rule="evenodd"/>
      <path id="Trazado_17631" data-name="Trazado 17631" d="M60.712,27.339a10.386,10.386,0,0,0-.414-2.483,5.425,5.425,0,0,0-1.035-1.862,3.218,3.218,0,0,0-1.655-1.242,6.122,6.122,0,0,0-2.069-.414,7.352,7.352,0,0,0-2.069.414,3.218,3.218,0,0,0-1.655,1.242,8.387,8.387,0,0,0-1.035,1.862,10.386,10.386,0,0,0-.414,2.483,10.386,10.386,0,0,0,.414,2.483,5.425,5.425,0,0,0,1.035,1.862,4.846,4.846,0,0,0,3.725,1.655,7.352,7.352,0,0,0,2.069-.414,3.218,3.218,0,0,0,1.655-1.242A8.387,8.387,0,0,0,60.3,29.822a10.386,10.386,0,0,0,.414-2.483m-15.312,0a8.4,8.4,0,0,1,.828-3.931A11.117,11.117,0,0,1,48.3,20.1a10.188,10.188,0,0,1,3.1-2.069,8.4,8.4,0,0,1,3.931-.828,10.34,10.34,0,0,1,7.242,2.9,11.116,11.116,0,0,1,2.069,3.311,13.359,13.359,0,0,1,.828,3.931,8.4,8.4,0,0,1-.828,3.931,11.116,11.116,0,0,1-2.069,3.311,10.188,10.188,0,0,1-3.1,2.069,8.967,8.967,0,0,1-3.931.828,9.854,9.854,0,0,1-7.035-2.9,11.116,11.116,0,0,1-2.069-3.311A6.618,6.618,0,0,1,45.4,27.339" transform="translate(33.156 -9.544)" fill="#fff" fill-rule="evenodd"/>
      <path id="Trazado_17632" data-name="Trazado 17632" d="M68.263,21.338a2.624,2.624,0,0,0-1.242.207c-.414,0-.621.207-1.035.207-.414.207-.621.207-.828.414V36.651a.2.2,0,0,1-.207.207H60.607a.2.2,0,0,1-.207-.207h0v-17.8a7.413,7.413,0,0,1,2.276-.828c.828-.207,1.655-.414,2.276-.621a12.725,12.725,0,0,1,2.9-.207,10.074,10.074,0,0,1,2.483.207,9.619,9.619,0,0,1,1.862.621c.621.207,1.035.414,1.655.621,0,0,.207.207,0,.207L72.608,22.58s-.207.207-.207,0c-.414-.207-.621-.414-1.035-.621a3.836,3.836,0,0,0-1.448-.414,4.034,4.034,0,0,0-1.655-.207" transform="translate(49.24 -9.544)" fill="#fff" fill-rule="evenodd"/>
      <path id="Trazado_17633" data-name="Trazado 17633" d="M68.628,21.777h4.345a.2.2,0,0,1,.207.207V40.607a.2.2,0,0,1-.207.207H68.628a.2.2,0,0,1-.207-.207h0l.207-18.83c-.207.207-.207,0,0,0M67.8,16.4a2.9,2.9,0,1,1,5.794,0,2.927,2.927,0,0,1-4.966,2.069A3.677,3.677,0,0,1,67.8,16.4" transform="translate(57.17 -13.5)" fill="#fff" fill-rule="evenodd"/>
      <path id="Trazado_17634" data-name="Trazado 17634" d="M80.37,21.238H79.128a8.963,8.963,0,0,0-1.035.207,8.961,8.961,0,0,0-1.035.207V32.619a8.962,8.962,0,0,1,1.035.207c.414,0,.621.207,1.035.207H80.37a7.439,7.439,0,0,0,2.276-.414,4.886,4.886,0,0,0,1.862-1.242l1.242-1.862a10.386,10.386,0,0,0,.414-2.483,10.386,10.386,0,0,0-.414-2.483,3.722,3.722,0,0,0-1.242-1.862,3.013,3.013,0,0,0-1.862-1.242c-.621,0-1.448-.207-2.276-.207M76.852,44H72.507a.2.2,0,0,1-.207-.207V18.755a15.716,15.716,0,0,1,2.276-.828c.828-.207,1.655-.414,2.69-.621a13.661,13.661,0,0,1,2.9-.207,9.6,9.6,0,0,1,4.345.828A12.916,12.916,0,0,1,87.819,20a6.953,6.953,0,0,1,2.069,3.311,12.1,12.1,0,0,1,.828,3.931,8.4,8.4,0,0,1-.828,3.931,11.117,11.117,0,0,1-2.069,3.311,8.1,8.1,0,0,1-3.311,2.069,9.6,9.6,0,0,1-4.345.828H78.921a8.963,8.963,0,0,1-1.035-.207,8.962,8.962,0,0,1-1.035-.207V44h0" transform="translate(62.01 -9.651)" fill="#fff" fill-rule="evenodd"/>
      <path id="Trazado_17635" data-name="Trazado 17635" d="M83.107,40.386c-.207,0-.207-.207,0,0L82.9,17.831V14.107a.2.2,0,0,1,.207-.207h4.345a.2.2,0,0,1,.207.207V40.179a.2.2,0,0,1-.207.207h0" transform="translate(73.363 -13.072)" fill="#fff" fill-rule="evenodd"/>
      <line id="Línea_104" data-name="Línea 104" x1="4.345" transform="translate(156.469 27.313)" fill="none"/>
      <path id="Trazado_17636" data-name="Trazado 17636" d="M100.464,25.8a5.438,5.438,0,0,0-1.448-3.1,4.085,4.085,0,0,0-2.9-1.242,3.757,3.757,0,0,0-2.9,1.242,5.437,5.437,0,0,0-1.448,3.1Zm2.69,3.931H91.566a7.873,7.873,0,0,0,1.862,2.69c.828.828,2.069,1.035,3.931,1.035a5.729,5.729,0,0,0,1.862-.207c.414-.207,1.035-.207,1.448-.621a4.523,4.523,0,0,0,1.035-.621h.207l1.655,3.1v.207a7.259,7.259,0,0,1-1.655,1.035,8.647,8.647,0,0,1-2.069.828,12.11,12.11,0,0,1-2.69.414,10.177,10.177,0,0,1-4.345-.828A11.117,11.117,0,0,1,89.5,34.7a9.011,9.011,0,0,1-2.069-3.311,13.378,13.378,0,0,1-.828-4.138,13.341,13.341,0,0,1,.621-4.138A8.1,8.1,0,0,1,89.29,19.8a8.186,8.186,0,0,1,3.1-2.069,12.084,12.084,0,0,1,3.725-.828,7.086,7.086,0,0,1,3.725.828,10.188,10.188,0,0,1,3.1,2.069,17.871,17.871,0,0,1,2.069,3.311,12.444,12.444,0,0,1,.621,4.138v.207l-2.483,2.276Z" transform="translate(77.386 -9.865)" fill="#fff" fill-rule="evenodd"/>
      <path id="Trazado_17637" data-name="Trazado 17637" d="M115.209,35.416a9.372,9.372,0,0,1-.621,3.311,6.722,6.722,0,0,1-2.069,2.69,7.792,7.792,0,0,1-3.1,1.862,13.756,13.756,0,0,1-4.345.621,12.213,12.213,0,0,1-2.9-.414,10.086,10.086,0,0,1-2.276-.828,8.387,8.387,0,0,1-1.862-1.035l1.655-3.311s.207-.207.207,0h0l1.242.621a14.254,14.254,0,0,0,1.655.621,6.379,6.379,0,0,0,2.069.207,5.48,5.48,0,0,0,2.9-.621,3.833,3.833,0,0,0,1.655-1.448,6.473,6.473,0,0,0,1.035-2.069v-.414c-.414,0-.828.207-1.242.207a2.624,2.624,0,0,0-1.242.207h-1.448A13.342,13.342,0,0,1,102.38,35a7.015,7.015,0,0,1-2.9-1.862,7.874,7.874,0,0,1-1.862-2.69A9.372,9.372,0,0,1,97,27.139V17.207A.2.2,0,0,1,97.207,17h4.345a.2.2,0,0,1,.207.207V27.346A4.211,4.211,0,0,0,103,30.45a4.867,4.867,0,0,0,3.518,1.242h1.448c.414,0,.828-.207,1.242-.207s.828-.207,1.242-.207V17.621a.2.2,0,0,1,.207-.207H115a.2.2,0,0,1,.207.207v17.8Z" transform="translate(88.505 -9.758)" fill="#fff" fill-rule="evenodd"/>
      <path id="Trazado_17638" data-name="Trazado 17638" d="M27.1,36.551V19.169c0-.207,0-.207.207-.414.828-.207,1.655-.621,2.483-.828s1.862-.414,2.9-.621a15.661,15.661,0,0,1,3.1-.207,13.342,13.342,0,0,1,4.138.621,7.015,7.015,0,0,1,2.9,1.862,7.874,7.874,0,0,1,1.862,2.69,9.372,9.372,0,0,1,.621,3.311v10.76a.445.445,0,0,1-.414.414H40.964a.445.445,0,0,1-.414-.414V25.584a4.211,4.211,0,0,0-1.242-3.1,4.867,4.867,0,0,0-3.518-1.242,3.521,3.521,0,0,0-1.448.207c-.414,0-.828.207-1.242.207-.414.207-.621.207-1.035.414-.207,0-.207.207-.207.414V36.551a.445.445,0,0,1-.414.414H27.514a.445.445,0,0,1-.414-.414" transform="translate(13.525 -9.651)" fill="#fff" fill-rule="evenodd"/>
      <path id="Trazado_17639" data-name="Trazado 17639" d="M30.343,32.826c-.414,0-.828.207-1.242.207s-.828.207-1.242.207H26.2c-1.448,0-2.69-.207-3.1-.828a2.069,2.069,0,0,1,0-3.311,5.584,5.584,0,0,1,3.1-.828h1.448a2.624,2.624,0,0,1,1.242.207c.414,0,.828.207,1.242.207v4.138ZM34.9,25.377a8.279,8.279,0,0,0-2.276-6A9.147,9.147,0,0,0,26,17.1a12.725,12.725,0,0,0-2.9.207c-.828.207-1.448.414-2.069.621a4.505,4.505,0,0,0-1.655,1.035v.207l1.655,3.1s.207.207.207,0l1.242-.621c.414-.207,1.035-.207,1.655-.414a6.379,6.379,0,0,1,2.069-.207,4.3,4.3,0,0,1,3.1.828,3.427,3.427,0,0,1,1.035,2.483c-.414,0-.828-.207-1.242-.207a2.624,2.624,0,0,1-1.242-.207H26.2a23.268,23.268,0,0,0-4.138.414,8.259,8.259,0,0,0-2.69,1.448,8.1,8.1,0,0,0-1.655,2.069,5.728,5.728,0,0,0-.621,2.69,6.372,6.372,0,0,0,.621,2.69,5.255,5.255,0,0,0,1.655,2.069,11.148,11.148,0,0,0,2.69,1.448,12.135,12.135,0,0,0,4.138.414,16.725,16.725,0,0,0,3.311-.207c.828-.207,1.655-.207,2.69-.414l2.9-2.69V25.377Z" transform="translate(2.764 -9.651)" fill="#fff" fill-rule="evenodd"/>
    </g>
    <g id="Grupo_5189" data-name="Grupo 5189" transform="translate(294.529 379.724)">
      <g id="Grupo_5186" data-name="Grupo 5186" transform="translate(19.037 0)">
        <path id="Trazado_17640" data-name="Trazado 17640" d="M150.726,38.975H63.2a5.052,5.052,0,0,1-1.448-.207v-5.38c0-.207.621-.207,1.448-.207h87.527a5.052,5.052,0,0,1,1.448.207v5.173c0,.207-.621.414-1.448.414" transform="translate(-61.75 -33.181)" fill="#9b9b9b" fill-rule="evenodd"/>
      </g>
      <g id="Grupo_5187" data-name="Grupo 5187" transform="translate(7.863 0)">
        <path id="Trazado_17641" data-name="Trazado 17641" d="M102.493,38.975h-44.9c-.621,0-1.242-.207-1.242-.621V33.8c0-.414.621-.621,1.242-.621h44.9" transform="translate(-56.35 -33.181)" fill="#c9c9c9" fill-rule="evenodd"/>
      </g>
      <g id="Grupo_5188" data-name="Grupo 5188" transform="translate(0 0)">
        <path id="Trazado_17642" data-name="Trazado 17642" d="M84.209,38.975H54a5.052,5.052,0,0,1-1.448-.207v-5.38c0-.207.621-.207,1.448-.207h30.21a5.052,5.052,0,0,1,1.448.207v5.173c0,.207-.621.414-1.448.414" transform="translate(-52.55 -33.181)" fill="#fff" fill-rule="evenodd"/>
      </g>
    </g>
  </g>
</svg>
