<svg xmlns="http://www.w3.org/2000/svg" width="203.71" height="46.52" viewBox="0 0 203.71 46.52">
  <g id="Grupo_5228" data-name="Grupo 5228" transform="translate(-314 -336)">
    <g id="Grupo_5222" data-name="Grupo 5222" transform="translate(314 336)">
      <path id="Trazado_17646" data-name="Trazado 17646" d="M15.594,37.044a7.461,7.461,0,0,0,2.283-.415,4.9,4.9,0,0,0,1.868-1.245l1.245-1.868a10.417,10.417,0,0,0,.415-2.49,10.417,10.417,0,0,0-.415-2.49,3.733,3.733,0,0,0-1.245-1.868,3.022,3.022,0,0,0-1.868-1.245,8.826,8.826,0,0,0-2.283-.415H14.349a8.989,8.989,0,0,0-1.038.208,8.989,8.989,0,0,0-1.038.208v11a8.989,8.989,0,0,1,1.038.208c.415,0,.623.208,1.038.208A2.632,2.632,0,0,0,15.594,37.044ZM12.273,21.271a8.989,8.989,0,0,0,1.038-.208c.415,0,.623-.208,1.038-.208h1.245a9.626,9.626,0,0,1,4.358.83,11.15,11.15,0,0,1,3.321,2.075,9.038,9.038,0,0,1,2.075,3.321,12.136,12.136,0,0,1,.83,3.943,8.422,8.422,0,0,1-.83,3.943,11.15,11.15,0,0,1-2.075,3.321,8.125,8.125,0,0,1-3.321,2.075,9.626,9.626,0,0,1-4.358.83,12.763,12.763,0,0,1-2.906-.208c-.83-.208-1.66-.415-2.7-.623a11.7,11.7,0,0,1-2.49-.83V14.008a.2.2,0,0,1,.208-.208h4.358a.2.2,0,0,1,.208.208h0v7.264Z" transform="translate(-7.5 -13.177)" fill="#502d7f" fill-rule="evenodd"/>
      <path id="Trazado_17647" data-name="Trazado 17647" d="M54.226,35.19V35.4a7.285,7.285,0,0,1-1.66,1.034,8.692,8.692,0,0,1-2.075.827,12.808,12.808,0,0,1-2.906.207,9.656,9.656,0,0,1-4.358-.827,11.156,11.156,0,0,1-3.321-2.068,6.945,6.945,0,0,1-2.075-3.309A13.309,13.309,0,0,1,37,27.333a8.366,8.366,0,0,1,.83-3.929A11.1,11.1,0,0,1,39.906,20.1a8.129,8.129,0,0,1,3.321-2.068,9.656,9.656,0,0,1,4.358-.827,6.15,6.15,0,0,1,2.7.414c.83.207,1.453.414,2.075.62a4.521,4.521,0,0,1,1.66,1.034v.207l-1.66,3.1s-.208.207-.208,0h0c-.415-.207-.623-.414-1.038-.62a3.008,3.008,0,0,0-1.453-.414A5.175,5.175,0,0,0,48,21.336a10.452,10.452,0,0,0-2.49.414,14.569,14.569,0,0,0-1.868,1.241A4.881,4.881,0,0,0,42.4,24.851a8.766,8.766,0,0,0-.415,2.275,5.763,5.763,0,0,0,1.66,4.136A4.9,4.9,0,0,0,45.509,32.5a5.282,5.282,0,0,0,2.49.414,6.591,6.591,0,0,0,3.321-.827,4.54,4.54,0,0,0,1.038-.62h.208l1.66,3.722Z" transform="translate(24.125 -9.536)" fill="#502d7f" fill-rule="evenodd"/>
      <path id="Trazado_17648" data-name="Trazado 17648" d="M60.758,27.333a10.345,10.345,0,0,0-.415-2.481,5.416,5.416,0,0,0-1.038-1.861,3.227,3.227,0,0,0-1.66-1.241,6.159,6.159,0,0,0-2.075-.414,7.4,7.4,0,0,0-2.075.414,3.226,3.226,0,0,0-1.66,1.241A8.373,8.373,0,0,0,50.8,24.851a10.345,10.345,0,0,0-.415,2.481,10.345,10.345,0,0,0,.415,2.481,5.416,5.416,0,0,0,1.038,1.861,4.868,4.868,0,0,0,3.736,1.654,7.4,7.4,0,0,0,2.075-.414,3.227,3.227,0,0,0,1.66-1.241,8.373,8.373,0,0,0,1.038-1.861,10.345,10.345,0,0,0,.415-2.481m-15.358,0a8.366,8.366,0,0,1,.83-3.929A11.1,11.1,0,0,1,48.306,20.1a10.221,10.221,0,0,1,3.113-2.068,8.448,8.448,0,0,1,3.943-.827,10.391,10.391,0,0,1,7.264,2.9A11.1,11.1,0,0,1,64.7,23.4a13.309,13.309,0,0,1,.83,3.929,8.366,8.366,0,0,1-.83,3.929,11.1,11.1,0,0,1-2.075,3.309,10.221,10.221,0,0,1-3.113,2.068,9.021,9.021,0,0,1-3.943.827,9.9,9.9,0,0,1-7.056-2.9,11.1,11.1,0,0,1-2.075-3.309A6.6,6.6,0,0,1,45.4,27.333" transform="translate(33.129 -9.536)" fill="#502d7f" fill-rule="evenodd"/>
      <path id="Trazado_17649" data-name="Trazado 17649" d="M68.287,21.329a2.645,2.645,0,0,0-1.245.206c-.415,0-.623.206-1.038.206-.415.206-.623.206-.83.413V36.608a.2.2,0,0,1-.208.206H60.608a.2.2,0,0,1-.208-.206h0V18.852a7.459,7.459,0,0,1,2.283-.826c.83-.206,1.66-.413,2.283-.619a12.828,12.828,0,0,1,2.906-.206,10.155,10.155,0,0,1,2.49.206,9.683,9.683,0,0,1,1.868.619c.623.206,1.038.413,1.66.619,0,0,.208.206,0,.206l-1.245,3.716s-.208.206-.208,0c-.415-.206-.623-.413-1.038-.619a3.863,3.863,0,0,0-1.453-.413,4.066,4.066,0,0,0-1.66-.206" transform="translate(49.215 -9.521)" fill="#502d7f" fill-rule="evenodd"/>
      <path id="Trazado_17650" data-name="Trazado 17650" d="M68.63,21.8h4.358a.2.2,0,0,1,.208.208V40.688a.2.2,0,0,1-.208.208H68.63a.2.2,0,0,1-.208-.208h0L68.63,21.8c-.208.208-.208,0,0,0m-.83-5.4a2.906,2.906,0,1,1,5.811,0,2.935,2.935,0,0,1-4.981,2.075,3.687,3.687,0,0,1-.83-2.075" transform="translate(57.156 -13.5)" fill="#502d7f" fill-rule="evenodd"/>
      <path id="Trazado_17651" data-name="Trazado 17651" d="M80.394,21.251H79.149a8.988,8.988,0,0,0-1.038.208,8.99,8.99,0,0,0-1.038.208v11a8.988,8.988,0,0,1,1.038.208c.415,0,.623.208,1.038.208h1.245a7.461,7.461,0,0,0,2.283-.415,4.9,4.9,0,0,0,1.868-1.245l1.245-1.868a10.417,10.417,0,0,0,.415-2.49,10.417,10.417,0,0,0-.415-2.49A3.733,3.733,0,0,0,84.545,22.7a3.022,3.022,0,0,0-1.868-1.245c-.623,0-1.453-.208-2.283-.208M76.866,44.08H72.508a.2.2,0,0,1-.208-.208V18.76a15.764,15.764,0,0,1,2.283-.83c.83-.208,1.66-.415,2.7-.623a13.7,13.7,0,0,1,2.906-.208,9.626,9.626,0,0,1,4.358.83,12.954,12.954,0,0,1,3.321,2.075,6.974,6.974,0,0,1,2.075,3.321,12.136,12.136,0,0,1,.83,3.943,8.422,8.422,0,0,1-.83,3.943,11.15,11.15,0,0,1-2.075,3.321,8.125,8.125,0,0,1-3.321,2.075,9.626,9.626,0,0,1-4.358.83H78.941a8.989,8.989,0,0,1-1.038-.208,8.988,8.988,0,0,1-1.038-.208V44.08h0" transform="translate(61.967 -9.731)" fill="#502d7f" fill-rule="evenodd"/>
      <path id="Trazado_17652" data-name="Trazado 17652" d="M83.108,40.465c-.208,0-.208-.208,0,0L82.9,17.843V14.108a.2.2,0,0,1,.208-.208h4.358a.2.2,0,0,1,.208.208v26.15a.2.2,0,0,1-.208.208h0" transform="translate(73.348 -13.07)" fill="#502d7f" fill-rule="evenodd"/>
      <line id="Línea_105" data-name="Línea 105" x1="4.358" transform="translate(156.456 27.314)" fill="#502d7f"/>
      <path id="Trazado_17653" data-name="Trazado 17653" d="M100.505,25.78a5.416,5.416,0,0,0-1.453-3.1,4.107,4.107,0,0,0-2.906-1.239,3.777,3.777,0,0,0-2.906,1.239,5.416,5.416,0,0,0-1.453,3.1Zm2.7,3.924H91.581a7.858,7.858,0,0,0,1.868,2.685c.83.826,2.075,1.033,3.943,1.033a5.773,5.773,0,0,0,1.868-.207c.415-.207,1.038-.207,1.453-.62a4.541,4.541,0,0,0,1.038-.62h.208l1.66,3.1v.207a7.286,7.286,0,0,1-1.66,1.033,8.7,8.7,0,0,1-2.075.826,12.2,12.2,0,0,1-2.7.413,10.251,10.251,0,0,1-4.358-.826,11.158,11.158,0,0,1-3.321-2.065,8.987,8.987,0,0,1-2.075-3.3,13.3,13.3,0,0,1-.83-4.13,13.255,13.255,0,0,1,.623-4.13,8.079,8.079,0,0,1,2.075-3.3,8.213,8.213,0,0,1,3.113-2.065,12.171,12.171,0,0,1,3.736-.826,7.136,7.136,0,0,1,3.736.826A10.222,10.222,0,0,1,103,19.791a17.822,17.822,0,0,1,2.075,3.3,12.363,12.363,0,0,1,.623,4.13v.207L103.2,29.7Z" transform="translate(77.262 -9.844)" fill="#502d7f" fill-rule="evenodd"/>
      <path id="Trazado_17654" data-name="Trazado 17654" d="M115.263,35.471a9.4,9.4,0,0,1-.623,3.321,6.742,6.742,0,0,1-2.075,2.7,7.815,7.815,0,0,1-3.113,1.868,13.8,13.8,0,0,1-4.358.623,12.249,12.249,0,0,1-2.906-.415,10.117,10.117,0,0,1-2.283-.83A8.412,8.412,0,0,1,98.038,41.7l1.66-3.321s.208-.208.208,0h0l1.245.623a14.3,14.3,0,0,0,1.66.623,6.4,6.4,0,0,0,2.075.208,5.5,5.5,0,0,0,2.906-.623,3.845,3.845,0,0,0,1.66-1.453,6.492,6.492,0,0,0,1.038-2.075v-.415c-.415,0-.83.208-1.245.208a2.632,2.632,0,0,0-1.245.208h-1.453a13.382,13.382,0,0,1-4.151-.623,7.036,7.036,0,0,1-2.906-1.868,7.9,7.9,0,0,1-1.868-2.7A9.4,9.4,0,0,1,97,27.169V17.208A.2.2,0,0,1,97.208,17h4.358a.2.2,0,0,1,.208.208V27.377a4.224,4.224,0,0,0,1.245,3.113,4.882,4.882,0,0,0,3.528,1.245H108c.415,0,.83-.208,1.245-.208s.83-.208,1.245-.208v-13.7a.2.2,0,0,1,.208-.208h4.358a.2.2,0,0,1,.208.208V35.471Z" transform="translate(88.447 -9.838)" fill="#502d7f" fill-rule="evenodd"/>
      <path id="Trazado_17655" data-name="Trazado 17655" d="M27.1,36.509V19.165c0-.206,0-.206.208-.413.83-.206,1.66-.619,2.49-.826s1.868-.413,2.906-.619a15.788,15.788,0,0,1,3.113-.206,13.445,13.445,0,0,1,4.151.619,7.04,7.04,0,0,1,2.906,1.858,7.856,7.856,0,0,1,1.868,2.684,9.31,9.31,0,0,1,.623,3.3V36.3a.445.445,0,0,1-.415.413H41.005a.445.445,0,0,1-.415-.413V25.565a4.191,4.191,0,0,0-1.245-3.1,4.9,4.9,0,0,0-3.528-1.239,3.549,3.549,0,0,0-1.453.206c-.415,0-.83.206-1.245.206-.415.206-.623.206-1.038.413-.208,0-.208.206-.208.413v14.04a.445.445,0,0,1-.415.413H27.515a.445.445,0,0,1-.415-.413" transform="translate(13.512 -9.629)" fill="#502d7f" fill-rule="evenodd"/>
      <path id="Trazado_17656" data-name="Trazado 17656" d="M30.383,32.793c-.415,0-.83.206-1.245.206s-.83.206-1.245.206h-1.66c-1.453,0-2.7-.206-3.113-.826a2.059,2.059,0,0,1,0-3.3,5.622,5.622,0,0,1,3.113-.826h1.453a2.644,2.644,0,0,1,1.245.206c.415,0,.83.206,1.245.206v4.13Zm4.566-7.434a8.238,8.238,0,0,0-2.283-5.988A9.2,9.2,0,0,0,26.024,17.1a12.827,12.827,0,0,0-2.906.206c-.83.206-1.453.413-2.075.619a4.522,4.522,0,0,0-1.66,1.032v.206l1.66,3.1s.208.206.208,0l1.245-.619c.415-.206,1.038-.206,1.66-.413a6.429,6.429,0,0,1,2.075-.206,4.324,4.324,0,0,1,3.113.826,3.411,3.411,0,0,1,1.038,2.478c-.415,0-.83-.206-1.245-.206a2.644,2.644,0,0,1-1.245-.206h-1.66a23.452,23.452,0,0,0-4.151.413,8.3,8.3,0,0,0-2.7,1.445,8.092,8.092,0,0,0-1.66,2.065,5.692,5.692,0,0,0-.623,2.684,6.331,6.331,0,0,0,.623,2.684,5.248,5.248,0,0,0,1.66,2.065,11.2,11.2,0,0,0,2.7,1.445,12.23,12.23,0,0,0,4.151.413,16.86,16.86,0,0,0,3.321-.206c.83-.206,1.66-.206,2.7-.413l2.906-2.684V25.359Z" transform="translate(2.824 -9.629)" fill="#502d7f" fill-rule="evenodd"/>
    </g>
    <g id="Grupo_5226" data-name="Grupo 5226" transform="translate(407.451 376.717)">
      <g id="Grupo_5223" data-name="Grupo 5223" transform="translate(16.228 0)">
        <path id="Trazado_17657" data-name="Trazado 17657" d="M62.314,6H-28.005A5.357,5.357,0,0,1-29.5,5.8V.407C-29.5.2-28.859.2-28.005.2H62.314a5.357,5.357,0,0,1,1.495.207V5.589c0,.207-.641.415-1.495.415" transform="translate(29.5 -0.2)" fill="#e32f37" fill-rule="evenodd"/>
      </g>
      <g id="Grupo_5224" data-name="Grupo 5224" transform="translate(6.703 0)">
        <path id="Trazado_17658" data-name="Trazado 17658" d="M4.434,6H-33.842C-34.371,6-34.9,5.8-34.9,5.381V.822c0-.415.529-.622,1.058-.622H4.434" transform="translate(34.9 -0.2)" fill="#f2ae4d" fill-rule="evenodd"/>
      </g>
      <g id="Grupo_5225" data-name="Grupo 5225" transform="translate(0 0)">
        <path id="Trazado_17659" data-name="Trazado 17659" d="M-11.713,6H-37.465A3.727,3.727,0,0,1-38.7,5.8V.407C-38.7.2-38.171.2-37.465.2h25.752a3.727,3.727,0,0,1,1.235.207V5.589c0,.207-.529.415-1.235.415" transform="translate(38.7 -0.2)" fill="#8b4591" fill-rule="evenodd"/>
      </g>
    </g>
  </g>
</svg>
