<svg id="Grupo_333" data-name="Grupo 333" xmlns="http://www.w3.org/2000/svg" width="205.537" height="35.807" viewBox="0 0 205.537 35.807">
  <path id="Trazado_927" data-name="Trazado 927" d="M41.354,37.418a8.091,8.091,0,0,0-1.121-3.71L34.364,23.441a8.933,8.933,0,0,1-.95-2.5l-.259.43a8.181,8.181,0,0,0,0,8.2l4.747,8.2a8.181,8.181,0,0,1,0,8.2l-.259.433a8.877,8.877,0,0,0-.95-2.5L32.38,36.383l-2.76-4.831a8.775,8.775,0,0,1-.95-2.5l-.259.433a8.181,8.181,0,0,0,0,8.2h0l4.744,8.2a8.186,8.186,0,0,1,0,8.2l-.259.43a8.706,8.706,0,0,0-.95-2.5l-5.953-10.27a9.121,9.121,0,0,1-1.121-4.486c-6.3,1.639-10.7,5.177-10.7,9.233,0,5.694,8.457,10.267,18.9,10.267s18.9-4.573,18.9-10.267C52.054,42.595,47.739,39.059,41.354,37.418ZM59.215,54.933A11.83,11.83,0,0,1,59.9,51.31a16.192,16.192,0,0,0,6.473,1.38c3.28,0,5.177-1.034,5.177-3.19,0-2.074-1.38-3.021-4.66-4.491l-1.81-.689c-3.367-1.467-5.61-3.364-5.61-7.074,0-4.056,2.847-6.644,8.544-6.644a19.6,19.6,0,0,1,6.47,1.034,13.548,13.548,0,0,1-.691,3.538,18.685,18.685,0,0,0-5.866-1.037c-3.108,0-4.488,1.208-4.488,3.108,0,1.813,1.38,2.932,3.884,3.969l1.9.776c4.488,1.9,6.386,3.969,6.386,7.422,0,4.056-3.106,6.9-9.146,6.9A16.668,16.668,0,0,1,59.215,54.933Zm35.464-17V55.712H91.056l-.174-2.156a5.511,5.511,0,0,1-5.005,2.586c-4.657,0-7.85-3.451-7.85-9.4,0-6.212,3.364-9.837,9.922-9.837A22.418,22.418,0,0,1,94.679,37.937ZM90.8,51.656V40.526a13.879,13.879,0,0,0-2.85-.174c-4.056,0-5.953,2.5-5.953,6.47,0,3.625,1.467,6.214,4.918,6.214A6.777,6.777,0,0,0,90.8,51.656ZM114.7,43.8V55.712h-3.884V44.494c0-2.847-.95-4.143-4.831-4.143a20.615,20.615,0,0,0-3.106.259v15.1H98.993V37.937A34.114,34.114,0,0,1,106.07,36.9C112.627,36.985,114.7,39.489,114.7,43.8Zm10.874,9.064a7.916,7.916,0,0,0,3.016-.517c-.085,1.032-.259,2.241-.43,3.277a8.782,8.782,0,0,1-3.28.6c-3.8,0-6.212-1.726-6.212-6.04V31.465a12.125,12.125,0,0,1,3.884-.6v6.729h6.212c-.085,1.208-.174,2.332-.346,3.367h-5.866v8.713C122.551,51.915,123.672,52.864,125.572,52.864Zm20.965-14.927V55.712h-3.621l-.176-2.156a5.507,5.507,0,0,1-5,2.586c-4.66,0-7.853-3.451-7.853-9.4,0-6.212,3.364-9.837,9.924-9.837A22.843,22.843,0,0,1,146.537,37.937Zm-3.969,13.719V40.526a13.867,13.867,0,0,0-2.85-.174c-4.053,0-5.953,2.5-5.953,6.47,0,3.625,1.469,6.214,4.921,6.214A6.55,6.55,0,0,0,142.568,51.656ZM166.556,43.8V55.712h-3.971V44.494c0-2.847-.947-4.143-4.829-4.143a20.615,20.615,0,0,0-3.106.259v15.1h-3.884V37.937a34.093,34.093,0,0,1,7.074-1.037C164.4,36.985,166.556,39.489,166.556,43.8Zm19.761-12.94V55.712h-3.625l-.176-2.243a5.446,5.446,0,0,1-5.088,2.673c-4.66,0-7.85-3.451-7.85-9.4,0-6.212,3.364-9.837,9.922-9.837a15.981,15.981,0,0,1,2.932.259V31.293A14.5,14.5,0,0,1,186.317,30.861Zm-3.886,20.8V40.7a19.323,19.323,0,0,0-3.106-.343c-3.882,0-5.694,2.417-5.694,6.47,0,3.625,1.469,6.214,4.921,6.214A6.993,6.993,0,0,0,182.431,51.656Zm23.555-3.538h-12.51c.52,3.193,2.327,4.657,5.868,4.657a13.917,13.917,0,0,0,6.214-1.378c-.176,1.034-.346,2.415-.6,3.536a14.091,14.091,0,0,1-5.784,1.124c-6.557,0-9.663-3.625-9.663-9.665,0-5.264,2.417-9.491,8.628-9.491,5.61,0,8.027,3.625,8.027,8.109A17.372,17.372,0,0,1,205.986,48.117Zm-12.51-3.28h8.8c0-2.934-1.552-4.66-4.225-4.66C195.2,40.267,193.737,41.819,193.476,44.838Zm26.233-7.679a17.683,17.683,0,0,1-.346,3.367c-.947-.087-1.813-.174-2.937-.174-.947,0-1.9.087-2.845.174V55.712H209.7V37.937a22.394,22.394,0,0,1,6.647-1.037C217.462,36.985,218.844,36.985,219.71,37.159Z" transform="translate(-14.173 -20.939)" fill="#fff"/>
</svg>
