<svg xmlns="http://www.w3.org/2000/svg" width="205.54" height="35.81" viewBox="0 0 205.54 35.81">
  <g id="santanderlogo" transform="translate(-5.2 -14.4)">
    <path id="Trazado_17660" data-name="Trazado 17660" d="M32.512,30.821a6.955,6.955,0,0,0-1.2-3.759l-5.781-10.09a9.893,9.893,0,0,1-1-2.572l-.2.4a8.379,8.379,0,0,0,0,8.112l4.785,8.112a8.379,8.379,0,0,1,0,8.112l-.2.4a13.673,13.673,0,0,0-1-2.572l-4.386-7.518L20.75,24.688a9.893,9.893,0,0,1-1-2.572l-.2.4a8.382,8.382,0,0,0,0,8.112h0l4.785,8.112a8.379,8.379,0,0,1,0,8.112l-.2.4a13.673,13.673,0,0,0-1-2.572L17.162,34.58a8.967,8.967,0,0,1-1.2-4.353C9.586,31.81,5.2,35.372,5.2,39.329c0,5.738,8.373,10.09,18.939,10.09,10.367,0,18.939-4.55,18.939-10.09C43.278,35.965,38.892,32.4,32.512,30.821Zm17.942,17.41a10.277,10.277,0,0,1,.6-3.561,15.508,15.508,0,0,0,6.38,1.385c3.19,0,5.183-.989,5.183-3.166,0-1.978-1.4-2.968-4.585-4.353l-1.794-.594c-3.389-1.385-5.582-3.363-5.582-6.925,0-3.957,2.791-6.529,8.572-6.529a21.546,21.546,0,0,1,6.38.989,16.54,16.54,0,0,1-.6,3.561,22.158,22.158,0,0,0-5.781-.989c-3.19,0-4.386,1.187-4.386,3.166,0,1.781,1.4,2.968,3.788,3.957l1.994.791c4.386,1.978,6.38,3.957,6.38,7.32,0,3.957-3.19,6.925-9.171,6.925A74.663,74.663,0,0,1,50.455,48.232ZM85.941,31.217V48.825H82.352l-.2-2.176a5.486,5.486,0,0,1-4.984,2.572c-4.585,0-7.775-3.363-7.775-9.3,0-6.133,3.389-9.694,9.968-9.694A32.781,32.781,0,0,1,85.941,31.217ZM81.954,44.868V33.789a12.352,12.352,0,0,0-2.791-.2c-3.987,0-5.981,2.572-5.981,6.331,0,3.561,1.4,6.133,4.984,6.133A4.877,4.877,0,0,0,81.954,44.868Zm23.923-7.716V49.023h-3.788V37.944c0-2.77-1-4.155-4.785-4.155a18.38,18.38,0,0,0-3.19.2V49.023H90.327V31.415a34.59,34.59,0,0,1,6.978-.989C103.883,30.425,105.877,32.8,105.877,37.152Zm10.965,8.9a6.7,6.7,0,0,0,2.99-.594,17.192,17.192,0,0,1-.4,3.166,9.09,9.09,0,0,1-3.19.594c-3.788,0-6.18-1.781-6.18-5.935v-18.6a12.606,12.606,0,0,1,3.788-.594v6.727h6.18a17.3,17.3,0,0,1-.4,3.363h-5.781V42.89C113.652,45.066,114.848,46.055,116.842,46.055Zm20.933-14.838V48.825h-3.588l-.2-2.176A5.486,5.486,0,0,1,129,49.221c-4.585,0-7.775-3.363-7.775-9.3,0-6.133,3.389-9.694,9.968-9.694A35.12,35.12,0,0,1,137.774,31.217Zm-3.987,13.651V33.789a12.352,12.352,0,0,0-2.791-.2c-3.987,0-5.981,2.572-5.981,6.331,0,3.561,1.4,6.133,4.984,6.133A5.138,5.138,0,0,0,133.787,44.868Zm23.923-7.716V49.023h-3.987V37.944c0-2.77-1-4.155-4.785-4.155a18.38,18.38,0,0,0-3.19.2V49.023h-3.788V31.415a34.59,34.59,0,0,1,6.978-.989C155.517,30.425,157.71,32.8,157.71,37.152Zm19.737-12.86V49.023h-3.588l-.2-2.176a5.607,5.607,0,0,1-5.183,2.572c-4.585,0-7.775-3.363-7.775-9.3,0-6.133,3.389-9.694,9.968-9.694a15.2,15.2,0,0,1,2.99.2V24.886A8.051,8.051,0,0,1,177.447,24.292Zm-3.788,20.576V33.987a15.606,15.606,0,0,0-3.19-.4c-3.788,0-5.781,2.374-5.781,6.331,0,3.561,1.4,6.133,4.984,6.133A5.63,5.63,0,0,0,173.659,44.868Zm23.524-3.561h-12.56c.6,3.166,2.392,4.55,5.781,4.55a12.9,12.9,0,0,0,6.18-1.385c-.2.989-.4,2.374-.6,3.561a13.723,13.723,0,0,1-5.781,1.187c-6.579,0-9.569-3.561-9.569-9.5,0-5.144,2.392-9.5,8.572-9.5,5.582,0,7.974,3.561,7.974,8.112Zm-12.56-3.166H193.4c0-2.968-1.595-4.55-4.187-4.55C186.418,33.591,184.823,35.174,184.624,38.141Zm26.116-7.716a15.579,15.579,0,0,1-.4,3.363c-1,0-1.794-.2-2.99-.2a12.351,12.351,0,0,0-2.791.2V48.825h-3.788V31.217a21.886,21.886,0,0,1,6.579-.989A21.9,21.9,0,0,0,210.74,30.425Z" transform="translate(0 0)" fill="#e1251b"/>
  </g>
</svg>
