<svg xmlns="http://www.w3.org/2000/svg" width="130.649" height="34.204" viewBox="0 0 130.649 34.204">
  <g id="Grupo_5234" data-name="Grupo 5234" transform="translate(-344.895 -191.664)">
    <path id="Trazado_17680" data-name="Trazado 17680" d="M345.656,245.659c.237.238.5.458.731.694l.546.546,1.435,1.435,3.68,3.68,3.689,3.69c1.033,1.032,2.039,2.085,3.062,3.123a2.18,2.18,0,0,0,2.3.592c1.292-.43,2.241-1.734,3.154-2.679q1.422-1.472,2.813-2.973a4.531,4.531,0,0,0,1.4-2.5c.351-2.093-1.285-3.852-1.6-4.189a7.151,7.151,0,0,0-2.659-1.724c-2.6-1.017-4.672-.423-8.5-.938a5.8,5.8,0,0,1-2.047-.651,4.135,4.135,0,0,1-1.65-1.409,4.506,4.506,0,0,1-.486-3.1,16.646,16.646,0,0,0,.185-2.337l-2.259,2.164-3.438,3.294c-.561.538-1.2,1.1-1.106,1.965a1.96,1.96,0,0,0,.457,1A4.283,4.283,0,0,0,345.656,245.659Z" transform="translate(0 -33.665)" fill="#005daf"/>
    <path id="Trazado_17681" data-name="Trazado 17681" d="M397.4,205.537c-.237-.238-.5-.458-.732-.694l-.546-.546-1.435-1.435-3.68-3.68-3.689-3.69c-1.033-1.032-2.039-2.085-3.062-3.122a2.18,2.18,0,0,0-2.3-.592c-1.292.43-2.241,1.734-3.154,2.679q-1.422,1.472-2.813,2.973a4.529,4.529,0,0,0-1.4,2.5c-.351,2.093,1.285,3.852,1.6,4.189a7.152,7.152,0,0,0,2.659,1.724c2.6,1.017,4.672.423,8.5.938a5.8,5.8,0,0,1,2.047.651,4.135,4.135,0,0,1,1.65,1.409,4.5,4.5,0,0,1,.486,3.1,16.651,16.651,0,0,0-.185,2.337l2.259-2.164,3.438-3.294c.561-.538,1.2-1.1,1.106-1.965a1.957,1.957,0,0,0-.457-1A4.329,4.329,0,0,0,397.4,205.537Z" transform="translate(-22.057 0)" fill="#c00036"/>
    <path id="Trazado_17682" data-name="Trazado 17682" d="M489.6,225.768a21.329,21.329,0,0,1,3.325.52,4.145,4.145,0,0,1,2.306,1.048c.683.872-.15,2.146-.887,2.729-1.2.948-2.413.054-3.592-.4a6.136,6.136,0,0,0-1.41-.407,8.093,8.093,0,0,0-1.1-.066c-.452-.005-.774.016-.856.022a2.766,2.766,0,0,0-1.4.318,1.344,1.344,0,0,0-.338.31,1.447,1.447,0,0,0-.256.761,1.227,1.227,0,0,0,.03.391c.154.515,1.09.682,1.344.727,0,0,1.2.216,4.485.891a10.762,10.762,0,0,1,4.3,1.674,3.428,3.428,0,0,1,1.362,3.152,6.318,6.318,0,0,1-.269,1.719,3.811,3.811,0,0,1-.833,1.328c-1.768,1.85-4.713,2.036-7.112,2.075a18.215,18.215,0,0,1-8.013-1.574c-.593-.277-1.3-.738-1.147-1.5a2.231,2.231,0,0,1,.483-.9c1.131-1.441,2.282-1.4,3.843-.683a10.294,10.294,0,0,0,5.511,1.069,2.382,2.382,0,0,0,1.363-.528,1.043,1.043,0,0,0,.2-1.339,1.53,1.53,0,0,0-.784-.441c-1.655-.522-3.383-.862-5.074-1.248a11.356,11.356,0,0,1-3.025-.923,4.6,4.6,0,0,1-2.015-1.736,4.543,4.543,0,0,1,.523-4.428c2.018-2.956,6.968-2.694,8.2-2.629C488.85,225.712,489.179,225.732,489.6,225.768Z" transform="translate(-100.146 -25.3)" fill="#005daf"/>
    <path id="Trazado_17683" data-name="Trazado 17683" d="M557.758,227.049a1.806,1.806,0,0,0-.012.239c.011.913,0,1.827,0,2.74v3.827a12.194,12.194,0,0,0,.3,4.03,7.342,7.342,0,0,0,.937,1.748c2.167,2.908,6.725,2.925,7.687,2.929,1.835.007,4.74.018,6.79-2.1a7.417,7.417,0,0,0,1.667-2.705,14.582,14.582,0,0,0,.366-4.255c.045-1.469.052-2.938.082-4.407.018-.885.385-2.2-.289-2.921a3.035,3.035,0,0,0-2.468-.654c-.787.044-1.96.031-2.379.842a1.331,1.331,0,0,0-.089.691c.012.463,0,.928-.005,1.391q0,1.415-.009,2.83,0,1.357-.009,2.714c0,1.13.183,2.248-.561,3.193a3.832,3.832,0,0,1-3.082,1.246,4.224,4.224,0,0,1-3.124-1.525c-.555-.768-.544-2.013-.5-4.472.025-1.408-.066-2.82.036-4.225.06-.82.144-1.541-.322-2.059a2.613,2.613,0,0,0-1.8-.594,4.875,4.875,0,0,0-2.317.359A1.39,1.39,0,0,0,557.758,227.049Z" transform="translate(-158.33 -25.175)" fill="#005daf"/>
    <path id="Trazado_17684" data-name="Trazado 17684" d="M640.31,226.834a10.14,10.14,0,0,0-.018,1.069c-.009.5,0,1,0,1.493,0,1.238,0,1.69,0,2.991.012,3.566.138,4.966.069,6.221-.018.321-.019.647-.021,1.3,0,0,0,.179.058,1,.029.407.046.543.151.675s.256.216.691.3a5.335,5.335,0,0,0,1.153.078,12.425,12.425,0,0,0,1.522-.038,2.061,2.061,0,0,0,1.345-.7,1.555,1.555,0,0,0,.25-.962c-.027-1.005-.048-2.01-.072-3.015a13.29,13.29,0,0,1,.054-2.991c.045-.221.146-.468.362-.532a.624.624,0,0,1,.446.084,4.565,4.565,0,0,1,1.245,1.165l4.977,5.417a13.943,13.943,0,0,0,1.067,1.166,4.769,4.769,0,0,0,2.872.472c.882-.06,1.825-.406,1.928-1.407.112-1.081-.016-2.258-.014-3.352q0-1.78.008-3.56.009-3.515.021-7.029a1.27,1.27,0,0,0-.064-.5,1,1,0,0,0-.481-.463,4.351,4.351,0,0,0-1.816-.343,3.838,3.838,0,0,0-2.173.41.939.939,0,0,0-.49.732c-.038.911,0,1.827.008,2.739.029,1.928,0,1.572,0,2a5.9,5.9,0,0,1-.062,1.6.617.617,0,0,1-.339.405.747.747,0,0,1-.6-.085,9.35,9.35,0,0,1-2.171-2.225l-2.738-3.04a13.8,13.8,0,0,0-1.837-1.976,4.621,4.621,0,0,0-2.8-.727c-.979.025-2.214.284-2.483,1.378A2.129,2.129,0,0,0,640.31,226.834Z" transform="translate(-219.751 -24.953)" fill="#005daf"/>
    <path id="Trazado_17685" data-name="Trazado 17685" d="M730.711,238.3q1.714,0,3.428,0a.182.182,0,0,1,.187.1c.4.521.729,1.088,1.092,1.634s.72,1.212,1.434,1.338a8.489,8.489,0,0,0,2.273.024c.671-.064,1.247-.09,1.554-.777a2.058,2.058,0,0,0-.11-1.623c-.311-.731-.718-1.434-1.089-2.137-.291-.55-.584-1.1-.862-1.657l-1.916-3.842-.077-.154c-.5-1.005-1.05-2-1.51-3.025-.07-.155-.269-.645-.6-1.268a5.233,5.233,0,0,0-1.069-1.587,3.693,3.693,0,0,0-1.632-.82,4.144,4.144,0,0,0-1.823-.029,2.776,2.776,0,0,0-1.4.631,2.378,2.378,0,0,0-.494.648c-.111.212-.219.426-.329.639l-1.543,2.994-2.033,3.946c-1.04,2.02-2.192,4.013-3.07,6.111a3.1,3.1,0,0,0-.159.466.928.928,0,0,0,.271.958,2.367,2.367,0,0,0,1.159.471,6.86,6.86,0,0,0,2.169.089,2.087,2.087,0,0,0,1.153-.538,3.839,3.839,0,0,0,.71-1.163,14.009,14.009,0,0,1,.774-1.323.22.22,0,0,1,.244-.134C728.533,238.282,729.621,238.3,730.711,238.3Z" transform="translate(-279.743 -24.341)" fill="#005daf"/>
    <path id="Trazado_17686" data-name="Trazado 17686" d="M753.3,248.339l-1.535,3.584a.513.513,0,0,0,.471.715h3.07a.513.513,0,0,0,.471-.715l-1.535-3.584A.513.513,0,0,0,753.3,248.339Z" transform="translate(-302.654 -41.931)" fill="#fff"/>
    <path id="Trazado_17687" data-name="Trazado 17687" d="M804.481,225.61H790.306A1.387,1.387,0,0,0,788.919,227v1.021a1.386,1.386,0,0,0,1.387,1.387h2a9.1,9.1,0,0,1,1.816,0,.834.834,0,0,1,.5.237c.149.168.162.374.164.986,0,.374,0,.7-.008.982.007,1.431.008,2.587.009,3.374,0,1.72,0,3.273.029,3.922.006.1.032.565.033,1.208v.106a2.1,2.1,0,0,0,2.1,2.1h.97a2.1,2.1,0,0,0,2.1-2.1c-.061-5.626-.065-9.759,0-10.178a.833.833,0,0,1,.205-.442.749.749,0,0,1,.44-.194,35.354,35.354,0,0,1,3.811,0,1.416,1.416,0,0,0,.98-.406,1.382,1.382,0,0,0,.406-.98V227A1.387,1.387,0,0,0,804.481,225.61Z" transform="translate(-330.324 -25.254)" fill="#005daf"/>
  </g>
</svg>
