<svg xmlns="http://www.w3.org/2000/svg" width="205.211" height="46.931" viewBox="0 0 205.211 46.931">
  <g id="Grupo_5190" data-name="Grupo 5190" transform="translate(-7.5 -13.5)">
    <g id="Grupo_5185" data-name="Grupo 5185" transform="translate(7.5 13.5)">
      <path id="Trazado_17629" data-name="Trazado 17629" d="M15.642,37.181a7.5,7.5,0,0,0,2.3-.418,4.929,4.929,0,0,0,1.879-1.253l1.253-1.879a10.478,10.478,0,0,0,.418-2.505,10.479,10.479,0,0,0-.418-2.505,3.755,3.755,0,0,0-1.253-1.879,3.04,3.04,0,0,0-1.879-1.253,8.878,8.878,0,0,0-2.3-.418H14.389a9.042,9.042,0,0,0-1.044.209,9.041,9.041,0,0,0-1.044.209V36.555a9.041,9.041,0,0,1,1.044.209c.418,0,.626.209,1.044.209A2.648,2.648,0,0,0,15.642,37.181ZM12.3,21.315a9.041,9.041,0,0,0,1.044-.209c.418,0,.626-.209,1.044-.209h1.253a9.682,9.682,0,0,1,4.384.835,11.215,11.215,0,0,1,3.34,2.088,9.091,9.091,0,0,1,2.088,3.34,12.207,12.207,0,0,1,.835,3.966,8.472,8.472,0,0,1-.835,3.966,11.215,11.215,0,0,1-2.088,3.34,8.172,8.172,0,0,1-3.34,2.088,9.682,9.682,0,0,1-4.384.835,12.838,12.838,0,0,1-2.923-.209c-.835-.209-1.67-.418-2.714-.626A11.769,11.769,0,0,1,7.5,39.686V14.009a.2.2,0,0,1,.209-.209h4.384a.2.2,0,0,1,.209.209h0v7.307Z" transform="translate(-7.5 -13.174)" fill="#fff" fill-rule="evenodd"/>
      <path id="Trazado_17630" data-name="Trazado 17630" d="M54.327,35.362v.209a7.324,7.324,0,0,1-1.67,1.044,8.724,8.724,0,0,1-2.088.835,12.838,12.838,0,0,1-2.923.209,9.682,9.682,0,0,1-4.384-.835,11.216,11.216,0,0,1-3.34-2.088,7.015,7.015,0,0,1-2.088-3.34A13.478,13.478,0,0,1,37,27.429a8.472,8.472,0,0,1,.835-3.966,11.215,11.215,0,0,1,2.088-3.34,8.172,8.172,0,0,1,3.34-2.088,9.682,9.682,0,0,1,4.384-.835,6.166,6.166,0,0,1,2.714.418c.835.209,1.461.418,2.088.626a4.546,4.546,0,0,1,1.67,1.044V19.5l-1.67,3.131s-.209.209-.209,0h0c-.418-.209-.626-.418-1.044-.626a3.017,3.017,0,0,0-1.461-.418,5.188,5.188,0,0,0-1.67-.209,10.478,10.478,0,0,0-2.505.418,14.651,14.651,0,0,0-1.879,1.253,4.93,4.93,0,0,0-1.253,1.879,8.878,8.878,0,0,0-.418,2.3A5.829,5.829,0,0,0,43.68,31.4a4.93,4.93,0,0,0,1.879,1.253,5.3,5.3,0,0,0,2.505.418,6.61,6.61,0,0,0,3.34-.835,4.564,4.564,0,0,0,1.044-.626h.209l1.67,3.758Z" transform="translate(24.584 -9.476)" fill="#fff" fill-rule="evenodd"/>
      <path id="Trazado_17631" data-name="Trazado 17631" d="M60.848,27.429a10.478,10.478,0,0,0-.418-2.505,5.473,5.473,0,0,0-1.044-1.879,3.246,3.246,0,0,0-1.67-1.253,6.176,6.176,0,0,0-2.088-.418,7.417,7.417,0,0,0-2.088.418,3.246,3.246,0,0,0-1.67,1.253,8.462,8.462,0,0,0-1.044,1.879,10.479,10.479,0,0,0-.418,2.505,10.479,10.479,0,0,0,.418,2.505,5.473,5.473,0,0,0,1.044,1.879,4.889,4.889,0,0,0,3.758,1.67,7.417,7.417,0,0,0,2.088-.418,3.246,3.246,0,0,0,1.67-1.253,8.461,8.461,0,0,0,1.044-1.879,10.478,10.478,0,0,0,.418-2.505m-15.448,0a8.472,8.472,0,0,1,.835-3.966,11.215,11.215,0,0,1,2.088-3.34,10.278,10.278,0,0,1,3.131-2.088A8.472,8.472,0,0,1,55.42,17.2a10.432,10.432,0,0,1,7.307,2.923,11.215,11.215,0,0,1,2.088,3.34,13.477,13.477,0,0,1,.835,3.966,8.472,8.472,0,0,1-.835,3.966,11.215,11.215,0,0,1-2.088,3.34A10.278,10.278,0,0,1,59.6,36.823a9.046,9.046,0,0,1-3.966.835,9.941,9.941,0,0,1-7.1-2.923,11.215,11.215,0,0,1-2.088-3.34A6.677,6.677,0,0,1,45.4,27.429" transform="translate(33.72 -9.476)" fill="#fff" fill-rule="evenodd"/>
      <path id="Trazado_17632" data-name="Trazado 17632" d="M68.333,21.375a2.648,2.648,0,0,0-1.253.209c-.418,0-.626.209-1.044.209-.418.209-.626.209-.835.418V36.823a.2.2,0,0,1-.209.209H60.609a.2.2,0,0,1-.209-.209h0V18.87a7.478,7.478,0,0,1,2.3-.835c.835-.209,1.67-.418,2.3-.626a12.838,12.838,0,0,1,2.923-.209,10.164,10.164,0,0,1,2.505.209,9.705,9.705,0,0,1,1.879.626c.626.209,1.044.418,1.67.626,0,0,.209.209,0,.209l-1.253,3.758s-.209.209-.209,0c-.418-.209-.626-.418-1.044-.626A3.87,3.87,0,0,0,70,21.584a4.07,4.07,0,0,0-1.67-.209" transform="translate(50.034 -9.476)" fill="#fff" fill-rule="evenodd"/>
      <path id="Trazado_17633" data-name="Trazado 17633" d="M68.635,21.85h4.384a.2.2,0,0,1,.209.209V40.848a.2.2,0,0,1-.209.209H68.635a.2.2,0,0,1-.209-.209h0l.209-19c-.209.209-.209,0,0,0M67.8,16.423a2.923,2.923,0,1,1,5.845,0,2.953,2.953,0,0,1-5.01,2.088,3.709,3.709,0,0,1-.835-2.088" transform="translate(58.082 -13.5)" fill="#fff" fill-rule="evenodd"/>
      <path id="Trazado_17634" data-name="Trazado 17634" d="M80.442,21.275H79.189a9.043,9.043,0,0,0-1.044.209,9.042,9.042,0,0,0-1.044.209V32.757a9.041,9.041,0,0,1,1.044.209c.418,0,.626.209,1.044.209h1.253a7.5,7.5,0,0,0,2.3-.418A4.93,4.93,0,0,0,84.617,31.5l1.253-1.879a10.479,10.479,0,0,0,.418-2.505,10.479,10.479,0,0,0-.418-2.505,3.755,3.755,0,0,0-1.253-1.879,3.04,3.04,0,0,0-1.879-1.253c-.626,0-1.461-.209-2.3-.209M76.893,44.239H72.509a.2.2,0,0,1-.209-.209V18.77a15.856,15.856,0,0,1,2.3-.835c.835-.209,1.67-.418,2.714-.626a13.782,13.782,0,0,1,2.923-.209,9.683,9.683,0,0,1,4.384.835,13.031,13.031,0,0,1,3.34,2.088,7.015,7.015,0,0,1,2.088,3.34,12.207,12.207,0,0,1,.835,3.966,8.472,8.472,0,0,1-.835,3.966,11.216,11.216,0,0,1-2.088,3.34,8.172,8.172,0,0,1-3.34,2.088,9.683,9.683,0,0,1-4.384.835H78.98a9.042,9.042,0,0,1-1.044-.209,9.042,9.042,0,0,1-1.044-.209v7.1h0" transform="translate(62.977 -9.585)" fill="#fff" fill-rule="evenodd"/>
      <path id="Trazado_17635" data-name="Trazado 17635" d="M83.109,40.621c-.209,0-.209-.209,0,0L82.9,17.866V14.109a.2.2,0,0,1,.209-.209h4.384a.2.2,0,0,1,.209.209v26.3a.2.2,0,0,1-.209.209h0" transform="translate(74.505 -13.065)" fill="#fff" fill-rule="evenodd"/>
      <line id="Línea_104" data-name="Línea 104" x1="4.384" transform="translate(157.614 27.556)" fill="none"/>
      <path id="Trazado_17636" data-name="Trazado 17636" d="M100.587,25.877a5.486,5.486,0,0,0-1.461-3.131A4.122,4.122,0,0,0,96.2,21.493a3.79,3.79,0,0,0-2.923,1.253,5.486,5.486,0,0,0-1.461,3.131Zm2.714,3.966H91.61a7.944,7.944,0,0,0,1.879,2.714c.835.835,2.088,1.044,3.966,1.044a5.78,5.78,0,0,0,1.879-.209c.418-.209,1.044-.209,1.461-.626a4.564,4.564,0,0,0,1.044-.626h.209l1.67,3.131v.209a7.324,7.324,0,0,1-1.67,1.044,8.724,8.724,0,0,1-2.088.835,12.218,12.218,0,0,1-2.714.418,10.267,10.267,0,0,1-4.384-.835,11.215,11.215,0,0,1-3.34-2.088,9.091,9.091,0,0,1-2.088-3.34,13.5,13.5,0,0,1-.835-4.175,13.46,13.46,0,0,1,.626-4.175,8.172,8.172,0,0,1,2.088-3.34,8.259,8.259,0,0,1,3.131-2.088A12.191,12.191,0,0,1,96.2,16.9a7.149,7.149,0,0,1,3.758.835,10.278,10.278,0,0,1,3.131,2.088,18.029,18.029,0,0,1,2.088,3.34,12.554,12.554,0,0,1,.626,4.175v.209l-2.505,2.3Z" transform="translate(78.529 -9.802)" fill="#fff" fill-rule="evenodd"/>
      <path id="Trazado_17637" data-name="Trazado 17637" d="M115.371,35.58a9.455,9.455,0,0,1-.626,3.34,6.782,6.782,0,0,1-2.088,2.714,7.861,7.861,0,0,1-3.131,1.879,13.878,13.878,0,0,1-4.384.626,12.321,12.321,0,0,1-2.923-.418,10.176,10.176,0,0,1-2.3-.835,8.461,8.461,0,0,1-1.879-1.044l1.67-3.34s.209-.209.209,0h0l1.253.626a14.381,14.381,0,0,0,1.67.626,6.436,6.436,0,0,0,2.088.209,5.529,5.529,0,0,0,2.923-.626,3.867,3.867,0,0,0,1.67-1.461,6.53,6.53,0,0,0,1.044-2.088v-.418c-.418,0-.835.209-1.253.209a2.648,2.648,0,0,0-1.253.209H106.6a13.461,13.461,0,0,1-4.175-.626,7.077,7.077,0,0,1-2.923-1.879,7.944,7.944,0,0,1-1.879-2.714A9.455,9.455,0,0,1,97,27.229V17.209A.2.2,0,0,1,97.209,17h4.384a.2.2,0,0,1,.209.209V27.438a4.249,4.249,0,0,0,1.253,3.131,4.911,4.911,0,0,0,3.549,1.253h1.461c.418,0,.835-.209,1.253-.209s.835-.209,1.253-.209V17.626a.2.2,0,0,1,.209-.209h4.384a.2.2,0,0,1,.209.209V35.58Z" transform="translate(89.84 -9.693)" fill="#fff" fill-rule="evenodd"/>
      <path id="Trazado_17638" data-name="Trazado 17638" d="M27.1,36.723V19.188c0-.209,0-.209.209-.418.835-.209,1.67-.626,2.505-.835s1.879-.418,2.923-.626a15.8,15.8,0,0,1,3.131-.209,13.46,13.46,0,0,1,4.175.626,7.077,7.077,0,0,1,2.923,1.879,7.944,7.944,0,0,1,1.879,2.714,9.455,9.455,0,0,1,.626,3.34V36.515a.449.449,0,0,1-.418.418H41.087a.449.449,0,0,1-.418-.418V25.659a4.249,4.249,0,0,0-1.253-3.131,4.911,4.911,0,0,0-3.549-1.253,3.553,3.553,0,0,0-1.461.209c-.418,0-.835.209-1.253.209-.418.209-.626.209-1.044.418-.209,0-.209.209-.209.418v14.2a.449.449,0,0,1-.418.418H27.518a.449.449,0,0,1-.418-.418" transform="translate(13.817 -9.585)" fill="#fff" fill-rule="evenodd"/>
      <path id="Trazado_17639" data-name="Trazado 17639" d="M30.461,32.966c-.418,0-.835.209-1.253.209s-.835.209-1.253.209h-1.67c-1.461,0-2.714-.209-3.131-.835a2.088,2.088,0,0,1,0-3.34,5.634,5.634,0,0,1,3.131-.835h1.461A2.648,2.648,0,0,1,29,28.582c.418,0,.835.209,1.253.209v4.175Zm4.593-7.515a8.352,8.352,0,0,0-2.3-6.054,9.229,9.229,0,0,0-6.68-2.3,12.838,12.838,0,0,0-2.923.209c-.835.209-1.461.418-2.088.626a4.546,4.546,0,0,0-1.67,1.044v.209l1.67,3.131s.209.209.209,0l1.253-.626c.418-.209,1.044-.209,1.67-.418a6.436,6.436,0,0,1,2.088-.209,4.333,4.333,0,0,1,3.131.835,3.457,3.457,0,0,1,1.044,2.505c-.418,0-.835-.209-1.253-.209a2.648,2.648,0,0,1-1.253-.209h-1.67a23.474,23.474,0,0,0-4.175.418A8.332,8.332,0,0,0,19.4,25.868a8.174,8.174,0,0,0-1.67,2.088,5.779,5.779,0,0,0-.626,2.714,6.428,6.428,0,0,0,.626,2.714,5.3,5.3,0,0,0,1.67,2.088,11.248,11.248,0,0,0,2.714,1.461,12.243,12.243,0,0,0,4.175.418,16.874,16.874,0,0,0,3.34-.209c.835-.209,1.67-.209,2.714-.418l2.923-2.714V25.45Z" transform="translate(2.941 -9.585)" fill="#fff" fill-rule="evenodd"/>
    </g>
    <g id="Grupo_5189" data-name="Grupo 5189" transform="translate(101.546 54.586)">
      <g id="Grupo_5186" data-name="Grupo 5186" transform="translate(19.206 0)">
        <path id="Trazado_17640" data-name="Trazado 17640" d="M151.517,39.026H63.211a5.1,5.1,0,0,1-1.461-.209V33.39c0-.209.626-.209,1.461-.209h88.306a5.1,5.1,0,0,1,1.461.209v5.219c0,.209-.626.418-1.461.418" transform="translate(-61.75 -33.181)" fill="#9b9b9b" fill-rule="evenodd"/>
      </g>
      <g id="Grupo_5187" data-name="Grupo 5187" transform="translate(7.933 0)">
        <path id="Trazado_17641" data-name="Trazado 17641" d="M102.9,39.026H57.6c-.626,0-1.253-.209-1.253-.626V33.807c0-.418.626-.626,1.253-.626h45.3" transform="translate(-56.35 -33.181)" fill="#c9c9c9" fill-rule="evenodd"/>
      </g>
      <g id="Grupo_5188" data-name="Grupo 5188" transform="translate(0 0)">
        <path id="Trazado_17642" data-name="Trazado 17642" d="M84.49,39.026H54.011a5.1,5.1,0,0,1-1.461-.209V33.39c0-.209.626-.209,1.461-.209H84.49a5.1,5.1,0,0,1,1.461.209v5.219c0,.209-.626.418-1.461.418" transform="translate(-52.55 -33.181)" fill="#fff" fill-rule="evenodd"/>
      </g>
    </g>
  </g>
</svg>
