<svg xmlns="http://www.w3.org/2000/svg" width="125.814" height="53.683" viewBox="0 0 125.814 53.683">
  <g id="Grupo_332" data-name="Grupo 332" transform="translate(0)">
    <g id="Grupo_326" data-name="Grupo 326" transform="translate(42.799 0.754)">
      <g id="Grupo_324" data-name="Grupo 324" transform="translate(0 0)">
        <path id="Trazado_899" data-name="Trazado 899" d="M337.166,222.826a5.184,5.184,0,0,1-.628,2.331,7.944,7.944,0,0,1-1.915,2.363,9.789,9.789,0,0,1-3.244,1.807,13.3,13.3,0,0,1-4.407.684,10.543,10.543,0,0,1-8.135-3.154,11.945,11.945,0,0,1-2.924-8.457,14.371,14.371,0,0,1,1.339-6.351,9.834,9.834,0,0,1,3.872-4.266,12.722,12.722,0,0,1,10.06-.845,10.355,10.355,0,0,1,3.089,1.711,8.113,8.113,0,0,1,1.936,2.235,4.549,4.549,0,0,1,.669,2.213,2.375,2.375,0,0,1-.752,1.775,2.525,2.525,0,0,1-1.823.727,1.792,1.792,0,0,1-1.163-.374,5.854,5.854,0,0,1-1.04-1.208,8.729,8.729,0,0,0-2.152-2.438,4.742,4.742,0,0,0-2.852-.813,4.791,4.791,0,0,0-4.016,2.021,8.983,8.983,0,0,0-1.524,5.528,11.055,11.055,0,0,0,.391,3.026,6.973,6.973,0,0,0,1.133,2.352,4.881,4.881,0,0,0,1.792,1.475,5.275,5.275,0,0,0,2.307.5,5.05,5.05,0,0,0,2.894-.813,7.023,7.023,0,0,0,2.132-2.481,5.683,5.683,0,0,1,1.112-1.539,2.066,2.066,0,0,1,1.462-.556,2.137,2.137,0,0,1,1.709.813A2.659,2.659,0,0,1,337.166,222.826Z" transform="translate(-315.913 -197.893)" fill="#fff"/>
        <path id="Trazado_900" data-name="Trazado 900" d="M469.532,226.761a17.278,17.278,0,0,1-3.944,2.47,10.673,10.673,0,0,1-4.273.823,7.852,7.852,0,0,1-3.8-.888,6.342,6.342,0,0,1-2.523-2.406,6.419,6.419,0,0,1-.886-3.293,6.027,6.027,0,0,1,1.462-4.084,7.24,7.24,0,0,1,4.016-2.267q.535-.128,2.657-.577t3.635-.823q1.514-.374,3.285-.909a6.263,6.263,0,0,0-.9-3.389q-.793-1.08-3.285-1.08a6.629,6.629,0,0,0-3.223.62,5.333,5.333,0,0,0-1.854,1.86q-.772,1.241-1.091,1.636a1.747,1.747,0,0,1-1.37.4,2.344,2.344,0,0,1-1.637-.631,2.089,2.089,0,0,1-.69-1.614,5.056,5.056,0,0,1,1.05-2.994,7.524,7.524,0,0,1,3.274-2.395,14.263,14.263,0,0,1,5.54-.941,15.163,15.163,0,0,1,5.828.909,5.508,5.508,0,0,1,3,2.876,13.009,13.009,0,0,1,.875,5.218q0,2.053-.01,3.486t-.031,3.186a12.153,12.153,0,0,0,.525,3.432,11.188,11.188,0,0,1,.525,2.3,2.18,2.18,0,0,1-.813,1.636,2.671,2.671,0,0,1-1.843.738,2.448,2.448,0,0,1-1.709-.845A12.471,12.471,0,0,1,469.532,226.761Zm-.371-8.447a27.427,27.427,0,0,1-3.594.994q-2.358.524-3.264.77a4.391,4.391,0,0,0-1.73.962,2.509,2.509,0,0,0-.824,2,3.012,3.012,0,0,0,.968,2.256,3.5,3.5,0,0,0,2.533.93,6.394,6.394,0,0,0,3.079-.759,4.956,4.956,0,0,0,2.07-1.957,9.236,9.236,0,0,0,.762-4.362Z" transform="translate(-429.168 -197.893)" fill="#fff"/>
        <path id="Trazado_901" data-name="Trazado 901" d="M578.168,171.738v19.8q0,2.117-.134,3.453a7.474,7.474,0,0,1-.381,1.935q-1.4,3.721-5.952,3.721a8.2,8.2,0,0,1-3.872-.727,2.3,2.3,0,0,1-1.318-2.117,2.39,2.39,0,0,1,.6-1.679,2.022,2.022,0,0,1,1.565-.652,3.991,3.991,0,0,1,.4.032q.278.032.824.075t.752.043a1.479,1.479,0,0,0,1.514-.919,9.7,9.7,0,0,0,.381-3.293V171.738a3.81,3.81,0,0,1,.783-2.609,2.628,2.628,0,0,1,2.06-.877,2.565,2.565,0,0,1,2.008.866A3.838,3.838,0,0,1,578.168,171.738Zm-2.78-6.2a2.9,2.9,0,0,1-2.008-.749,2.982,2.982,0,0,1,.021-4.159,2.814,2.814,0,0,1,1.987-.8,2.883,2.883,0,0,1,1.936.727,2.641,2.641,0,0,1,.844,2.117,2.722,2.722,0,0,1-.824,2.106A2.79,2.79,0,0,1,575.388,165.536Z" transform="translate(-521.287 -159.827)" fill="#fff"/>
        <path id="Trazado_902" data-name="Trazado 902" d="M671.745,226.761a17.278,17.278,0,0,1-3.944,2.47,10.672,10.672,0,0,1-4.273.823,7.851,7.851,0,0,1-3.8-.888,6.344,6.344,0,0,1-2.523-2.406,6.422,6.422,0,0,1-.886-3.293,6.027,6.027,0,0,1,1.462-4.084,7.241,7.241,0,0,1,4.016-2.267q.535-.128,2.657-.577t3.635-.823q1.514-.374,3.285-.909a6.263,6.263,0,0,0-.9-3.389q-.793-1.08-3.285-1.08a6.63,6.63,0,0,0-3.223.62,5.333,5.333,0,0,0-1.853,1.86q-.772,1.241-1.091,1.636a1.747,1.747,0,0,1-1.369.4,2.344,2.344,0,0,1-1.637-.631,2.089,2.089,0,0,1-.69-1.614,5.057,5.057,0,0,1,1.05-2.994,7.528,7.528,0,0,1,3.275-2.395,14.263,14.263,0,0,1,5.54-.941,15.162,15.162,0,0,1,5.828.909,5.508,5.508,0,0,1,3,2.876,13.006,13.006,0,0,1,.875,5.218q0,2.053-.01,3.486t-.031,3.186a12.152,12.152,0,0,0,.525,3.432,11.188,11.188,0,0,1,.525,2.3,2.179,2.179,0,0,1-.814,1.636,2.67,2.67,0,0,1-1.843.738,2.447,2.447,0,0,1-1.709-.845A12.478,12.478,0,0,1,671.745,226.761Zm-.371-8.447a27.435,27.435,0,0,1-3.594.994q-2.358.524-3.264.77a4.391,4.391,0,0,0-1.73.962,2.509,2.509,0,0,0-.824,2,3.012,3.012,0,0,0,.968,2.256,3.5,3.5,0,0,0,2.533.93,6.394,6.394,0,0,0,3.079-.759,4.953,4.953,0,0,0,2.07-1.957,9.235,9.235,0,0,0,.762-4.362Z" transform="translate(-594.888 -197.893)" fill="#fff"/>
      </g>
      <g id="Grupo_325" data-name="Grupo 325" transform="translate(0.774 40.282)">
        <path id="Trazado_903" data-name="Trazado 903" d="M325.164,403.773a5.6,5.6,0,0,1-1.269.765,3.547,3.547,0,0,1-1.375.255,2.608,2.608,0,0,1-1.223-.275,2.012,2.012,0,0,1-.811-.745,1.934,1.934,0,0,1-.285-1.02,1.825,1.825,0,0,1,.47-1.265,2.351,2.351,0,0,1,1.292-.7q.172-.039.855-.179t1.169-.255q.487-.116,1.057-.282a1.885,1.885,0,0,0-.288-1.05,1.289,1.289,0,0,0-1.057-.335,2.2,2.2,0,0,0-1.037.192,1.684,1.684,0,0,0-.6.576,6.128,6.128,0,0,1-.351.507.576.576,0,0,1-.441.123.772.772,0,0,1-.527-.2.637.637,0,0,1-.222-.5,1.53,1.53,0,0,1,.338-.928,2.419,2.419,0,0,1,1.053-.742,4.748,4.748,0,0,1,1.782-.292,5.045,5.045,0,0,1,1.875.282,1.743,1.743,0,0,1,.964.891,3.9,3.9,0,0,1,.282,1.617q0,.636,0,1.08t-.01.987a3.636,3.636,0,0,0,.169,1.063,3.36,3.36,0,0,1,.169.712.666.666,0,0,1-.262.507.877.877,0,0,1-.593.229.8.8,0,0,1-.55-.262A3.878,3.878,0,0,1,325.164,403.773Zm-.119-2.617a9.077,9.077,0,0,1-1.156.308q-.759.162-1.05.239a1.428,1.428,0,0,0-.556.3.764.764,0,0,0-.265.62.917.917,0,0,0,.311.7,1.152,1.152,0,0,0,.815.288,2.123,2.123,0,0,0,.991-.235,1.571,1.571,0,0,0,.666-.606,2.771,2.771,0,0,0,.245-1.352Z" transform="translate(-320.202 -394.829)" fill="#fff"/>
        <path id="Trazado_904" data-name="Trazado 904" d="M368.78,402.243v1.51a1.165,1.165,0,0,1-.258.825.862.862,0,0,1-.656.275.828.828,0,0,1-.643-.278,1.186,1.186,0,0,1-.252-.822v-5.035q0-1.219.881-1.219a.735.735,0,0,1,.649.285,1.572,1.572,0,0,1,.219.841,3.161,3.161,0,0,1,.666-.841,1.375,1.375,0,0,1,.911-.285,2.332,2.332,0,0,1,1.107.285.85.85,0,0,1,.536.755.719.719,0,0,1-.228.547.709.709,0,0,1-.494.215,2.266,2.266,0,0,1-.48-.122,2.233,2.233,0,0,0-.672-.123.984.984,0,0,0-.649.209,1.339,1.339,0,0,0-.391.619,4.317,4.317,0,0,0-.192.977Q368.779,401.429,368.78,402.243Z" transform="translate(-358.531 -394.89)" fill="#fff"/>
        <path id="Trazado_905" data-name="Trazado 905" d="M401.615,401.56h-3.538a2.4,2.4,0,0,0,.249,1.086,1.663,1.663,0,0,0,1.527.948,2.163,2.163,0,0,0,.593-.076,1.93,1.93,0,0,0,.52-.239,3.975,3.975,0,0,0,.464-.348q.212-.186.55-.5a.593.593,0,0,1,.4-.119.656.656,0,0,1,.451.153.545.545,0,0,1,.172.431,1.178,1.178,0,0,1-.192.573,2.279,2.279,0,0,1-.58.629,3.314,3.314,0,0,1-.974.5,4.2,4.2,0,0,1-1.348.2,3.606,3.606,0,0,1-2.71-.994,3.7,3.7,0,0,1-.967-2.7,4.5,4.5,0,0,1,.239-1.487,3.274,3.274,0,0,1,.7-1.176,3.016,3.016,0,0,1,1.126-.752,4.042,4.042,0,0,1,1.484-.262,3.519,3.519,0,0,1,1.819.447,2.941,2.941,0,0,1,1.136,1.156,3.038,3.038,0,0,1,.378,1.444q0,.682-.391.885A2.437,2.437,0,0,1,401.615,401.56Zm-3.538-1.027h3.279a2.2,2.2,0,0,0-.5-1.388,1.5,1.5,0,0,0-1.143-.461,1.447,1.447,0,0,0-1.11.467A2.322,2.322,0,0,0,398.077,400.533Z" transform="translate(-382.509 -394.829)" fill="#fff"/>
        <path id="Trazado_906" data-name="Trazado 906" d="M445.9,406.331V403.78a4.065,4.065,0,0,1-1.09.8,2.842,2.842,0,0,1-1.256.275,2.782,2.782,0,0,1-1.534-.444,2.99,2.99,0,0,1-1.086-1.275,5.088,5.088,0,0,1,0-3.935,2.9,2.9,0,0,1,1.1-1.256,2.949,2.949,0,0,1,1.567-.431,2.774,2.774,0,0,1,1.305.3,2.686,2.686,0,0,1,.987.917v-.219a1.075,1.075,0,0,1,.239-.755.868.868,0,0,1,1.232,0,1.074,1.074,0,0,1,.239.759v7.817q0,1.206-.854,1.206a.7.7,0,0,1-.692-.325A1.991,1.991,0,0,1,445.9,406.331Zm-3.544-5.167a3.065,3.065,0,0,0,.235,1.255,1.774,1.774,0,0,0,.62.782,1.469,1.469,0,0,0,.828.255,1.631,1.631,0,0,0,.888-.255,1.783,1.783,0,0,0,.649-.779,3.039,3.039,0,0,0,.245-1.292,3.158,3.158,0,0,0-.142-.98,2.119,2.119,0,0,0-.388-.725,1.6,1.6,0,0,0-.563-.431,1.635,1.635,0,0,0-.676-.142,1.493,1.493,0,0,0-1.212.6A2.671,2.671,0,0,0,442.353,401.164Z" transform="translate(-418.821 -394.89)" fill="#fff"/>
        <path id="Trazado_907" data-name="Trazado 907" d="M494.224,403.834V403.6a4.036,4.036,0,0,1-.683.689,2.514,2.514,0,0,1-.782.414,3.176,3.176,0,0,1-.967.136,2.5,2.5,0,0,1-1.176-.272,1.983,1.983,0,0,1-.8-.749,3.31,3.31,0,0,1-.338-1.656V398.58a1.171,1.171,0,0,1,.245-.812.837.837,0,0,1,.649-.268.862.862,0,0,1,.663.272,1.153,1.153,0,0,1,.252.808v2.9a4.455,4.455,0,0,0,.106,1.057,1.27,1.27,0,0,0,.381.669,1.089,1.089,0,0,0,.745.242,1.517,1.517,0,0,0,.861-.272,1.587,1.587,0,0,0,.589-.709,5.69,5.69,0,0,0,.153-1.683v-2.2a1.15,1.15,0,0,1,.252-.808.852.852,0,0,1,.656-.272.837.837,0,0,1,.649.268,1.17,1.17,0,0,1,.245.812v5.24a1.118,1.118,0,0,1-.235.775.837.837,0,0,1-1.219-.01A1.083,1.083,0,0,1,494.224,403.834Z" transform="translate(-458.926 -394.89)" fill="#fff"/>
        <path id="Trazado_908" data-name="Trazado 908" d="M536.091,384.8a.955.955,0,0,1-.646-.232.9.9,0,0,1,.007-1.289.924.924,0,0,1,.639-.249.948.948,0,0,1,.622.225.8.8,0,0,1,.272.656.827.827,0,0,1-.265.653A.916.916,0,0,1,536.091,384.8Zm.894,1.868V391.9a1.167,1.167,0,0,1-.258.821.856.856,0,0,1-.656.278.817.817,0,0,1-.646-.285,1.2,1.2,0,0,1-.248-.815v-5.174a1.162,1.162,0,0,1,.248-.808.835.835,0,0,1,.646-.272.866.866,0,0,1,.656.272A1.052,1.052,0,0,1,536.986,386.672Z" transform="translate(-496.381 -383.035)" fill="#fff"/>
        <path id="Trazado_909" data-name="Trazado 909" d="M557.04,398.514v.219a3.571,3.571,0,0,1,1.06-.924,2.593,2.593,0,0,1,1.245-.295,2.884,2.884,0,0,1,1.537.431,2.968,2.968,0,0,1,1.11,1.259,4.4,4.4,0,0,1,.407,1.961,4.79,4.79,0,0,1-.235,1.534,3.44,3.44,0,0,1-.646,1.172,2.811,2.811,0,0,1-.971.729,2.867,2.867,0,0,1-1.2.255,2.52,2.52,0,0,1-1.3-.311,3.713,3.713,0,0,1-1-.914v2.716q0,1.192-.868,1.192a.7.7,0,0,1-.676-.308,1.938,1.938,0,0,1-.166-.9v-7.8a1.138,1.138,0,0,1,.225-.772.78.78,0,0,1,.616-.255.815.815,0,0,1,.626.262A1.07,1.07,0,0,1,557.04,398.514Zm3.544,2.63a3.128,3.128,0,0,0-.219-1.229,1.8,1.8,0,0,0-.606-.788,1.449,1.449,0,0,0-.858-.275,1.609,1.609,0,0,0-1.262.59,2.573,2.573,0,0,0-.514,1.736,2.515,2.515,0,0,0,.51,1.679,1.6,1.6,0,0,0,1.265.6,1.454,1.454,0,0,0,.835-.262,1.8,1.8,0,0,0,.616-.785A3.111,3.111,0,0,0,560.585,401.144Z" transform="translate(-512.898 -394.89)" fill="#fff"/>
        <path id="Trazado_910" data-name="Trazado 910" d="M605.337,403.773a5.6,5.6,0,0,1-1.268.765,3.548,3.548,0,0,1-1.375.255,2.607,2.607,0,0,1-1.222-.275,2.013,2.013,0,0,1-.812-.745,1.934,1.934,0,0,1-.285-1.02,1.826,1.826,0,0,1,.47-1.265,2.352,2.352,0,0,1,1.292-.7q.172-.039.855-.179t1.169-.255q.487-.116,1.057-.282a1.886,1.886,0,0,0-.288-1.05,1.288,1.288,0,0,0-1.056-.335,2.2,2.2,0,0,0-1.037.192,1.686,1.686,0,0,0-.6.576,6.14,6.14,0,0,1-.351.507.577.577,0,0,1-.441.123.771.771,0,0,1-.526-.2.637.637,0,0,1-.222-.5,1.531,1.531,0,0,1,.338-.928,2.417,2.417,0,0,1,1.053-.742,4.746,4.746,0,0,1,1.782-.292,5.043,5.043,0,0,1,1.875.282,1.744,1.744,0,0,1,.964.891,3.9,3.9,0,0,1,.282,1.617q0,.636,0,1.08t-.01.987a3.636,3.636,0,0,0,.169,1.063,3.362,3.362,0,0,1,.169.712.666.666,0,0,1-.262.507.876.876,0,0,1-.593.229.8.8,0,0,1-.55-.262A3.888,3.888,0,0,1,605.337,403.773Zm-.119-2.617a9.1,9.1,0,0,1-1.156.308q-.759.162-1.05.239a1.43,1.43,0,0,0-.557.3.764.764,0,0,0-.265.62.917.917,0,0,0,.311.7,1.153,1.153,0,0,0,.815.288,2.122,2.122,0,0,0,.99-.235,1.57,1.57,0,0,0,.666-.606,2.772,2.772,0,0,0,.245-1.352Z" transform="translate(-549.813 -394.829)" fill="#fff"/>
      </g>
    </g>
    <g id="Grupo_331" data-name="Grupo 331" transform="translate(0 0)">
      <g id="Grupo_327" data-name="Grupo 327" transform="translate(0 0)">
        <path id="Trazado_911" data-name="Trazado 911" d="M205.444,156.173s7.29-1.622,9.749.839,1.294,7.393.777,9.154a11.49,11.49,0,0,0-7.353-3.034C208.425,163.132,206.091,156.76,205.444,156.173Z" transform="translate(-182.581 -155.648)" fill="#fff"/>
        <path id="Trazado_912" data-name="Trazado 912" d="M86.84,163.132a11.49,11.49,0,0,0-7.353,3.034c-.518-1.762-1.682-6.694.777-9.154s9.749-.839,9.749-.839C89.365,156.76,87.031,163.132,86.84,163.132Z" transform="translate(-78.754 -155.648)" fill="#fff"/>
        <path id="Trazado_913" data-name="Trazado 913" d="M173.534,161.223s2.8-2.9,5.608-2.71a7.851,7.851,0,0,1,3.106,7.139,21.987,21.987,0,0,0-6.075,2.854S172.5,163.653,173.534,161.223Z" transform="translate(-156.279 -157.988)" fill="#fff"/>
        <path id="Trazado_914" data-name="Trazado 914" d="M132.065,161.223s-2.8-2.9-5.608-2.71a7.4,7.4,0,0,0-3.194,6.959,25.2,25.2,0,0,1,6.163,3.034S133.1,163.653,132.065,161.223Z" transform="translate(-115.177 -157.988)" fill="#fff"/>
        <path id="Trazado_915" data-name="Trazado 915" d="M159.762,178.326a3.834,3.834,0,0,1-7.665,0c0-2.068,2.19-4.755,3.832-4.755C157.42,173.571,159.762,176.258,159.762,178.326Z" transform="translate(-138.861 -170.337)" fill="#fff"/>
      </g>
      <g id="Grupo_328" data-name="Grupo 328" transform="translate(0 22.019)">
        <path id="Trazado_916" data-name="Trazado 916" d="M208.616,287.429a11.49,11.49,0,0,0,7.353-3.034c.518,1.762,1.682,6.694-.777,9.155s-9.749.839-9.749.839C206.091,293.8,208.425,287.429,208.616,287.429Z" transform="translate(-182.581 -283.18)" fill="#fff"/>
        <path id="Trazado_917" data-name="Trazado 917" d="M90.012,294.388s-7.29,1.622-9.749-.839-1.294-7.393-.777-9.155a11.49,11.49,0,0,0,7.353,3.034C87.031,287.429,89.365,293.8,90.012,294.388Z" transform="translate(-78.754 -283.18)" fill="#fff"/>
        <path id="Trazado_918" data-name="Trazado 918" d="M173.534,291.678s2.8,2.9,5.608,2.71a7.851,7.851,0,0,0,3.106-7.139,21.989,21.989,0,0,1-6.075-2.854S172.5,289.248,173.534,291.678Z" transform="translate(-156.279 -283.18)" fill="#fff"/>
        <path id="Trazado_919" data-name="Trazado 919" d="M132.329,291.678s-2.8,2.9-5.608,2.71a7.249,7.249,0,0,1-3.135-6.889,26.729,26.729,0,0,0,6.1-3.1S133.364,289.248,132.329,291.678Z" transform="translate(-115.441 -283.18)" fill="#fff"/>
        <path id="Trazado_920" data-name="Trazado 920" d="M159.762,281.406a3.834,3.834,0,0,0-7.665,0c0,2.068,2.19,4.755,3.832,4.755C157.42,286.16,159.762,283.474,159.762,281.406Z" transform="translate(-138.861 -277.662)" fill="#fff"/>
      </g>
      <g id="Grupo_329" data-name="Grupo 329" transform="translate(0.724 7.416)">
        <path id="Trazado_921" data-name="Trazado 921" d="M85.629,249.778s-3.05,3.293-2.856,6.1a8.551,8.551,0,0,0,7.412,3.1s.966-4.268,2.727-6.562C92.913,252.417,88.06,248.743,85.629,249.778Z" transform="translate(-82.764 -240.056)" fill="#fff"/>
        <path id="Trazado_922" data-name="Trazado 922" d="M85.629,206.1s-3.05-3.449-2.856-6.253a8.427,8.427,0,0,1,7.353-3.034s1.025,4.354,2.786,6.648C92.913,203.457,88.06,207.131,85.629,206.1Z" transform="translate(-82.764 -196.741)" fill="#fff"/>
        <path id="Trazado_923" data-name="Trazado 923" d="M103.4,236.005a3.834,3.834,0,0,0,0-7.665c-2.068,0-4.755,2.19-4.755,3.833C98.641,233.663,101.328,236.005,103.4,236.005Z" transform="translate(-95.776 -222.637)" fill="#fff"/>
      </g>
      <g id="Grupo_330" data-name="Grupo 330" transform="translate(22.02 7.416)">
        <path id="Trazado_924" data-name="Trazado 924" d="M214.787,249.778s3.05,3.293,2.856,6.1a8.551,8.551,0,0,1-7.412,3.1s-.966-4.268-2.727-6.562C207.5,252.417,212.357,248.743,214.787,249.778Z" transform="translate(-206.289 -240.056)" fill="#fff"/>
        <path id="Trazado_925" data-name="Trazado 925" d="M214.787,206.1s3.05-3.449,2.856-6.253a8.426,8.426,0,0,0-7.353-3.034s-1.025,4.354-2.786,6.648C207.5,203.457,212.357,207.131,214.787,206.1Z" transform="translate(-206.289 -196.741)" fill="#fff"/>
        <path id="Trazado_926" data-name="Trazado 926" d="M204.514,236.005a3.834,3.834,0,0,1,0-7.665c2.068,0,4.754,2.19,4.754,3.833C209.268,233.663,206.582,236.005,204.514,236.005Z" transform="translate(-200.77 -222.637)" fill="#fff"/>
      </g>
    </g>
  </g>
</svg>
