<svg xmlns="http://www.w3.org/2000/svg" width="334" height="334" viewBox="0 0 334 334">
  <g id="Grupo_5264" data-name="Grupo 5264" transform="translate(6705 -3643)">
    <g id="Grupo_5261" data-name="Grupo 5261">
      <path id="Trazado_17696" data-name="Trazado 17696" d="M443.456,245.35H312.351s-10.01,17.5-23.736,19.081C239.927,431.989,377.827,473.376,377.9,473.4h.01c.086-.024,137.988-41.412,89.3-208.969C453.448,262.841,443.456,245.35,443.456,245.35Z" transform="translate(-6916.292 3462.226)" fill="#fff"/>
      <g id="Elipse_103" data-name="Elipse 103" transform="translate(-6705 3643)" fill="none" stroke="#272c3c" stroke-width="2" stroke-dasharray="8">
        <circle cx="167" cy="167" r="167" stroke="none"/>
        <circle cx="167" cy="167" r="166" fill="none"/>
      </g>
      <path id="Trazado_17693" data-name="Trazado 17693" d="M436.46,245.35H310.905s-9.587,16.759-22.731,18.274c-46.627,160.463,85.435,200.1,85.508,200.121h.009c.083-.023,132.146-39.658,85.519-200.121C446.028,262.1,436.46,245.35,436.46,245.35Z" transform="translate(-6912.07 3467.054)" fill="#9768ff"/>
      <path id="Trazado_17694" data-name="Trazado 17694" d="M437.391,258.4H318.928s-9.046,15.8-21.449,17.227C253.486,426.9,378.091,464.266,378.159,464.289h.009c.078-.023,124.683-37.387,80.69-188.659C446.419,274.195,437.391,258.4,437.391,258.4Z" transform="translate(-6916.951 3459.831)" fill="#272c3c"/>
      <path id="Trazado_17695" data-name="Trazado 17695" d="M422.208,338.264h-4.522c0-20.091-12.047-31.662-28.647-31.662s-28.645,11.571-28.645,31.662h-4.524c-6.661,0-8.871,2.478-8.871,9.14v42.215c0,6.661,2.209,12.936,8.871,12.936h66.337c6.661,0,10.782-6.275,10.782-12.936V347.4C432.99,340.742,428.869,338.264,422.208,338.264ZM396.577,389.7H381.5l2.9-21.065a10.352,10.352,0,0,1-4.968-8.864,9.877,9.877,0,0,1,9.706-9.9,9.622,9.622,0,0,1,9.7,9.608c0,3.71-2.083,7.674-5.145,9.308ZM369.44,338.264c0-18.484,9.843-22.616,19.6-22.616s19.6,4.132,19.6,22.616Z" transform="translate(-6928.021 3451.533)" fill="#fff"/>
    </g>
  </g>
</svg>
