<svg xmlns="http://www.w3.org/2000/svg" width="70.57" height="80.703" viewBox="0 0 70.57 80.703">
  <g id="Grupo_5263" data-name="Grupo 5263" transform="translate(6638.087 -3707.576)">
    <g id="Grupo_5261" data-name="Grupo 5261" transform="translate(-6638.087 3707.576)">
      <path id="Trazado_17696" data-name="Trazado 17696" d="M336.685,245.35h-46.4s-3.543,6.193-8.4,6.753c-17.23,59.3,31.571,73.942,31.6,73.951h0c.03-.009,48.832-14.655,31.6-73.951C340.221,251.54,336.685,245.35,336.685,245.35Z" transform="translate(-278.205 -245.35)" fill="#fff"/>
      <path id="Trazado_17693" data-name="Trazado 17693" d="M334.209,245.35H289.777s-3.393,5.931-8.044,6.467c-16.5,56.785,30.234,70.811,30.26,70.82h0c.029-.008,46.764-14.034,30.264-70.82C337.595,251.278,334.209,245.35,334.209,245.35Z" transform="translate(-276.711 -243.642)" fill="#9768ff"/>
      <path id="Trazado_17694" data-name="Trazado 17694" d="M340.914,258.4H298.992s-3.2,5.591-7.59,6.1c-15.568,53.533,28.527,66.755,28.552,66.763h0c.027-.008,44.123-13.231,28.555-66.763C344.109,263.992,340.914,258.4,340.914,258.4Z" transform="translate(-284.814 -254.631)" fill="#272c3c"/>
      <path id="Trazado_17695" data-name="Trazado 17695" d="M373.615,317.807h-1.6c0-7.11-4.263-11.2-10.138-11.2s-10.137,4.095-10.137,11.2h-1.6c-2.357,0-3.139.877-3.139,3.234V335.98c0,2.357.782,4.578,3.139,4.578h23.476c2.357,0,3.815-2.221,3.815-4.578V321.041C377.43,318.684,375.972,317.807,373.615,317.807Zm-9.07,18.2H359.21l1.025-7.455a3.663,3.663,0,0,1-1.758-3.137,3.5,3.5,0,0,1,3.435-3.505,3.405,3.405,0,0,1,3.434,3.4,3.864,3.864,0,0,1-1.821,3.294Zm-9.6-18.2c0-6.541,3.483-8,6.936-8s6.936,1.462,6.936,8Z" transform="translate(-326.805 -288.71)" fill="#fff"/>
    </g>
  </g>
</svg>
