<svg xmlns="http://www.w3.org/2000/svg" width="70.898" height="13.482" viewBox="0 0 70.898 13.482">
  <g id="color_copy_3" data-name="color copy 3" transform="translate(0 -0.718)">
    <path id="Path" d="M2.177,13.48H0V0H2.177Z" transform="translate(15.197 0.719)" fill="#9768ff"/>
    <path id="Shape" d="M2.161,13.481H0V0H5.042A5.6,5.6,0,0,1,6.918.323,4.1,4.1,0,0,1,8.38,1.2a3.75,3.75,0,0,1,.9,1.308,4.108,4.108,0,0,1,.3,1.61,3.847,3.847,0,0,1-.8,2.432A4.189,4.189,0,0,1,6.643,8l3.178,5.482H7.507l-3-5.161H2.161V13.48Zm0-11.559V6.4H4.88c.055,0,.111.005.166.005a2.649,2.649,0,0,0,1.7-.623A2.141,2.141,0,0,0,7.42,4.119,2.125,2.125,0,0,0,6.8,2.52a2.588,2.588,0,0,0-1.661-.6c-.063,0-.126,0-.189.007Z" transform="translate(23.152 0.718)" fill="#fff"/>
    <path id="Shape-2" data-name="Shape" d="M5.358,13.482H0V0H5.352a6.281,6.281,0,0,1,1.8.262A3.707,3.707,0,0,1,8.5,1.023,3,3,0,0,1,9.3,2.172a3.784,3.784,0,0,1,.271,1.447,2.805,2.805,0,0,1-.649,1.808,3.179,3.179,0,0,1-.639.593,3.213,3.213,0,0,1-.67.357,4.081,4.081,0,0,1,.94.373,2.921,2.921,0,0,1,.787.639,3,3,0,0,1,.563.94,3.471,3.471,0,0,1,.209,1.231,4.109,4.109,0,0,1-.26,1.558,3.283,3.283,0,0,1-.9,1.247,4.194,4.194,0,0,1-1.533.823A7.467,7.467,0,0,1,5.358,13.482ZM2.12,7.461v4.2H5.177c.064,0,.129.006.194.006a3.384,3.384,0,0,0,1.9-.578A1.877,1.877,0,0,0,8.017,9.5a1.682,1.682,0,0,0-.782-1.558,3.958,3.958,0,0,0-1.9-.485c-.067,0-.136,0-.2.005Zm.02-5.621V5.622H5.3a2.568,2.568,0,0,0,1.533-.511A1.7,1.7,0,0,0,7.5,3.66,1.609,1.609,0,0,0,6.888,2.31a2.64,2.64,0,0,0-1.511-.473l-.119,0Z" transform="translate(37.664 0.718)" fill="#fff"/>
    <path id="Path-2" data-name="Path" d="M2.156,13.48H0V0H2.156Z" transform="translate(52.861 0.719)" fill="#9768ff"/>
    <path id="Shape-3" data-name="Shape" d="M4.057,13.48H0V0H4.057A6.89,6.89,0,0,1,9.106,1.7a6.769,6.769,0,0,1,1.711,5,6.9,6.9,0,0,1-1.711,5.058A6.879,6.879,0,0,1,4.057,13.48ZM2.156,1.922v9.637h2a6.182,6.182,0,0,0,1.849-.282,3.692,3.692,0,0,0,1.436-.858,3.749,3.749,0,0,0,.9-1.5A6.881,6.881,0,0,0,8.656,6.7a6.766,6.766,0,0,0-.311-2.193,3.759,3.759,0,0,0-.9-1.487,3.49,3.49,0,0,0-1.436-.843,6.869,6.869,0,0,0-1.858-.256H2.156Z" transform="translate(60.081 0.719)" fill="#fff"/>
    <path id="Path-3" data-name="Path" d="M0,0H10.138V1.9H2.121V5.779H9.376V7.7H2.121V13.48H0Z" transform="translate(0 0.719)" fill="#fff"/>
  </g>
</svg>
