<svg id="color_copy" data-name="color copy" xmlns="http://www.w3.org/2000/svg" width="144.74" height="37.596" viewBox="0 0 144.74 37.596">
  <path id="Path" d="M4.444,27.23H0V0H4.444Z" transform="translate(31.024 0.001)" fill="#fff"/>
  <path id="Shape" d="M4.413,27.232H0V0H10.108l.19,0a11.539,11.539,0,0,1,3.827.651,8.386,8.386,0,0,1,2.983,1.776A7.579,7.579,0,0,1,18.944,5.07a8.229,8.229,0,0,1,.616,3.252,7.726,7.726,0,0,1-1.638,4.913,8.569,8.569,0,0,1-4.36,2.921L20.048,27.23l-4.724,0L9.2,16.806H4.413V27.231Zm0-23.35v9.042H9.962c.112.007.226.011.339.011a5.43,5.43,0,0,0,3.479-1.26,4.3,4.3,0,0,0,1.367-3.354A4.267,4.267,0,0,0,13.884,5.09a5.322,5.322,0,0,0-3.392-1.222c-.128,0-.257,0-.384.014Z" transform="translate(47.266 0)" fill="#fff"/>
  <path id="Shape-2" data-name="Shape" d="M10.932,27.234l-.291,0H0V0H10.931a12.947,12.947,0,0,1,3.662.528,7.583,7.583,0,0,1,2.754,1.537A6.08,6.08,0,0,1,19,4.388a7.575,7.575,0,0,1,.553,2.921,5.627,5.627,0,0,1-1.325,3.654,6.412,6.412,0,0,1-1.3,1.2,6.536,6.536,0,0,1-1.366.723,8.33,8.33,0,0,1,1.919.753,6.137,6.137,0,0,1,2.754,3.19,6.943,6.943,0,0,1,.428,2.488,8.224,8.224,0,0,1-.532,3.148,6.638,6.638,0,0,1-1.836,2.519,8.575,8.575,0,0,1-3.13,1.661A15.369,15.369,0,0,1,10.932,27.234Zm-6.6-12.162v8.484h6.238c.131.007.265.011.4.011A6.969,6.969,0,0,0,14.834,22.4a3.782,3.782,0,0,0,1.534-3.21,3.386,3.386,0,0,0-1.6-3.148,8.139,8.139,0,0,0-3.87-.981c-.138,0-.278,0-.417.011ZM4.371,3.718v7.638h6.453a5.286,5.286,0,0,0,3.133-1.033A3.408,3.408,0,0,0,15.3,7.393a3.229,3.229,0,0,0-1.242-2.725,5.422,5.422,0,0,0-3.083-.955c-.081,0-.164,0-.245.005Z" transform="translate(76.892 0)" fill="#fff"/>
  <path id="Path-2" data-name="Path" d="M4.4,27.23H0V0H4.4Z" transform="translate(107.915 0.001)" fill="#fff"/>
  <path id="Shape-3" data-name="Shape" d="M8.283,27.229H0V0H8.283a19.027,19.027,0,0,1,5.988.859A11.04,11.04,0,0,1,18.59,3.437c2.319,2.275,3.495,5.672,3.495,10.1,0,4.479-1.176,7.917-3.495,10.219a11.1,11.1,0,0,1-4.324,2.6A18.879,18.879,0,0,1,8.283,27.229ZM4.4,3.881V23.349H8.283l.221,0a12.707,12.707,0,0,0,3.765-.57A7.546,7.546,0,0,0,15.2,21.046a7.543,7.543,0,0,0,1.836-3.034,13.772,13.772,0,0,0,.636-4.48A13.5,13.5,0,0,0,17.035,9.1a7.586,7.586,0,0,0-1.836-3,7.114,7.114,0,0,0-2.931-1.7,14.158,14.158,0,0,0-3.8-.518H4.4Z" transform="translate(122.655 0.001)" fill="#fff"/>
  <path id="Path-3" data-name="Path" d="M0,0H20.7V3.84H4.329v7.835H19.142v3.881H4.329V27.23H0Z" transform="translate(0 0.001)" fill="#fff"/>
  <g id="Grupo_5148" data-name="Grupo 5148" transform="translate(-262.937 -289.024)">
    <path id="Trazado_17601" data-name="Trazado 17601" d="M344.146,325.845a2.926,2.926,0,0,0,1.482.418c.846,0,1.34-.447,1.34-1.093,0-.6-.342-.94-1.207-1.273-1.045-.371-1.691-.912-1.691-1.814a1.844,1.844,0,0,1,2.071-1.739,2.909,2.909,0,0,1,1.415.314l-.228.675a2.547,2.547,0,0,0-1.216-.3c-.874,0-1.207.522-1.207.959,0,.6.39.893,1.273,1.235,1.083.418,1.634.94,1.634,1.881,0,.988-.731,1.843-2.242,1.843a3.311,3.311,0,0,1-1.634-.408Z" transform="translate(0 -0.336)" fill="#fff"/>
    <path id="Trazado_17602" data-name="Trazado 17602" d="M359.761,328.3c0,.475.01.893.038,1.253h-.741l-.048-.75h-.019a1.731,1.731,0,0,1-1.52.855c-.722,0-1.586-.4-1.586-2.014v-2.688h.835V327.5c0,.874.266,1.463,1.026,1.463a1.177,1.177,0,0,0,1.178-1.188v-2.821h.836Z" transform="translate(-7.001 -3.037)" fill="#fff"/>
    <path id="Trazado_17603" data-name="Trazado 17603" d="M368.5,326.516c.019-.313.039-.779.039-1.187v-5.557h.826v2.888h.019a1.712,1.712,0,0,1,1.567-.846,2.063,2.063,0,0,1,1.938,2.346,2.185,2.185,0,0,1-2.061,2.461,1.637,1.637,0,0,1-1.538-.865h-.029l-.038.76Zm.865-1.843a1.555,1.555,0,0,0,.038.3,1.289,1.289,0,0,0,1.253.978c.874,0,1.4-.713,1.4-1.767,0-.921-.475-1.71-1.368-1.71a1.333,1.333,0,0,0-1.273,1.026,1.675,1.675,0,0,0-.047.342Z" transform="translate(-14.39)" fill="#fff"/>
    <path id="Trazado_17604" data-name="Trazado 17604" d="M383.674,329.406l-.067-.579h-.029a1.712,1.712,0,0,1-1.406.684,1.31,1.31,0,0,1-1.405-1.321c0-1.111.988-1.719,2.764-1.71v-.095a.948.948,0,0,0-1.045-1.064,2.29,2.29,0,0,0-1.2.342l-.19-.551a2.852,2.852,0,0,1,1.51-.408c1.406,0,1.748.959,1.748,1.88V328.3a6.494,6.494,0,0,0,.076,1.1Zm-.124-2.346c-.912-.019-1.947.142-1.947,1.035a.74.74,0,0,0,.788.8,1.143,1.143,0,0,0,1.111-.769.872.872,0,0,0,.047-.266Z" transform="translate(-21.579 -2.89)" fill="#fff"/>
    <path id="Trazado_17605" data-name="Trazado 17605" d="M392.121,328.551a2.189,2.189,0,0,0,1.1.333c.608,0,.893-.3.893-.684,0-.4-.238-.617-.855-.845-.827-.294-1.216-.75-1.216-1.3a1.418,1.418,0,0,1,1.586-1.349,2.292,2.292,0,0,1,1.13.285l-.209.608a1.791,1.791,0,0,0-.94-.266c-.494,0-.769.285-.769.627,0,.38.275.551.873.779.8.3,1.207.7,1.207,1.387,0,.807-.627,1.377-1.719,1.377a2.623,2.623,0,0,1-1.292-.313Z" transform="translate(-28.109 -2.89)" fill="#fff"/>
    <path id="Trazado_17606" data-name="Trazado 17606" d="M402.041,321.768v1.32h1.2v.636h-1.2V326.2c0,.57.162.893.627.893a1.853,1.853,0,0,0,.484-.057l.038.627a2.04,2.04,0,0,1-.741.114,1.158,1.158,0,0,1-.9-.352,1.7,1.7,0,0,1-.323-1.2v-2.508h-.712v-.636h.712v-1.1Z" transform="translate(-33.148 -1.169)" fill="#fff"/>
    <path id="Trazado_17607" data-name="Trazado 17607" d="M411.4,329.406l-.067-.579H411.3a1.712,1.712,0,0,1-1.406.684,1.31,1.31,0,0,1-1.405-1.321c0-1.111.988-1.719,2.764-1.71v-.095a.948.948,0,0,0-1.045-1.064,2.289,2.289,0,0,0-1.2.342l-.19-.551a2.852,2.852,0,0,1,1.51-.408c1.406,0,1.748.959,1.748,1.88V328.3a6.5,6.5,0,0,0,.076,1.1Zm-.124-2.346c-.912-.019-1.947.142-1.947,1.035a.74.74,0,0,0,.788.8,1.144,1.144,0,0,0,1.111-.769.872.872,0,0,0,.047-.266Z" transform="translate(-37.824 -2.89)" fill="#fff"/>
    <path id="Trazado_17608" data-name="Trazado 17608" d="M425.348,320.616a11.867,11.867,0,0,1,1.757-.133,3.666,3.666,0,0,1,2.593.8,2.949,2.949,0,0,1,.9,2.3,3.386,3.386,0,0,1-.921,2.489,3.943,3.943,0,0,1-2.83.921,13.312,13.312,0,0,1-1.5-.076Zm.827,5.661a5.209,5.209,0,0,0,.836.047,2.46,2.46,0,0,0,2.726-2.716,2.283,2.283,0,0,0-2.593-2.47,4.715,4.715,0,0,0-.969.085Z" transform="translate(-47.699 -0.417)" fill="#fff"/>
    <path id="Trazado_17609" data-name="Trazado 17609" d="M444.334,324.408a2.247,2.247,0,0,1-2.289,2.441,2.186,2.186,0,0,1-2.2-2.365,2.245,2.245,0,0,1,2.28-2.441A2.177,2.177,0,0,1,444.334,324.408Zm-3.647.047c0,1.007.579,1.767,1.4,1.767.8,0,1.4-.751,1.4-1.786,0-.779-.389-1.767-1.377-1.767S440.687,323.582,440.687,324.455Zm2.65-4.293-1.159,1.358h-.6l.836-1.358Z" transform="translate(-56.191 -0.228)" fill="#fff"/>
    <path id="Trazado_17610" data-name="Trazado 17610" d="M453.234,319.772h.836v6.744h-.836Z" transform="translate(-64.038)" fill="#fff"/>
    <path id="Trazado_17611" data-name="Trazado 17611" d="M460.68,329.406l-.066-.579h-.029a1.713,1.713,0,0,1-1.406.684,1.31,1.31,0,0,1-1.405-1.321c0-1.111.988-1.719,2.764-1.71v-.095a.948.948,0,0,0-1.045-1.064,2.292,2.292,0,0,0-1.2.342l-.19-.551a2.854,2.854,0,0,1,1.51-.408c1.406,0,1.748.959,1.748,1.88V328.3a6.494,6.494,0,0,0,.076,1.1Zm-.123-2.346c-.912-.019-1.947.142-1.947,1.035a.74.74,0,0,0,.788.8,1.143,1.143,0,0,0,1.111-.769.872.872,0,0,0,.048-.266Z" transform="translate(-66.698 -2.89)" fill="#fff"/>
    <path id="Trazado_17612" data-name="Trazado 17612" d="M469.646,326.243c0-.542-.01-1.007-.039-1.434h.732l.029.9h.038a1.379,1.379,0,0,1,1.273-1.007.9.9,0,0,1,.237.029v.788a1.232,1.232,0,0,0-.285-.029,1.173,1.173,0,0,0-1.121,1.073,2.344,2.344,0,0,0-.038.389v2.451h-.826Z" transform="translate(-73.631 -2.89)" fill="#fff"/>
    <path id="Trazado_17613" data-name="Trazado 17613" d="M476.964,327.259a1.473,1.473,0,0,0,1.577,1.6,3.026,3.026,0,0,0,1.273-.237l.142.6a3.719,3.719,0,0,1-1.529.285,2.135,2.135,0,0,1-2.261-2.318,2.232,2.232,0,0,1,2.157-2.479,1.948,1.948,0,0,1,1.9,2.166,3.138,3.138,0,0,1-.029.389Zm2.451-.6a1.19,1.19,0,0,0-1.159-1.358,1.385,1.385,0,0,0-1.282,1.358Z" transform="translate(-77.474 -2.89)" fill="#fff"/>
    <path id="Trazado_17614" data-name="Trazado 17614" d="M487.887,328.551a2.189,2.189,0,0,0,1.1.333c.608,0,.893-.3.893-.684,0-.4-.238-.617-.855-.845-.827-.294-1.216-.75-1.216-1.3A1.418,1.418,0,0,1,489.4,324.7a2.292,2.292,0,0,1,1.13.285l-.209.608a1.789,1.789,0,0,0-.94-.266c-.494,0-.769.285-.769.627,0,.38.275.551.873.779.8.3,1.207.7,1.207,1.387,0,.807-.627,1.377-1.719,1.377a2.622,2.622,0,0,1-1.292-.313Z" transform="translate(-84.219 -2.89)" fill="#fff"/>
  </g>
</svg>
