<svg xmlns="http://www.w3.org/2000/svg" width="149.73" height="43.436" viewBox="0 0 149.73 43.436">
  <g id="color_copy" data-name="color copy" transform="translate(0 -1.078)">
    <path id="Path" d="M4.6,28.468H0V0H4.6Z" transform="translate(32.094 1.079)" fill="#9768ff"/>
    <path id="Shape" d="M4.565,28.47H0V0H10.457l.2,0a11.818,11.818,0,0,1,3.959.681A8.645,8.645,0,0,1,17.7,2.537,7.82,7.82,0,0,1,19.6,5.3a8.678,8.678,0,0,1,.636,3.4,8.127,8.127,0,0,1-1.694,5.136,8.86,8.86,0,0,1-4.511,3.055l6.711,11.577H15.853L9.518,17.57H4.565v10.9Zm0-24.411v9.454h5.741c.116.007.233.011.349.011a5.587,5.587,0,0,0,3.6-1.317A4.514,4.514,0,0,0,15.669,8.7a4.487,4.487,0,0,0-1.306-3.378,5.469,5.469,0,0,0-3.509-1.277c-.132,0-.266,0-.4.014Z" transform="translate(48.896 1.078)" fill="#272c3c"/>
    <path id="Shape-2" data-name="Shape" d="M11.312,28.472l-.305,0H0V0H11.1l.2,0A13.285,13.285,0,0,1,15.1.552,7.827,7.827,0,0,1,17.946,2.16a6.35,6.35,0,0,1,1.705,2.428,8,8,0,0,1,.572,3.054,5.92,5.92,0,0,1-1.371,3.821A6.669,6.669,0,0,1,17.5,12.713a6.74,6.74,0,0,1-1.413.756,8.538,8.538,0,0,1,1.985.787,6.4,6.4,0,0,1,2.848,3.334,7.319,7.319,0,0,1,.443,2.6,8.658,8.658,0,0,1-.551,3.291,6.929,6.929,0,0,1-1.9,2.633,8.843,8.843,0,0,1-3.237,1.737A15.743,15.743,0,0,1,11.312,28.472ZM4.478,15.757h0v8.87h6.453c.136.008.273.012.409.012a7.151,7.151,0,0,0,4-1.22,3.97,3.97,0,0,0,1.587-3.356,3.552,3.552,0,0,0-1.652-3.291,8.348,8.348,0,0,0-4-1.025c-.143,0-.289,0-.432.011H4.478ZM4.522,3.886v7.986H11.2a5.426,5.426,0,0,0,3.237-1.08,3.577,3.577,0,0,0,1.392-3.064,3.394,3.394,0,0,0-1.284-2.849,5.58,5.58,0,0,0-3.192-1c-.083,0-.167,0-.251.006Z" transform="translate(79.543 1.078)" fill="#272c3c"/>
    <path id="Path-2" data-name="Path" d="M4.554,28.468H0V0H4.554Z" transform="translate(111.637 1.079)" fill="#9768ff"/>
    <path id="Shape-3" data-name="Shape" d="M8.568,28.468H0V0H8.568a19.49,19.49,0,0,1,6.194.9,11.4,11.4,0,0,1,4.468,2.7c2.4,2.377,3.615,5.928,3.615,10.553a19.433,19.433,0,0,1-.9,6.2,11.475,11.475,0,0,1-2.711,4.484,11.453,11.453,0,0,1-4.473,2.722A19.351,19.351,0,0,1,8.568,28.468ZM4.554,4.057V24.41H8.568l.227,0a13.052,13.052,0,0,0,3.9-.6A7.79,7.79,0,0,0,15.723,22a7.887,7.887,0,0,0,1.9-3.173,14.536,14.536,0,0,0,.659-4.684,14.249,14.249,0,0,0-.659-4.629,7.922,7.922,0,0,0-1.9-3.141A7.355,7.355,0,0,0,12.691,4.6a14.5,14.5,0,0,0-3.926-.541H4.554Z" transform="translate(126.885 1.079)" fill="#272c3c"/>
    <path id="Path-3" data-name="Path" d="M0,0H21.41V4.014H4.478v8.191H19.8v4.058H4.478V28.468H0Z" transform="translate(0 1.079)" fill="#272c3c"/>
    <g id="Grupo_5149" data-name="Grupo 5149" transform="translate(-264.437 -282.95)">
      <path id="Trazado_17601" data-name="Trazado 17601" d="M344.146,326.547a2.686,2.686,0,0,0,1.482.472,1.2,1.2,0,0,0,1.34-1.232c0-.674-.342-1.06-1.207-1.435-1.045-.418-1.691-1.028-1.691-2.046a1.933,1.933,0,0,1,2.071-1.961,2.645,2.645,0,0,1,1.415.354l-.228.761a2.328,2.328,0,0,0-1.216-.343,1.085,1.085,0,0,0-1.207,1.082c0,.675.39,1.007,1.273,1.392,1.083.471,1.634,1.06,1.634,2.121a2.027,2.027,0,0,1-2.242,2.078,3.022,3.022,0,0,1-1.634-.46Z" transform="translate(0 -0.336)" fill="#8e9c9c"/>
      <path id="Trazado_17602" data-name="Trazado 17602" d="M359.761,328.3c0,.475.01.893.038,1.253h-.741l-.048-.75h-.019a1.731,1.731,0,0,1-1.52.855c-.722,0-1.586-.4-1.586-2.014v-2.688h.835V327.5c0,.874.266,1.463,1.026,1.463a1.177,1.177,0,0,0,1.178-1.188v-2.821h.836Z" transform="translate(-7.001 -2.194)" fill="#8e9c9c"/>
      <path id="Trazado_17603" data-name="Trazado 17603" d="M368.5,327.346c.019-.352.039-.874.039-1.333v-6.241h.826v3.243h.019a1.68,1.68,0,0,1,1.567-.95c1.14,0,1.947,1.067,1.938,2.635,0,1.846-1.035,2.763-2.061,2.763a1.61,1.61,0,0,1-1.538-.971h-.029l-.038.853Zm.865-2.07a1.95,1.95,0,0,0,.038.341,1.327,1.327,0,0,0,1.253,1.1c.874,0,1.4-.8,1.4-1.984,0-1.034-.475-1.92-1.368-1.92a1.376,1.376,0,0,0-1.273,1.152,2.1,2.1,0,0,0-.047.384Z" transform="translate(-13.044)" fill="#8e9c9c"/>
      <path id="Trazado_17604" data-name="Trazado 17604" d="M383.674,329.406l-.067-.579h-.029a1.712,1.712,0,0,1-1.406.684,1.31,1.31,0,0,1-1.405-1.321c0-1.111.988-1.719,2.764-1.71v-.095a.948.948,0,0,0-1.045-1.064,2.29,2.29,0,0,0-1.2.342l-.19-.551a2.852,2.852,0,0,1,1.51-.408c1.406,0,1.748.959,1.748,1.88V328.3a6.494,6.494,0,0,0,.076,1.1Zm-.124-2.346c-.912-.019-1.947.142-1.947,1.035a.74.74,0,0,0,.788.8,1.143,1.143,0,0,0,1.111-.769.872.872,0,0,0,.047-.266Z" transform="translate(-19.585 -2.047)" fill="#8e9c9c"/>
      <path id="Trazado_17605" data-name="Trazado 17605" d="M392.121,328.551a2.189,2.189,0,0,0,1.1.333c.608,0,.893-.3.893-.684,0-.4-.238-.617-.855-.845-.827-.294-1.216-.75-1.216-1.3a1.418,1.418,0,0,1,1.586-1.349,2.292,2.292,0,0,1,1.13.285l-.209.608a1.791,1.791,0,0,0-.94-.266c-.494,0-.769.285-.769.627,0,.38.275.551.873.779.8.3,1.207.7,1.207,1.387,0,.807-.627,1.377-1.719,1.377a2.623,2.623,0,0,1-1.292-.313Z" transform="translate(-25.54 -2.047)" fill="#8e9c9c"/>
      <path id="Trazado_17606" data-name="Trazado 17606" d="M402.041,321.768v1.505h1.2V324h-1.2v2.827c0,.65.162,1.018.627,1.018a1.638,1.638,0,0,0,.484-.065l.038.714a1.813,1.813,0,0,1-.741.13,1.089,1.089,0,0,1-.9-.4,2.142,2.142,0,0,1-.323-1.365V324h-.712v-.726h.712v-1.256Z" transform="translate(-30.133 -1.169)" fill="#8e9c9c"/>
      <path id="Trazado_17607" data-name="Trazado 17607" d="M411.4,329.406l-.067-.579H411.3a1.712,1.712,0,0,1-1.406.684,1.31,1.31,0,0,1-1.405-1.321c0-1.111.988-1.719,2.764-1.71v-.095a.948.948,0,0,0-1.045-1.064,2.289,2.289,0,0,0-1.2.342l-.19-.551a2.852,2.852,0,0,1,1.51-.408c1.406,0,1.748.959,1.748,1.88V328.3a6.5,6.5,0,0,0,.076,1.1Zm-.124-2.346c-.912-.019-1.947.142-1.947,1.035a.74.74,0,0,0,.788.8,1.144,1.144,0,0,0,1.111-.769.872.872,0,0,0,.047-.266Z" transform="translate(-34.329 -2.047)" fill="#8e9c9c"/>
      <path id="Trazado_17608" data-name="Trazado 17608" d="M425.348,320.633a10.535,10.535,0,0,1,1.757-.15,3.4,3.4,0,0,1,2.593.9,3.564,3.564,0,0,1,.9,2.6,4.115,4.115,0,0,1-.921,2.811,3.669,3.669,0,0,1-2.83,1.041,11.8,11.8,0,0,1-1.5-.086Zm.827,6.4a4.619,4.619,0,0,0,.836.053c1.767,0,2.726-1.116,2.726-3.068.01-1.706-.845-2.79-2.593-2.79a4.191,4.191,0,0,0-.969.1Z" transform="translate(-43.169 -0.417)" fill="#8e9c9c"/>
      <path id="Trazado_17609" data-name="Trazado 17609" d="M444.334,324.943c0,1.914-1.178,2.749-2.289,2.749-1.245,0-2.2-1.027-2.2-2.663,0-1.733,1.007-2.749,2.28-2.749C443.441,322.28,444.334,323.36,444.334,324.943Zm-3.647.053c0,1.134.579,1.99,1.4,1.99.8,0,1.4-.845,1.4-2.011,0-.877-.389-1.99-1.377-1.99S440.687,324.013,440.687,325Zm2.65-4.835-1.159,1.529h-.6l.836-1.529Z" transform="translate(-50.924 -0.228)" fill="#8e9c9c"/>
      <path id="Trazado_17610" data-name="Trazado 17610" d="M453.234,319.772h.836v7.587h-.836Z" transform="translate(-58.392 0)" fill="#8e9c9c"/>
      <path id="Trazado_17611" data-name="Trazado 17611" d="M460.68,329.406l-.066-.579h-.029a1.713,1.713,0,0,1-1.406.684,1.31,1.31,0,0,1-1.405-1.321c0-1.111.988-1.719,2.764-1.71v-.095a.948.948,0,0,0-1.045-1.064,2.292,2.292,0,0,0-1.2.342l-.19-.551a2.854,2.854,0,0,1,1.51-.408c1.406,0,1.748.959,1.748,1.88V328.3a6.494,6.494,0,0,0,.076,1.1Zm-.123-2.346c-.912-.019-1.947.142-1.947,1.035a.74.74,0,0,0,.788.8,1.143,1.143,0,0,0,1.111-.769.872.872,0,0,0,.048-.266Z" transform="translate(-60.534 -2.047)" fill="#8e9c9c"/>
      <path id="Trazado_17612" data-name="Trazado 17612" d="M469.646,326.243c0-.542-.01-1.007-.039-1.434h.732l.029.9h.038a1.379,1.379,0,0,1,1.273-1.007.9.9,0,0,1,.237.029v.788a1.232,1.232,0,0,0-.285-.029,1.173,1.173,0,0,0-1.121,1.073,2.344,2.344,0,0,0-.038.389v2.451h-.826Z" transform="translate(-65.934 -2.047)" fill="#8e9c9c"/>
      <path id="Trazado_17613" data-name="Trazado 17613" d="M476.964,327.259a1.473,1.473,0,0,0,1.577,1.6,3.026,3.026,0,0,0,1.273-.237l.142.6a3.719,3.719,0,0,1-1.529.285,2.135,2.135,0,0,1-2.261-2.318,2.232,2.232,0,0,1,2.157-2.479,1.948,1.948,0,0,1,1.9,2.166,3.138,3.138,0,0,1-.029.389Zm2.451-.6a1.19,1.19,0,0,0-1.159-1.358,1.385,1.385,0,0,0-1.282,1.358Z" transform="translate(-69.777 -2.047)" fill="#8e9c9c"/>
      <path id="Trazado_17614" data-name="Trazado 17614" d="M487.887,328.551a2.189,2.189,0,0,0,1.1.333c.608,0,.893-.3.893-.684,0-.4-.238-.617-.855-.845-.827-.294-1.216-.75-1.216-1.3A1.418,1.418,0,0,1,489.4,324.7a2.292,2.292,0,0,1,1.13.285l-.209.608a1.789,1.789,0,0,0-.94-.266c-.494,0-.769.285-.769.627,0,.38.275.551.873.779.8.3,1.207.7,1.207,1.387,0,.807-.627,1.377-1.719,1.377a2.622,2.622,0,0,1-1.292-.313Z" transform="translate(-76.522 -2.047)" fill="#8e9c9c"/>
    </g>
  </g>
</svg>
