<svg xmlns="http://www.w3.org/2000/svg" width="262.839" height="306.182" viewBox="0 0 262.839 306.182">
  <g id="Grupo_5252" data-name="Grupo 5252" transform="translate(-1063.073 -208)">
    <path id="Trazado_17596" data-name="Trazado 17596" d="M343.982,156.95h86.007v16.115H361.964v32.911h61.543v16.284H361.964v49.025H343.982Z" transform="translate(719.168 51.051)" fill="#fff"/>
    <path id="Trazado_17597" data-name="Trazado 17597" d="M525.4,191.892a32.623,32.623,0,0,1-6.786,20.611,35.918,35.918,0,0,1-18.155,12.3l26.974,46.482H507.761l-25.445-43.768H462.467v43.768H444.145V156.95h41.9a48.281,48.281,0,0,1,16.707,2.709,35.634,35.634,0,0,1,12.385,7.465,32.055,32.055,0,0,1,7.636,11.115A35.434,35.434,0,0,1,525.4,191.892Zm-18.32,0q0-8.481-5.259-13.568t-15.777-5.092h-23.58v38h23.069q10.178,0,15.862-5.259T507.083,191.892Z" transform="translate(789.99 51.051)" fill="#fff"/>
    <path id="Trazado_17598" data-name="Trazado 17598" d="M425.24,264.564a23.092,23.092,0,0,1-1.528,8.481,25,25,0,0,1-3.984,6.871,27.6,27.6,0,0,1-11.115,8.056,33.819,33.819,0,0,1,7.975,3.141,25.582,25.582,0,0,1,6.871,5.427,25.31,25.31,0,0,1,4.749,7.974,29.042,29.042,0,0,1,1.781,10.432,35.145,35.145,0,0,1-2.458,13.235,27.572,27.572,0,0,1-7.636,10.6,35.9,35.9,0,0,1-13.063,6.958,63.412,63.412,0,0,1-18.745,2.456H343.982V233.859h44.445a53.178,53.178,0,0,1,16.2,2.2,31.431,31.431,0,0,1,11.447,6.277,25.745,25.745,0,0,1,6.873,9.754A33.04,33.04,0,0,1,425.24,264.564ZM388.6,281.358A21.854,21.854,0,0,0,402,277.2q5.6-4.158,5.6-12.3,0-7.462-5.174-11.453t-14-3.984H361.964v31.893Zm-.678,51.231q11.364,0,17.725-4.834t6.362-13.488q0-9.162-6.615-13.233t-17.815-4.071H361.964v35.626Z" transform="translate(719.168 105.43)" fill="#fff"/>
    <path id="Trazado_17599" data-name="Trazado 17599" d="M535.922,290.687q0,28.33-14.508,42.917t-42.83,14.589H444.145V233.859h34.438q28.331,0,42.83,14.416T535.922,290.687Zm-18.32,0a58.017,58.017,0,0,0-2.631-18.578,31.8,31.8,0,0,0-7.636-12.637,29.407,29.407,0,0,0-12.212-7.125,56.741,56.741,0,0,0-16.54-2.2H462.467v81.768h16.117a52.859,52.859,0,0,0,16.54-2.376,30.947,30.947,0,0,0,12.212-7.3,31.7,31.7,0,0,0,7.636-12.723A59.364,59.364,0,0,0,517.6,290.687Z" transform="translate(789.99 105.43)" fill="#fff"/>
    <path id="Trazado_17600" data-name="Trazado 17600" d="M426.927,288.329V402.574H407.563V283.637l8.453-12.352V156.95h19.364V276.642Z" transform="translate(764.124 51.05)" fill="#fff"/>
    <path id="Trazado_17601" data-name="Trazado 17601" d="M344.8,343.018a12.061,12.061,0,0,0,6.108,1.724c3.486,0,5.522-1.842,5.522-4.5,0-2.465-1.412-3.877-4.974-5.246-4.307-1.528-6.97-3.759-6.97-7.479,0-4.112,3.407-7.168,8.537-7.168a11.992,11.992,0,0,1,5.835,1.294l-.941,2.781a10.5,10.5,0,0,0-5.012-1.253c-3.6,0-4.974,2.153-4.974,3.953,0,2.467,1.606,3.68,5.248,5.09,4.464,1.722,6.736,3.875,6.736,7.754,0,4.071-3.015,7.6-9.242,7.6a13.646,13.646,0,0,1-6.734-1.683Z" transform="translate(719.136 166.582)" fill="#fff"/>
    <path id="Trazado_17602" data-name="Trazado 17602" d="M371.861,338.741c0,1.958.039,3.681.157,5.167h-3.054l-.2-3.092h-.077a7.138,7.138,0,0,1-6.267,3.523c-2.977,0-6.538-1.646-6.538-8.3V324.956h3.443v10.5c0,3.6,1.1,6.031,4.23,6.031a4.852,4.852,0,0,0,4.857-4.9v-11.63h3.445Z" transform="translate(727.585 169.842)" fill="#fff"/>
    <path id="Trazado_17603" data-name="Trazado 17603" d="M368.5,347.573c.079-1.291.159-3.209.159-4.894V319.772h3.406v11.905h.078a7.057,7.057,0,0,1,6.461-3.486c4.7,0,8.027,3.916,7.987,9.671,0,6.775-4.268,10.143-8.5,10.143a6.75,6.75,0,0,1-6.342-3.564h-.118l-.157,3.133Zm3.564-7.6a6.418,6.418,0,0,0,.157,1.253,5.315,5.315,0,0,0,5.167,4.034c3.6,0,5.758-2.938,5.758-7.284,0-3.8-1.958-7.048-5.64-7.048a5.5,5.5,0,0,0-5.247,4.23,6.9,6.9,0,0,0-.195,1.41Z" transform="translate(736.503 166.177)" fill="#fff"/>
    <path id="Trazado_17604" data-name="Trazado 17604" d="M392.749,344.086l-.275-2.388h-.118a7.057,7.057,0,0,1-5.8,2.82,5.4,5.4,0,0,1-5.794-5.444c0-4.582,4.071-7.088,11.395-7.049v-.391c0-1.567-.43-4.385-4.307-4.385a9.44,9.44,0,0,0-4.935,1.41l-.782-2.272a11.758,11.758,0,0,1,6.224-1.683c5.8,0,7.206,3.955,7.206,7.752v7.088a26.778,26.778,0,0,0,.314,4.543Zm-.51-9.67c-3.759-.079-8.025.587-8.025,4.268a3.049,3.049,0,0,0,3.248,3.289,4.713,4.713,0,0,0,4.582-3.172,3.592,3.592,0,0,0,.195-1.1Z" transform="translate(745.178 169.664)" fill="#fff"/>
    <path id="Trazado_17605" data-name="Trazado 17605" d="M392.774,340.563a9.024,9.024,0,0,0,4.543,1.371c2.506,0,3.68-1.253,3.68-2.82,0-1.646-.98-2.545-3.523-3.484-3.409-1.214-5.014-3.093-5.014-5.365,0-3.054,2.468-5.56,6.54-5.56a9.448,9.448,0,0,1,4.659,1.174l-.86,2.506a7.383,7.383,0,0,0-3.877-1.1c-2.035,0-3.17,1.175-3.17,2.584,0,1.565,1.135,2.27,3.6,3.211,3.289,1.253,4.974,2.9,4.974,5.717,0,3.329-2.585,5.678-7.088,5.678a10.81,10.81,0,0,1-5.326-1.292Z" transform="translate(753.058 169.664)" fill="#fff"/>
    <path id="Trazado_17606" data-name="Trazado 17606" d="M406.816,321.768v5.442h4.933v2.624h-4.933v10.22c0,2.349.666,3.682,2.584,3.682a7.636,7.636,0,0,0,2-.236l.157,2.583a8.407,8.407,0,0,1-3.054.471,4.774,4.774,0,0,1-3.72-1.449c-.978-1.018-1.332-2.7-1.332-4.933V329.834h-2.936V327.21h2.936v-4.543Z" transform="translate(759.138 167.588)" fill="#fff"/>
    <path id="Trazado_17607" data-name="Trazado 17607" d="M420.475,344.086,420.2,341.7h-.118a7.06,7.06,0,0,1-5.8,2.82,5.4,5.4,0,0,1-5.794-5.444c0-4.582,4.071-7.088,11.395-7.049v-.391c0-1.567-.43-4.385-4.309-4.385a9.439,9.439,0,0,0-4.934,1.41l-.782-2.272a11.758,11.758,0,0,1,6.224-1.683c5.8,0,7.206,3.955,7.206,7.752v7.088a26.784,26.784,0,0,0,.312,4.543Zm-.51-9.67c-3.759-.079-8.027.587-8.027,4.268a3.05,3.05,0,0,0,3.25,3.289,4.715,4.715,0,0,0,4.582-3.172,3.592,3.592,0,0,0,.195-1.1Z" transform="translate(764.782 169.664)" fill="#fff"/>
    <path id="Trazado_17608" data-name="Trazado 17608" d="M425.348,321.031a48.907,48.907,0,0,1,7.243-.548c4.9,0,8.382,1.135,10.691,3.29,2.349,2.154,3.72,5.208,3.72,9.476,0,4.309-1.332,7.832-3.8,10.259-2.467,2.467-6.538,3.8-11.668,3.8a54.839,54.839,0,0,1-6.188-.314Zm3.407,23.339a21.493,21.493,0,0,0,3.447.194c7.282,0,11.236-4.071,11.236-11.2.041-6.226-3.484-10.181-10.688-10.181a19.452,19.452,0,0,0-3.995.352Z" transform="translate(776.699 166.679)" fill="#fff"/>
    <path id="Trazado_17609" data-name="Trazado 17609" d="M458.363,337.666c0,7.008-4.857,10.063-9.437,10.063-5.131,0-9.085-3.759-9.085-9.751,0-6.344,4.15-10.063,9.4-10.063C454.681,327.916,458.363,331.871,458.363,337.666Zm-15.036.195c0,4.152,2.388,7.284,5.755,7.284,3.29,0,5.756-3.095,5.756-7.361,0-3.211-1.6-7.284-5.676-7.284S443.327,334.259,443.327,337.861Zm10.924-17.7-4.776,5.6h-2.468l3.447-5.6Z" transform="translate(786.947 166.452)" fill="#fff"/>
    <path id="Trazado_17610" data-name="Trazado 17610" d="M453.234,319.772h3.445v27.8h-3.445Z" transform="translate(796.417 166.177)" fill="#fff"/>
    <path id="Trazado_17611" data-name="Trazado 17611" d="M469.756,344.086l-.273-2.388h-.118a7.06,7.06,0,0,1-5.8,2.82,5.4,5.4,0,0,1-5.794-5.444c0-4.582,4.071-7.088,11.395-7.049v-.391c0-1.567-.43-4.385-4.307-4.385a9.449,9.449,0,0,0-4.935,1.41l-.782-2.272a11.765,11.765,0,0,1,6.226-1.683c5.8,0,7.206,3.955,7.206,7.752v7.088a26.784,26.784,0,0,0,.312,4.543Zm-.509-9.67c-3.759-.079-8.027.587-8.027,4.268a3.049,3.049,0,0,0,3.25,3.289,4.712,4.712,0,0,0,4.58-3.172,3.592,3.592,0,0,0,.2-1.1Z" transform="translate(799.627 169.664)" fill="#fff"/>
    <path id="Trazado_17612" data-name="Trazado 17612" d="M469.766,331.047c0-2.233-.041-4.15-.159-5.913h3.016l.118,3.721h.157a5.683,5.683,0,0,1,5.248-4.152,3.7,3.7,0,0,1,.978.118v3.25a5.073,5.073,0,0,0-1.176-.118c-2.426,0-4.148,1.84-4.619,4.425a9.663,9.663,0,0,0-.157,1.6v10.1h-3.406Z" transform="translate(807.993 169.664)" fill="#fff"/>
    <path id="Trazado_17613" data-name="Trazado 17613" d="M479.456,335.237c.079,4.66,3.054,6.579,6.5,6.579a12.476,12.476,0,0,0,5.248-.978l.587,2.465a15.338,15.338,0,0,1-6.3,1.176c-5.835,0-9.321-3.838-9.321-9.555s3.368-10.22,8.89-10.22c6.185,0,7.83,5.442,7.83,8.928a12.93,12.93,0,0,1-.118,1.6Zm10.1-2.465c.039-2.194-.9-5.6-4.776-5.6-3.486,0-5.012,3.209-5.287,5.6Z" transform="translate(812.631 169.664)" fill="#fff"/>
    <path id="Trazado_17614" data-name="Trazado 17614" d="M488.54,340.563a9.025,9.025,0,0,0,4.542,1.371c2.506,0,3.681-1.253,3.681-2.82,0-1.646-.98-2.545-3.523-3.484-3.409-1.214-5.012-3.093-5.012-5.365,0-3.054,2.467-5.56,6.538-5.56a9.448,9.448,0,0,1,4.659,1.174l-.86,2.506a7.373,7.373,0,0,0-3.877-1.1c-2.035,0-3.17,1.175-3.17,2.584,0,1.565,1.135,2.27,3.6,3.211,3.289,1.253,4.974,2.9,4.974,5.717,0,3.329-2.584,5.678-7.088,5.678a10.81,10.81,0,0,1-5.326-1.292Z" transform="translate(820.771 169.664)" fill="#fff"/>
  </g>
</svg>
