<svg xmlns="http://www.w3.org/2000/svg" xmlns:xlink="http://www.w3.org/1999/xlink" width="132.275" height="38.512" viewBox="0 0 132.275 38.512">
  <defs>
    <linearGradient id="linear-gradient" x1="0.6" y1="0.606" x2="1.197" y2="0.614" gradientUnits="objectBoundingBox">
      <stop offset="0" stop-color="#005496"/>
      <stop offset="1" stop-color="#fff" stop-opacity="0.263"/>
    </linearGradient>
    <linearGradient id="linear-gradient-2" x1="0.5" y1="0.597" x2="1" y2="0.5" gradientUnits="objectBoundingBox">
      <stop offset="0" stop-color="#f6fafb"/>
      <stop offset="1" stop-color="#fff" stop-opacity="0"/>
    </linearGradient>
    <linearGradient id="linear-gradient-3" x1="0.633" y1="0.383" x2="1.725" y2="0.395" gradientUnits="objectBoundingBox">
      <stop offset="0" stop-color="#005496"/>
      <stop offset="1" stop-color="#fff" stop-opacity="0.78"/>
    </linearGradient>
  </defs>
  <g id="Grupo_5274" data-name="Grupo 5274" transform="translate(5936.923 -4177.301)">
    <g id="Grupo_5272" data-name="Grupo 5272" transform="translate(-6194.923 3561.302)">
      <path id="Trazado_17697" data-name="Trazado 17697" d="M411.931,520.544a19.256,19.256,0,1,0-29.176,16.506l.669-9.489a.8.8,0,0,1,.879-.761s.559-.122,3.868-.349c0,0,1.22-.39,10.535.334,0,0,.488.062.374.655l.418,11.112A19.26,19.26,0,0,0,411.931,520.544Z" transform="translate(-115.419 114.712)" fill="#007dc6"/>
      <path id="Trazado_269" data-name="Trazado 269" d="M438.09,664.393c.171-.016.349-.052.485.1a.524.524,0,0,1-.485-.1" transform="translate(-165.093 -10.559)" fill="#005a9b"/>
      <text id="CORPORACION_FIDUCIARIA_S.A." data-name="CORPORACION FIDUCIARIA S.A." transform="translate(306.153 647.86)" fill="#a8a8a8" font-size="5" font-family="Arial-BoldMT, Arial" font-weight="700"><tspan x="0" y="0">CORPORACION FIDUCIARIA S.A.</tspan></text>
      <path id="Trazado_17698" data-name="Trazado 17698" d="M569.389,535.917a.415.415,0,0,0,.367.033c.2-.047,3.527-.985,3.52-1.029a5.68,5.68,0,0,0-3.458-4.008,10.007,10.007,0,0,0-4.152-.519,6.675,6.675,0,0,0-4.488,1.806c-2.609,2.463-2.929,6.729-1.355,9.788a6.864,6.864,0,0,0,2.849,2.942,7.73,7.73,0,0,0,3.751.813,8.537,8.537,0,0,0,4.725-1.3,6.073,6.073,0,0,0,1.537-1.695,8.776,8.776,0,0,0,.939-1.76l-3.71-1.324c-.586,1.255-1.486,2.513-3.048,2.646a3.039,3.039,0,0,1-2.888-1.455c-1.4-2.394-.815-7.043,2.86-6.978a2.32,2.32,0,0,1,2.464,1.853.362.362,0,0,0,.08.178Z" transform="translate(-257.865 92.375)" fill="#005496"/>
      <path id="Trazado_17699" data-name="Trazado 17699" d="M784.144,545.448V529.982h11.785v3.684H788.9v2.45h6.086v3.11h-6.053v6.22Z" transform="translate(-430.902 92.671)" fill="#005496"/>
      <rect id="Rectángulo_1362" data-name="Rectángulo 1362" width="4.952" height="15.465" transform="translate(367.57 622.654)" fill="#005496"/>
      <g id="Grupo_5269" data-name="Grupo 5269" transform="translate(376.285 622.615)">
        <path id="Trazado_17700" data-name="Trazado 17700" d="M896.2,532.784a6.167,6.167,0,0,0-1.735-1.778,8.4,8.4,0,0,0-4.857-1.185c-2.034-.029-4.068.034-6.1.031v15.465h4.9a20.654,20.654,0,0,0,3.862-.209c3.478-.661,5.008-3.657,5.138-6.794A9.51,9.51,0,0,0,896.2,532.784Zm-3.452,6.43a3.147,3.147,0,0,1-1.135,2.113,2.824,2.824,0,0,1-1.6.216c-.661,0-1.322,0-1.983,0v-8.286l1.352,0a2.574,2.574,0,0,1,2.137.8A5.9,5.9,0,0,1,892.751,539.214Z" transform="translate(-883.51 -529.814)" fill="#005496"/>
      </g>
      <g id="Grupo_5270" data-name="Grupo 5270" transform="translate(317.846 622.662)">
        <path id="Trazado_17701" data-name="Trazado 17701" d="M639.5,530.016a7.733,7.733,0,1,0,8,7.729A7.868,7.868,0,0,0,639.5,530.016Zm0,12.4c-1.857,0-3.362-2.076-3.362-4.638s1.505-4.638,3.362-4.638,3.362,2.076,3.362,4.638S641.357,542.418,639.5,542.418Z" transform="translate(-631.5 -530.016)" fill="#005496"/>
      </g>
      <g id="Grupo_5271" data-name="Grupo 5271" transform="translate(336.639 622.654)">
        <path id="Trazado_17702" data-name="Trazado 17702" d="M726.865,543.6c-.319-.62-.655-1.232-1.027-1.825a8.941,8.941,0,0,0-2.8-3.042c.07.042.488-.2.575-.246a4.726,4.726,0,0,0,.635-.38,4.514,4.514,0,0,0,1.043-6.3,4.718,4.718,0,0,0-2.256-1.568,8.743,8.743,0,0,0-2.9-.248h-7.588v15.457h4.676V539.2h1.314l3.188,5.313c.05.084.46.933.56.933h4.271c.4,0,.815.021,1.217-.008A14.934,14.934,0,0,1,726.865,543.6Zm-5.27-8.765a1.458,1.458,0,0,1-.591.9,4.638,4.638,0,0,1-2.962.547h-.9v-3.144h2.727a1.91,1.91,0,0,1,1.337.313A1.532,1.532,0,0,1,721.6,534.834Z" transform="translate(-712.543 -529.982)" fill="#005496"/>
      </g>
      <path id="Trazado_17703" data-name="Trazado 17703" d="M559.556,607.825l4.51,1.855h80.217l4.384-1.855Z" transform="translate(-258.393 32.88)" fill="#44a8df"/>
      <path id="Trazado_17704" data-name="Trazado 17704" d="M401.712,539.378a6.945,6.945,0,0,0-2.237.852s-.656.258-.647.851l.037,4.646,2.416.748,1.977-.939,3.111-.5,3.811-.2,5.473.378,2.666.333,2.105.3,2.166-.108c.072-.461.129-.952.163-1.47a16.678,16.678,0,0,0-.265-4.225l-3.413-.988a1.635,1.635,0,0,0,.075-.539,1.679,1.679,0,0,0-.269-.853q-.06-1.25-.12-2.5l1.17-.757L410.8,526.4l-9.427,8.171,1.532.689.167,3.724Z" transform="translate(-134.936 95.426)" fill="url(#linear-gradient)"/>
      <path id="Trazado_17705" data-name="Trazado 17705" d="M402.81,605.3l.125-.5s0-.669.879-.761a49.678,49.678,0,0,1,7.4-.378c3.267.135,7,.362,7,.362s.39.049.374.655l.012.588s4.186-.573,3.98-1.567c0,0-.483-.872-4.319-1.4a63.736,63.736,0,0,0-14.142-.077s-4.1.709-5.264,1.457c0,0-.484.445,1.973,1.217Z" transform="translate(-134.93 37.473)" fill="#00407d"/>
      <rect id="Rectángulo_1363" data-name="Rectángulo 1363" width="4.876" height="4.252" transform="translate(269.945 630.33)" fill="#f6fafb"/>
      <rect id="Rectángulo_1364" data-name="Rectángulo 1364" width="4.876" height="4.252" transform="translate(276.984 630.33)" fill="#f6fafb"/>
      <path id="Trazado_17706" data-name="Trazado 17706" d="M483.435,549.663l10.413-4.144c0,.092.841,2.929,1.033,3.727.319,2.589.431,3.332.431,3.332s.382,3.5.4,4.44c-3.481-1.034-8.624-2.129-12.106-3.164Z" transform="translate(-199.923 80.738)" fill="url(#linear-gradient-2)"/>
      <path id="Trazado_17707" data-name="Trazado 17707" d="M429.633,609.788c-9.315-.724-10.535-.334-10.535-.334-3.309.227-3.868.349-3.868.349a.8.8,0,0,0-.879.761l-.669,9.489a19.268,19.268,0,0,0,16.743,1.5l-.418-11.112C430.121,609.85,429.633,609.788,429.633,609.788Z" transform="translate(-146.345 31.709)" fill="url(#linear-gradient-3)"/>
    </g>
  </g>
</svg>
