<svg xmlns="http://www.w3.org/2000/svg" width="44.312" height="51.9" viewBox="0 0 44.312 51.9">
  <g id="Grupo_5005" data-name="Grupo 5005" transform="translate(-197.429 -77.819)">
    <g id="Grupo_5003" data-name="Grupo 5003" transform="translate(197.429 77.819)">
      <path id="Trazado_17433" data-name="Trazado 17433" d="M197.429,77.819h14.5v2.718H200.461v5.55H210.84v2.746H200.461V97.1h-3.032Z" transform="translate(-197.429 -77.819)" fill="#fff"/>
      <path id="Trazado_17434" data-name="Trazado 17434" d="M341.553,83.713a5.5,5.5,0,0,1-1.144,3.476,6.058,6.058,0,0,1-3.061,2.074L341.9,97.1h-3.318l-4.291-7.381H330.94V97.1h-3.09V77.82h7.066a8.144,8.144,0,0,1,2.818.457,6.012,6.012,0,0,1,2.088,1.259,5.411,5.411,0,0,1,1.288,1.874,5.979,5.979,0,0,1,.443,2.3m-3.09,0a3.038,3.038,0,0,0-.887-2.288,3.691,3.691,0,0,0-2.661-.858H330.94v6.409h3.891a3.794,3.794,0,0,0,2.675-.887,3.081,3.081,0,0,0,.958-2.375" transform="translate(-299.015 -77.82)" fill="#fff"/>
      <path id="Trazado_17435" data-name="Trazado 17435" d="M211.132,183.14a3.9,3.9,0,0,1-.258,1.43,4.217,4.217,0,0,1-.672,1.159,4.651,4.651,0,0,1-1.874,1.358,5.693,5.693,0,0,1,1.345.53,4.186,4.186,0,0,1,1.96,2.26,4.9,4.9,0,0,1,.3,1.759,5.928,5.928,0,0,1-.415,2.232,4.648,4.648,0,0,1-1.288,1.787,6.055,6.055,0,0,1-2.2,1.173,10.686,10.686,0,0,1-3.161.415h-7.438V177.962h7.5a8.97,8.97,0,0,1,2.732.372,5.3,5.3,0,0,1,1.931,1.058,4.351,4.351,0,0,1,1.159,1.645,5.571,5.571,0,0,1,.386,2.1m-6.179,2.832a3.686,3.686,0,0,0,2.26-.7,2.42,2.42,0,0,0,.944-2.074,2.292,2.292,0,0,0-.872-1.931,3.775,3.775,0,0,0-2.36-.672h-4.463v5.378Zm-.114,8.639a4.844,4.844,0,0,0,2.989-.815,2.694,2.694,0,0,0,1.073-2.274,2.419,2.419,0,0,0-1.116-2.231,5.693,5.693,0,0,0-3-.687h-4.319v6.008Z" transform="translate(-197.429 -155.821)" fill="#fff"/>
      <path id="Trazado_17436" data-name="Trazado 17436" d="M343.326,187.545q0,4.778-2.447,7.238t-7.223,2.46h-5.807V177.962h5.807q4.778,0,7.223,2.431t2.447,7.152m-3.09,0a9.785,9.785,0,0,0-.443-3.133,5.362,5.362,0,0,0-1.288-2.131,4.958,4.958,0,0,0-2.059-1.2,9.565,9.565,0,0,0-2.79-.372h-2.718V194.5h2.718a8.915,8.915,0,0,0,2.79-.4,5.215,5.215,0,0,0,2.059-1.231,5.345,5.345,0,0,0,1.288-2.146,10.008,10.008,0,0,0,.443-3.175" transform="translate(-299.014 -155.821)" fill="#fff"/>
      <path id="Trazado_17437" data-name="Trazado 17437" d="M283.482,99.975v19.266h-3.266V99.184l1.426-2.083V77.819h3.266V98Z" transform="translate(-261.913 -77.819)" fill="#9768ff"/>
    </g>
    <g id="Grupo_5004" data-name="Grupo 5004" transform="translate(197.698 124.927)">
      <path id="Trazado_17438" data-name="Trazado 17438" d="M198.793,295.492a2.047,2.047,0,0,0,1.037.292c.591,0,.937-.312.937-.764,0-.419-.239-.658-.844-.891-.731-.259-1.183-.638-1.183-1.269a1.29,1.29,0,0,1,1.449-1.216,2.038,2.038,0,0,1,.99.219l-.16.472a1.782,1.782,0,0,0-.85-.213c-.611,0-.844.365-.844.671,0,.419.273.625.891.864.758.292,1.143.658,1.143,1.316,0,.691-.512,1.289-1.569,1.289a2.314,2.314,0,0,1-1.143-.286Z" transform="translate(-198.647 -291.478)" fill="#fff"/>
      <path id="Trazado_17439" data-name="Trazado 17439" d="M217.023,300.025c0,.332.007.625.027.877h-.518l-.033-.525h-.013a1.21,1.21,0,0,1-1.063.6c-.505,0-1.11-.279-1.11-1.409v-1.881h.585v1.781c0,.612.186,1.024.718,1.024a.823.823,0,0,0,.824-.831v-1.974h.585Z" transform="translate(-210.849 -296.184)" fill="#fff"/>
      <path id="Trazado_17440" data-name="Trazado 17440" d="M230.849,295.611c.013-.22.027-.545.027-.831v-3.888h.578v2.021h.013a1.2,1.2,0,0,1,1.1-.592,1.443,1.443,0,0,1,1.356,1.642,1.529,1.529,0,0,1-1.442,1.721,1.146,1.146,0,0,1-1.076-.6h-.02l-.027.532Zm.6-1.289a1.1,1.1,0,0,0,.027.213.9.9,0,0,0,.877.685c.612,0,.977-.5.977-1.236,0-.645-.332-1.2-.957-1.2a.933.933,0,0,0-.891.718,1.153,1.153,0,0,0-.033.239Z" transform="translate(-223.729 -290.892)" fill="#fff"/>
      <path id="Trazado_17441" data-name="Trazado 17441" d="M248.969,300.645l-.047-.405h-.02a1.2,1.2,0,0,1-.984.478.916.916,0,0,1-.983-.924c0-.778.691-1.2,1.934-1.2v-.066a.663.663,0,0,0-.731-.744,1.6,1.6,0,0,0-.837.239l-.133-.385a2,2,0,0,1,1.057-.286c.984,0,1.223.671,1.223,1.316v1.2a4.514,4.514,0,0,0,.053.771ZM248.882,299c-.638-.013-1.362.1-1.362.724a.518.518,0,0,0,.552.558.8.8,0,0,0,.778-.538.614.614,0,0,0,.033-.186Z" transform="translate(-236.259 -295.926)" fill="#fff"/>
      <path id="Trazado_17442" data-name="Trazado 17442" d="M261.693,300.047a1.533,1.533,0,0,0,.771.233c.425,0,.625-.213.625-.478s-.166-.432-.6-.592c-.578-.206-.851-.525-.851-.91a.992.992,0,0,1,1.11-.944,1.606,1.606,0,0,1,.791.2l-.146.425a1.252,1.252,0,0,0-.658-.186c-.346,0-.538.2-.538.439,0,.266.193.385.611.545.558.213.844.492.844.97,0,.565-.439.963-1.2.963a1.835,1.835,0,0,1-.9-.219Z" transform="translate(-247.64 -295.926)" fill="#fff"/>
      <path id="Trazado_17443" data-name="Trazado 17443" d="M273.892,293.508v.924h.837v.445h-.837v1.735c0,.4.113.625.439.625a1.3,1.3,0,0,0,.339-.04l.027.439a1.435,1.435,0,0,1-.518.08.811.811,0,0,1-.631-.246,1.192,1.192,0,0,1-.226-.837v-1.755h-.5v-.445h.5v-.771Z" transform="translate(-256.423 -292.93)" fill="#fff"/>
      <path id="Trazado_17444" data-name="Trazado 17444" d="M285.319,300.645l-.046-.405h-.02a1.2,1.2,0,0,1-.984.478.916.916,0,0,1-.984-.924c0-.778.691-1.2,1.934-1.2v-.066a.663.663,0,0,0-.731-.744,1.6,1.6,0,0,0-.837.239l-.133-.385a2,2,0,0,1,1.057-.286c.983,0,1.223.671,1.223,1.316v1.2a4.539,4.539,0,0,0,.053.771ZM285.232,299c-.638-.013-1.363.1-1.363.724a.518.518,0,0,0,.552.558.8.8,0,0,0,.778-.538.613.613,0,0,0,.033-.186Z" transform="translate(-264.572 -295.926)" fill="#fff"/>
      <path id="Trazado_17445" data-name="Trazado 17445" d="M305.383,291.917a8.272,8.272,0,0,1,1.229-.093,2.565,2.565,0,0,1,1.814.558,2.063,2.063,0,0,1,.631,1.608,2.369,2.369,0,0,1-.645,1.741,2.759,2.759,0,0,1-1.98.645,9.358,9.358,0,0,1-1.05-.053Zm.578,3.961a3.627,3.627,0,0,0,.585.033,1.722,1.722,0,0,0,1.907-1.9,1.6,1.6,0,0,0-1.815-1.728,3.272,3.272,0,0,0-.678.06Z" transform="translate(-281.785 -291.618)" fill="#fff"/>
      <path id="Trazado_17446" data-name="Trazado 17446" d="M327.529,294.374a1.572,1.572,0,0,1-1.6,1.708,1.529,1.529,0,0,1-1.542-1.655,1.571,1.571,0,0,1,1.6-1.708A1.523,1.523,0,0,1,327.529,294.374Zm-2.552.033c0,.7.405,1.236.977,1.236s.977-.525.977-1.249c0-.545-.272-1.236-.964-1.236S324.977,293.8,324.977,294.407Zm1.854-3-.811.95H325.6l.585-.95Z" transform="translate(-296.586 -291.29)" fill="#fff"/>
      <path id="Trazado_17447" data-name="Trazado 17447" d="M341.944,290.892h.585v4.719h-.585Z" transform="translate(-310.262 -290.892)" fill="#fff"/>
      <path id="Trazado_17448" data-name="Trazado 17448" d="M349.932,300.645l-.046-.405h-.02a1.2,1.2,0,0,1-.983.478.916.916,0,0,1-.984-.924c0-.778.691-1.2,1.934-1.2v-.066a.663.663,0,0,0-.731-.744,1.6,1.6,0,0,0-.837.239l-.133-.385a1.994,1.994,0,0,1,1.057-.286c.984,0,1.223.671,1.223,1.316v1.2a4.513,4.513,0,0,0,.053.771ZM349.845,299c-.638-.013-1.362.1-1.362.724a.518.518,0,0,0,.552.558.8.8,0,0,0,.778-.538.613.613,0,0,0,.033-.186Z" transform="translate(-314.9 -295.926)" fill="#fff"/>
      <path id="Trazado_17449" data-name="Trazado 17449" d="M363.439,298.432c0-.379-.007-.7-.027-1h.512l.02.631h.027a.965.965,0,0,1,.89-.7.633.633,0,0,1,.166.02v.552a.883.883,0,0,0-.2-.02.821.821,0,0,0-.784.751,1.649,1.649,0,0,0-.027.272v1.715h-.578Z" transform="translate(-326.984 -295.926)" fill="#fff"/>
      <path id="Trazado_17450" data-name="Trazado 17450" d="M372.57,299.143a1.031,1.031,0,0,0,1.1,1.117,2.119,2.119,0,0,0,.891-.166l.1.419a2.609,2.609,0,0,1-1.07.2,1.494,1.494,0,0,1-1.582-1.622,1.561,1.561,0,0,1,1.508-1.734,1.363,1.363,0,0,1,1.329,1.515,2.216,2.216,0,0,1-.02.272Zm1.715-.419a.833.833,0,0,0-.811-.95.969.969,0,0,0-.9.95Z" transform="translate(-333.683 -295.926)" fill="#fff"/>
      <path id="Trazado_17451" data-name="Trazado 17451" d="M387.251,300.047a1.532,1.532,0,0,0,.771.233c.425,0,.625-.213.625-.478s-.166-.432-.6-.592c-.578-.206-.851-.525-.851-.91a.992.992,0,0,1,1.11-.944,1.6,1.6,0,0,1,.791.2l-.146.425a1.254,1.254,0,0,0-.658-.186c-.345,0-.538.2-.538.439,0,.266.193.385.611.545.558.213.844.492.844.97,0,.565-.439.963-1.2.963a1.836,1.836,0,0,1-.9-.219Z" transform="translate(-345.438 -295.926)" fill="#fff"/>
    </g>
  </g>
</svg>
