<svg xmlns="http://www.w3.org/2000/svg" width="150" height="44" viewBox="0 0 150 44">
  <g id="Grupo_5232" data-name="Grupo 5232" transform="translate(-243.635 -196.638)">
    <g id="Grupo_5230" data-name="Grupo 5230" transform="translate(243.635 196.638)">
      <g id="Grupo_5229" data-name="Grupo 5229">
        <path id="Trazado_17661" data-name="Trazado 17661" d="M324.229,225.165h-4.571V196.638h4.571Z" transform="translate(-287.502 -196.638)" fill="#9768ff"/>
        <path id="Trazado_17662" data-name="Trazado 17662" d="M379.725,205.356a8.139,8.139,0,0,1-1.694,5.143,8.959,8.959,0,0,1-4.529,3.068l6.73,11.6h-4.909l-6.349-10.92h-4.952v10.92h-4.571V196.638h10.454a12.038,12.038,0,0,1,4.169.676,8.89,8.89,0,0,1,3.09,1.862,7.992,7.992,0,0,1,1.905,2.773A8.841,8.841,0,0,1,379.725,205.356Zm-4.572,0a4.493,4.493,0,0,0-1.312-3.385,5.46,5.46,0,0,0-3.937-1.271h-5.883v9.482h5.756a5.611,5.611,0,0,0,3.958-1.312A4.558,4.558,0,0,0,375.154,205.356Z" transform="translate(-310.466 -196.638)" fill="#272c3c"/>
        <path id="Trazado_17663" data-name="Trazado 17663" d="M452.3,204.3a5.768,5.768,0,0,1-.381,2.116,6.257,6.257,0,0,1-.994,1.715,6.9,6.9,0,0,1-2.773,2.01,8.438,8.438,0,0,1,1.99.784,6.4,6.4,0,0,1,1.715,1.354,6.326,6.326,0,0,1,1.184,1.99,7.242,7.242,0,0,1,.444,2.6,8.769,8.769,0,0,1-.613,3.3,6.875,6.875,0,0,1-1.905,2.644,8.956,8.956,0,0,1-3.259,1.736,15.813,15.813,0,0,1-4.677.613h-11V196.638H443.11a13.259,13.259,0,0,1,4.043.55,7.834,7.834,0,0,1,2.856,1.566,6.43,6.43,0,0,1,1.715,2.434A8.241,8.241,0,0,1,452.3,204.3Zm-9.142,4.19a5.455,5.455,0,0,0,3.343-1.037,3.581,3.581,0,0,0,1.4-3.069,3.393,3.393,0,0,0-1.291-2.858,5.589,5.589,0,0,0-3.492-.994h-6.6v7.957Zm-.169,12.783a7.168,7.168,0,0,0,4.422-1.206,3.986,3.986,0,0,0,1.587-3.365,3.58,3.58,0,0,0-1.65-3.3,8.426,8.426,0,0,0-4.445-1.016h-6.39v8.889Z" transform="translate(-352.342 -196.638)" fill="#272c3c"/>
        <path id="Trazado_17664" data-name="Trazado 17664" d="M512.607,225.165h-4.571V196.638h4.571Z" transform="translate(-396.199 -196.638)" fill="#9768ff"/>
        <path id="Trazado_17665" data-name="Trazado 17665" d="M567.042,210.817q0,7.069-3.62,10.708t-10.687,3.64h-8.592V196.638h8.592q7.069,0,10.687,3.6T567.042,210.817Zm-4.571,0a14.485,14.485,0,0,0-.656-4.635,7.937,7.937,0,0,0-1.905-3.153,7.337,7.337,0,0,0-3.047-1.778,14.166,14.166,0,0,0-4.127-.55h-4.021v20.4h4.021a13.19,13.19,0,0,0,4.127-.593,7.709,7.709,0,0,0,3.047-1.821,7.907,7.907,0,0,0,1.905-3.174A14.819,14.819,0,0,0,562.47,210.817Z" transform="translate(-417.042 -196.638)" fill="#272c3c"/>
        <path id="Trazado_17666" data-name="Trazado 17666" d="M243.635,196.638h21.459v4.021H248.121v8.211h15.355v4.062H248.121v12.233h-4.486Z" transform="translate(-243.635 -196.638)" fill="#272c3c"/>
      </g>
    </g>
    <g id="Grupo_5231" data-name="Grupo 5231" transform="translate(322.792 233.435)">
      <path id="Trazado_17667" data-name="Trazado 17667" d="M431.713,287.131a1.931,1.931,0,0,0,.264.944,1.724,1.724,0,0,0,1.564.68,2.649,2.649,0,0,0,.913-.149,1.048,1.048,0,0,0,.8-1.032.9.9,0,0,0-.339-.8,3.333,3.333,0,0,0-1.072-.4l-.9-.21a3.971,3.971,0,0,1-1.244-.451,1.441,1.441,0,0,1-.631-1.278,2,2,0,0,1,.62-1.512,2.445,2.445,0,0,1,1.756-.59,2.986,2.986,0,0,1,1.776.518,1.889,1.889,0,0,1,.732,1.657h-.87a1.761,1.761,0,0,0-.285-.84,1.621,1.621,0,0,0-1.377-.536,1.548,1.548,0,0,0-1.128.344,1.093,1.093,0,0,0-.343.8.784.784,0,0,0,.4.734,5.755,5.755,0,0,0,1.2.373l.928.218a2.806,2.806,0,0,1,1.036.432,1.639,1.639,0,0,1,.63,1.39,1.749,1.749,0,0,1-.8,1.623,3.544,3.544,0,0,1-1.872.488,2.75,2.75,0,0,1-1.945-.652,2.222,2.222,0,0,1-.689-1.752Z" transform="translate(-430.843 -282.333)" fill="#8e9c9c"/>
      <path id="Trazado_17668" data-name="Trazado 17668" d="M447.028,287.112v3.307a1.439,1.439,0,0,0,.118.622.817.817,0,0,0,.811.446,1.144,1.144,0,0,0,1.159-.78,3.175,3.175,0,0,0,.168-1.149v-2.446h.837v4.981h-.79l.009-.735a1.67,1.67,0,0,1-.4.479,1.729,1.729,0,0,1-1.14.391,1.464,1.464,0,0,1-1.423-.712,2.154,2.154,0,0,1-.206-1.019v-3.385Z" transform="translate(-439.686 -285.09)" fill="#8e9c9c"/>
      <path id="Trazado_17669" data-name="Trazado 17669" d="M458.567,282.682h.814v2.479a1.836,1.836,0,0,1,1.49-.735,1.951,1.951,0,0,1,1.515.639,2.723,2.723,0,0,1,.581,1.886,3.232,3.232,0,0,1-.574,1.962,1.867,1.867,0,0,1-1.592.781,1.633,1.633,0,0,1-.961-.275,2.335,2.335,0,0,1-.5-.52v.636h-.772Zm3.2,5.734a2.652,2.652,0,0,0,.339-1.423,2.333,2.333,0,0,0-.339-1.3,1.113,1.113,0,0,0-1-.516,1.4,1.4,0,0,0-1.005.422,1.9,1.9,0,0,0-.43,1.4,3.078,3.078,0,0,0,.176,1.139,1.227,1.227,0,0,0,1.236.824,1.124,1.124,0,0,0,1.019-.54" transform="translate(-446.835 -282.534)" fill="#8e9c9c"/>
      <path id="Trazado_17670" data-name="Trazado 17670" d="M473.6,288.913a.453.453,0,0,0,.385-.241.747.747,0,0,0,.055-.322.683.683,0,0,0-.3-.623,1.627,1.627,0,0,0-.87-.194,1.1,1.1,0,0,0-.927.355,1.166,1.166,0,0,0-.2.584h-.782a1.446,1.446,0,0,1,.6-1.284,2.45,2.45,0,0,1,1.331-.361,2.719,2.719,0,0,1,1.425.334,1.139,1.139,0,0,1,.543,1.042v2.869a.364.364,0,0,0,.054.209c.036.053.111.078.226.078a1.244,1.244,0,0,0,.125-.007c.048,0,.1-.011.15-.021v.619a2.385,2.385,0,0,1-.3.069,1.975,1.975,0,0,1-.278.015.689.689,0,0,1-.628-.308,1.162,1.162,0,0,1-.144-.46,2.149,2.149,0,0,1-.735.581,2.271,2.271,0,0,1-1.056.247,1.569,1.569,0,0,1-1.132-.421,1.394,1.394,0,0,1-.439-1.051,1.353,1.353,0,0,1,.432-1.073,2.05,2.05,0,0,1,1.135-.469Zm-1.763,2.261a.98.98,0,0,0,.628.209,1.9,1.9,0,0,0,.854-.2,1.149,1.149,0,0,0,.7-1.11V289.4a1.384,1.384,0,0,1-.394.163,3.335,3.335,0,0,1-.474.094l-.507.065a1.945,1.945,0,0,0-.684.19.741.741,0,0,0-.388.7.685.685,0,0,0,.265.571" transform="translate(-453.833 -284.925)" fill="#8e9c9c"/>
      <path id="Trazado_17671" data-name="Trazado 17671" d="M483.842,290.35a1.2,1.2,0,0,0,.214.643,1.357,1.357,0,0,0,1.12.4,1.677,1.677,0,0,0,.835-.2.669.669,0,0,0,.361-.625.532.532,0,0,0-.289-.487,3.369,3.369,0,0,0-.727-.237l-.676-.168a3.342,3.342,0,0,1-.954-.352,1.055,1.055,0,0,1-.549-.94,1.423,1.423,0,0,1,.516-1.144,2.077,2.077,0,0,1,1.389-.438,1.936,1.936,0,0,1,1.645.663,1.415,1.415,0,0,1,.305.9h-.79a.959.959,0,0,0-.2-.515,1.333,1.333,0,0,0-1.023-.327,1.243,1.243,0,0,0-.735.181.561.561,0,0,0-.25.477.589.589,0,0,0,.328.52,2.019,2.019,0,0,0,.559.2l.564.135a4.35,4.35,0,0,1,1.232.423,1.121,1.121,0,0,1,.489,1.009,1.528,1.528,0,0,1-.512,1.148,2.191,2.191,0,0,1-1.556.484,2.107,2.107,0,0,1-1.594-.5,1.907,1.907,0,0,1-.5-1.249Z" transform="translate(-460.95 -284.911)" fill="#8e9c9c"/>
      <path id="Trazado_17672" data-name="Trazado 17672" d="M494.493,283.826h.846v1.391h.8v.683h-.8v3.251a.352.352,0,0,0,.177.349.76.76,0,0,0,.325.05c.04,0,.083,0,.13,0s.1-.008.162-.016v.664a1.822,1.822,0,0,1-.3.061,2.885,2.885,0,0,1-.337.019.907.907,0,0,1-.8-.3,1.333,1.333,0,0,1-.209-.779v-3.3h-.674v-.683h.674Z" transform="translate(-467.17 -283.194)" fill="#8e9c9c"/>
      <path id="Trazado_17673" data-name="Trazado 17673" d="M503.62,288.913a.452.452,0,0,0,.385-.241.726.726,0,0,0,.056-.322.685.685,0,0,0-.3-.623,1.622,1.622,0,0,0-.87-.194,1.1,1.1,0,0,0-.928.355,1.176,1.176,0,0,0-.2.584h-.781a1.443,1.443,0,0,1,.6-1.284,2.452,2.452,0,0,1,1.331-.361,2.717,2.717,0,0,1,1.425.334,1.138,1.138,0,0,1,.545,1.042v2.869a.371.371,0,0,0,.052.209c.036.053.111.078.225.078.038,0,.079,0,.126-.007s.1-.011.148-.021v.619a2.392,2.392,0,0,1-.3.069,2.006,2.006,0,0,1-.279.015.689.689,0,0,1-.628-.308,1.162,1.162,0,0,1-.144-.46,2.135,2.135,0,0,1-.734.581,2.27,2.27,0,0,1-1.056.247,1.569,1.569,0,0,1-1.131-.421,1.39,1.39,0,0,1-.441-1.051,1.352,1.352,0,0,1,.432-1.073,2.054,2.054,0,0,1,1.135-.469Zm-1.763,2.261a.983.983,0,0,0,.628.209,1.907,1.907,0,0,0,.856-.2,1.149,1.149,0,0,0,.7-1.11V289.4a1.388,1.388,0,0,1-.395.163,3.3,3.3,0,0,1-.474.094l-.505.065a1.94,1.94,0,0,0-.684.19.741.741,0,0,0-.388.7.687.687,0,0,0,.264.571" transform="translate(-471.149 -284.925)" fill="#8e9c9c"/>
      <path id="Trazado_17674" data-name="Trazado 17674" d="M520.4,282.739h2.732a2.56,2.56,0,0,1,2.156,1,3.722,3.722,0,0,1,.684,2.311,4.669,4.669,0,0,1-.4,1.967,2.489,2.489,0,0,1-2.447,1.552H520.4Zm2.55,6.041a2.428,2.428,0,0,0,.755-.1,1.665,1.665,0,0,0,.864-.7,2.922,2.922,0,0,0,.387-1.06,4.123,4.123,0,0,0,.067-.716,3.389,3.389,0,0,0-.493-1.972,1.8,1.8,0,0,0-1.589-.7h-1.605v5.246Z" transform="translate(-482.5 -282.567)" fill="#8e9c9c"/>
      <path id="Trazado_17675" data-name="Trazado 17675" d="M539.431,284.879a2.508,2.508,0,0,1,.661,1.885,3.253,3.253,0,0,1-.582,1.989,2.1,2.1,0,0,1-1.8.785,2.031,2.031,0,0,1-1.621-.694,2.753,2.753,0,0,1-.6-1.865,2.991,2.991,0,0,1,.633-2,2.123,2.123,0,0,1,1.7-.742,2.222,2.222,0,0,1,1.615.642m-.519,3.309a3.17,3.17,0,0,0,.306-1.4,2.507,2.507,0,0,0-.222-1.132,1.239,1.239,0,0,0-1.2-.687,1.187,1.187,0,0,0-1.1.584,2.739,2.739,0,0,0-.345,1.413,2.38,2.38,0,0,0,.345,1.324,1.21,1.21,0,0,0,1.094.529,1.141,1.141,0,0,0,1.129-.629m-.108-5.811-1.242,1.344h-.641l.851-1.344Z" transform="translate(-491.203 -282.358)" fill="#8e9c9c"/>
      <rect id="Rectángulo_1356" data-name="Rectángulo 1356" width="0.837" height="6.831" transform="translate(49.939 0.172)" fill="#8e9c9c"/>
      <path id="Trazado_17676" data-name="Trazado 17676" d="M556.155,288.913a.453.453,0,0,0,.386-.241.753.753,0,0,0,.055-.322.683.683,0,0,0-.3-.623,1.626,1.626,0,0,0-.87-.194,1.1,1.1,0,0,0-.928.355,1.168,1.168,0,0,0-.2.584h-.782a1.446,1.446,0,0,1,.6-1.284,2.45,2.45,0,0,1,1.331-.361,2.72,2.72,0,0,1,1.425.334,1.14,1.14,0,0,1,.543,1.042v2.869a.363.363,0,0,0,.054.209c.036.053.111.078.226.078a1.229,1.229,0,0,0,.124-.007c.048,0,.1-.011.15-.021v.619a2.368,2.368,0,0,1-.3.069,1.981,1.981,0,0,1-.278.015.689.689,0,0,1-.628-.308,1.154,1.154,0,0,1-.144-.46,2.149,2.149,0,0,1-.735.581,2.272,2.272,0,0,1-1.056.247,1.57,1.57,0,0,1-1.132-.421,1.394,1.394,0,0,1-.439-1.051,1.353,1.353,0,0,1,.433-1.073,2.05,2.05,0,0,1,1.135-.469Zm-1.763,2.261a.98.98,0,0,0,.628.209,1.9,1.9,0,0,0,.854-.2,1.149,1.149,0,0,0,.7-1.11V289.4a1.384,1.384,0,0,1-.394.163,3.335,3.335,0,0,1-.474.094l-.507.065a1.945,1.945,0,0,0-.684.19.741.741,0,0,0-.388.7.685.685,0,0,0,.266.571" transform="translate(-501.453 -284.925)" fill="#8e9c9c"/>
      <path id="Trazado_17677" data-name="Trazado 17677" d="M566.372,286.96h.8v.86a1.891,1.891,0,0,1,.479-.611,1.241,1.241,0,0,1,.878-.361c.016,0,.042,0,.079,0l.191.019v.883a1.328,1.328,0,0,0-.137-.018c-.042,0-.088,0-.137,0a1.2,1.2,0,0,0-.972.406,1.429,1.429,0,0,0-.339.938v2.864h-.837Z" transform="translate(-509.021 -284.937)" fill="#8e9c9c"/>
      <path id="Trazado_17678" data-name="Trazado 17678" d="M576.5,287.1a1.876,1.876,0,0,1,.753.644,2.2,2.2,0,0,1,.333.879,5.747,5.747,0,0,1,.074,1.1h-3.622a2.158,2.158,0,0,0,.355,1.22,1.183,1.183,0,0,0,1.028.46,1.325,1.325,0,0,0,1.039-.435,1.469,1.469,0,0,0,.306-.584h.823a1.725,1.725,0,0,1-.216.612,2.2,2.2,0,0,1-.409.551,1.937,1.937,0,0,1-.937.5,2.837,2.837,0,0,1-.68.074,2.083,2.083,0,0,1-1.566-.676,2.647,2.647,0,0,1-.642-1.9,2.872,2.872,0,0,1,.647-1.948,2.128,2.128,0,0,1,1.691-.749,2.246,2.246,0,0,1,1.022.249m.3,1.955a2.162,2.162,0,0,0-.235-.87,1.2,1.2,0,0,0-1.138-.6,1.26,1.26,0,0,0-.96.415,1.59,1.59,0,0,0-.41,1.058Z" transform="translate(-512.926 -284.937)" fill="#8e9c9c"/>
      <path id="Trazado_17679" data-name="Trazado 17679" d="M586.405,290.35a1.2,1.2,0,0,0,.214.643,1.357,1.357,0,0,0,1.12.4,1.678,1.678,0,0,0,.835-.2.669.669,0,0,0,.361-.625.532.532,0,0,0-.289-.487,3.37,3.37,0,0,0-.727-.237l-.676-.168a3.358,3.358,0,0,1-.954-.352,1.056,1.056,0,0,1-.548-.94,1.424,1.424,0,0,1,.516-1.144,2.071,2.071,0,0,1,1.388-.438,1.936,1.936,0,0,1,1.645.663,1.418,1.418,0,0,1,.306.9h-.79a.961.961,0,0,0-.206-.515,1.332,1.332,0,0,0-1.023-.327,1.246,1.246,0,0,0-.735.181.56.56,0,0,0-.249.477.586.586,0,0,0,.328.52,1.987,1.987,0,0,0,.558.2l.564.135a4.35,4.35,0,0,1,1.232.423,1.119,1.119,0,0,1,.489,1.009,1.528,1.528,0,0,1-.512,1.148,2.187,2.187,0,0,1-1.556.484,2.1,2.1,0,0,1-1.593-.5,1.9,1.9,0,0,1-.5-1.249Z" transform="translate(-520.112 -284.911)" fill="#8e9c9c"/>
    </g>
  </g>
</svg>
