<svg xmlns="http://www.w3.org/2000/svg" width="75.105" height="14.282" viewBox="0 0 75.105 14.282">
  <g id="color_copy_3" data-name="color copy 3" transform="translate(0 -0.718)">
    <path id="Path" d="M2.306,14.28H0V0H2.306Z" transform="translate(16.098 0.719)" fill="#9768ff"/>
    <path id="Shape" d="M2.29,14.281H0V0H5.342A5.931,5.931,0,0,1,7.329.342a4.338,4.338,0,0,1,1.549.931A3.972,3.972,0,0,1,9.83,2.659a4.352,4.352,0,0,1,.32,1.705A4.075,4.075,0,0,1,9.3,6.94,4.438,4.438,0,0,1,7.037,8.472L10.4,14.279H7.952L4.774,8.813H2.29V14.28Zm0-12.245V6.778H5.17c.058,0,.117.006.176.006a2.806,2.806,0,0,0,1.806-.66A2.268,2.268,0,0,0,7.86,4.364,2.251,2.251,0,0,0,7.2,2.67a2.742,2.742,0,0,0-1.759-.64c-.066,0-.134,0-.2.007Z" transform="translate(24.526 0.718)" fill="#fff"/>
    <path id="Shape-2" data-name="Shape" d="M5.676,14.282l-.155,0H0V0H5.67a6.654,6.654,0,0,1,1.9.277A3.927,3.927,0,0,1,9,1.084,3.182,3.182,0,0,1,9.857,2.3a4.009,4.009,0,0,1,.287,1.532,2.972,2.972,0,0,1-.687,1.916,3.367,3.367,0,0,1-.676.628,3.4,3.4,0,0,1-.71.379,4.323,4.323,0,0,1,1,.4,3.094,3.094,0,0,1,.834.676,3.174,3.174,0,0,1,.6,1,3.677,3.677,0,0,1,.221,1.3,4.353,4.353,0,0,1-.276,1.651A3.478,3.478,0,0,1,9.489,13.1a4.443,4.443,0,0,1-1.624.872A7.91,7.91,0,0,1,5.676,14.282ZM2.246,7.9v4.45H5.484c.068,0,.137.006.205.006A3.585,3.585,0,0,0,7.7,11.747a1.989,1.989,0,0,0,.8-1.683,1.782,1.782,0,0,0-.828-1.651A4.193,4.193,0,0,0,5.656,7.9c-.071,0-.144,0-.215.006ZM2.268,1.95V5.955H5.618a2.72,2.72,0,0,0,1.624-.541,1.8,1.8,0,0,0,.7-1.537A1.7,1.7,0,0,0,7.3,2.447a2.8,2.8,0,0,0-1.6-.5l-.127,0Z" transform="translate(39.899 0.718)" fill="#fff"/>
    <path id="Path-2" data-name="Path" d="M2.284,14.28H0V0H2.284Z" transform="translate(55.998 0.719)" fill="#9768ff"/>
    <path id="Shape-3" data-name="Shape" d="M4.3,14.279H0V0H4.3A7.3,7.3,0,0,1,9.646,1.8,7.171,7.171,0,0,1,11.459,7.1a7.31,7.31,0,0,1-1.813,5.358A7.287,7.287,0,0,1,4.3,14.279ZM2.284,2.036V12.245H4.406a6.549,6.549,0,0,0,1.959-.3,3.911,3.911,0,0,0,1.522-.909A3.971,3.971,0,0,0,8.84,9.446,7.29,7.29,0,0,0,9.17,7.1a7.167,7.167,0,0,0-.33-2.323A3.982,3.982,0,0,0,7.887,3.2a3.7,3.7,0,0,0-1.522-.893A7.276,7.276,0,0,0,4.4,2.035H2.284Z" transform="translate(63.646 0.719)" fill="#fff"/>
    <path id="Path-3" data-name="Path" d="M0,0H10.739V2.014H2.246V6.122H9.933V8.157H2.246V14.28H0Z" transform="translate(0 0.719)" fill="#fff"/>
  </g>
</svg>
