<svg id="Grupo_1149" data-name="Grupo 1149" xmlns="http://www.w3.org/2000/svg" width="16.549" height="16.707" viewBox="0 0 16.549 16.707">
  <path id="Trazado_1201" data-name="Trazado 1201" d="M1696.107,3012.7l-.357-.376a6.766,6.766,0,0,1-5.722,1.606,6.625,6.625,0,0,1-4.17-2.542,6.937,6.937,0,0,1,.621-9.2,6.849,6.849,0,0,1,8.849-.579,7.048,7.048,0,0,1,1.069,10.1l.328.359c.109-.1.2-.176.288-.261a.54.54,0,0,1,.869,0q1.438,1.457,2.875,2.915a.529.529,0,0,1-.01.834q-.583.594-1.167,1.188a.536.536,0,0,1-.866,0q-1.438-1.457-2.879-2.911a.521.521,0,0,1-.021-.8Zm-4.857-11.443a5.893,5.893,0,1,0,5.825,5.934A5.87,5.87,0,0,0,1691.251,3001.253Zm5.581,12.193,2.331,2.223.613-.541-2.347-2.245Z" transform="translate(-1684.404 -3000.26)" fill="#99abbf"/>
  <path id="Trazado_1202" data-name="Trazado 1202" d="M1722.465,3032.795c.072.073.339.217.377.408.064.32-.205.455-.512.471a2.775,2.775,0,0,0-2.53,1.771c-.137.3-.308.559-.675.385-.349-.165-.241-.468-.131-.742A3.857,3.857,0,0,1,1722.465,3032.795Z" transform="translate(-1715.601 -3029.694)" fill="#99abbf"/>
  <path id="Trazado_1203" data-name="Trazado 1203" d="M1719.213,3075.55c.11.176.325.367.3.524s-.269.309-.418.462c-.142-.159-.376-.308-.4-.482-.019-.155.2-.339.312-.51Z" transform="translate(-1715.431 -3068.37)" fill="#99abbf"/>
</svg>
