<?xml version="1.0" encoding="utf-8"?>
<!-- Generator: Adobe Illustrator 23.0.0, SVG Export Plug-In . SVG Version: 6.00 Build 0)  -->
<svg version="1.1" id="Capa_1" xmlns="http://www.w3.org/2000/svg" xmlns:xlink="http://www.w3.org/1999/xlink" x="0px" y="0px"
	 viewBox="0 0 113.7 46.8" style="enable-background:new 0 0 113.7 46.8;" xml:space="preserve">
<style type="text/css">
	.st0{fill-rule:evenodd;clip-rule:evenodd;fill:#0A83BA;}
	.st1{fill-rule:evenodd;clip-rule:evenodd;fill:#BDCD0D;}
</style>
<g>
	<path class="st0" d="M25.6,23.2C25.6,23.3,25.7,23.3,25.6,23.2c1.3,0.8,2,1.8,2.4,3.2c0.3,1.1,0.3,2.2,0.2,3.3
		c0,0.7-0.1,1.4-0.3,2.1c-0.5,1.8-1.6,3-3.4,3.6c-0.8,0.3-1.6,0.4-2.4,0.5c-0.8,0.1-1.5,0.1-2.3,0.1c-2.6,0-5.2,0-7.8,0
		c-0.4,0-0.7,0-1.1-0.1c-0.1,0-0.2-0.1-0.3-0.1c-0.4-0.1-0.6-0.4-0.7-0.7c-0.1-0.3-0.1-0.7-0.2-1.1c0-0.1,0-0.2,0-0.4
		c0-6.6,0-13.1,0-19.7c0-0.4,0-0.7,0.1-1.1c0-0.1,0.1-0.2,0.1-0.4c0.1-0.4,0.4-0.6,0.7-0.7c0.3-0.1,0.7-0.1,1-0.2c0.2,0,0.3,0,0.5,0
		c2.6,0,5.1,0,7.7,0c1.1,0,2.2,0.1,3.3,0.4c0.4,0.1,0.8,0.2,1.2,0.4c1.6,0.7,2.6,1.8,3,3.5c0.3,1.1,0.3,2.2,0.2,3.3
		c0,0.6-0.1,1.2-0.3,1.8c-0.3,0.9-0.8,1.7-1.5,2.2C25.7,23.1,25.6,23.2,25.6,23.2z M17.9,25.6C17.9,25.6,17.9,25.5,17.9,25.6
		c-1,0-2,0-3,0c-0.2,0-0.2,0-0.2,0.2c0,0,0,0,0,0.1c0,1.9,0,3.7,0,5.6c0,0,0,0.1,0,0.1c0,0.1,0,0.1,0.1,0.1c0.1,0,0.1,0,0.2,0
		c1.6,0,3.3,0,4.9,0c0.3,0,0.6,0,0.9,0c0.3,0,0.6-0.1,0.9-0.2c0.5-0.2,0.8-0.5,1-1c0.1-0.2,0.1-0.4,0.1-0.6c0.1-0.7,0.1-1.5,0-2.2
		c0-0.2,0-0.4-0.1-0.7c-0.2-0.7-0.6-1.1-1.3-1.3c-0.5-0.1-0.9-0.1-1.4-0.2C19.5,25.5,18.7,25.6,17.9,25.6z M17.6,15.8
		C17.6,15.8,17.6,15.8,17.6,15.8c-0.9,0-1.8,0-2.6,0c-0.2,0-0.2,0-0.2,0.2c0,0.2,0,0.4,0,0.6c0,1.5,0,3,0,4.4c0,0.2,0,0.2,0.2,0.2
		c1.6,0,3.2,0,4.8,0c0.5,0,0.9-0.1,1.4-0.2c0.6-0.2,1-0.6,1.1-1.2c0.1-0.6,0.1-1.3,0.1-1.9c0-0.3,0-0.6-0.1-0.8
		c-0.1-0.5-0.4-0.8-0.9-1c-0.1,0-0.2-0.1-0.4-0.1c-0.4-0.1-0.9-0.1-1.3-0.2C19,15.8,18.3,15.8,17.6,15.8z"/>
	<path class="st0" d="M81.3,23.2c0,0,0.1,0.1,0.1,0.1c1.2,0.7,1.9,1.7,2.3,3c0.2,0.8,0.3,1.5,0.3,2.3c0,0.9,0,1.8-0.2,2.6
		c-0.2,0.8-0.4,1.6-0.9,2.3c-0.6,0.8-1.4,1.4-2.4,1.8c-0.7,0.3-1.5,0.4-2.2,0.5c-0.8,0.1-1.7,0.1-2.5,0.1c-2.7,0-5.3,0-8,0
		c-0.3,0-0.7,0-1-0.1c-0.8-0.1-1.2-0.5-1.3-1.3c0-0.3-0.1-0.6-0.1-0.8c0-6.6,0-13.2,0-19.9c0-0.4,0-0.7,0.1-1.1
		c0.1-0.6,0.5-1,1.1-1.1c0.3-0.1,0.7-0.1,1-0.1c2.8,0,5.6,0,8.4,0c1.2,0,2.3,0.2,3.4,0.5c0.8,0.3,1.5,0.6,2.1,1.2
		c0.8,0.7,1.2,1.6,1.5,2.6c0.2,1,0.3,2,0.2,3c0,0.6-0.1,1.3-0.3,1.9C82.8,21.7,82.2,22.5,81.3,23.2C81.4,23.2,81.4,23.2,81.3,23.2z
		 M73.7,25.6C73.7,25.6,73.7,25.5,73.7,25.6c-1,0-2,0-3,0c-0.2,0-0.2,0-0.2,0.2c0,0,0,0,0,0.1c0,1.9,0,3.7,0,5.6c0,0,0,0.1,0,0.1
		c0,0.1,0,0.1,0.1,0.1c0.1,0,0.1,0,0.2,0c1.6,0,3.3,0,4.9,0c0.3,0,0.6,0,0.9,0c0.3,0,0.7-0.1,1-0.2c0.5-0.2,0.8-0.5,0.9-1
		c0-0.1,0.1-0.3,0.1-0.4c0.1-0.5,0.1-1.1,0.1-1.7c0-0.5,0-0.9-0.1-1.4c-0.2-0.7-0.6-1.1-1.2-1.3c-0.5-0.1-0.9-0.1-1.4-0.2
		C75.2,25.5,74.5,25.6,73.7,25.6z M73.3,15.8C73.3,15.8,73.3,15.8,73.3,15.8c-0.9,0-1.8,0-2.6,0c-0.2,0-0.2,0-0.2,0.2
		c0,1.7,0,3.4,0,5.1c0,0.2,0,0.2,0.2,0.2c1.6,0,3.2,0,4.8,0c0.4,0,0.9-0.1,1.3-0.2c0.6-0.2,1-0.6,1.2-1.2c0-0.1,0-0.2,0.1-0.3
		c0.1-0.6,0.1-1.2,0-1.8c0-0.2-0.1-0.5-0.1-0.7c-0.1-0.4-0.4-0.8-0.8-0.9c-0.1,0-0.2-0.1-0.4-0.1c-0.4-0.1-0.9-0.2-1.3-0.2
		C74.7,15.8,74,15.8,73.3,15.8z"/>
	<path class="st0" d="M40.8,34.6c-0.7,0.3-1.5,0.6-2.2,0.9c-1,0.3-2.1,0.6-3.1,0.6c-0.6,0-1.2,0-1.8-0.1c-1.2-0.3-2.1-1-2.6-2.2
		c-0.3-0.7-0.5-1.4-0.7-2.2c-0.2-1.3-0.3-2.6-0.3-3.8c0-1,0-2,0.1-3c0.1-1.2,0.2-2.3,0.6-3.4c0.1-0.4,0.3-0.7,0.5-1
		c0.6-1,1.4-1.5,2.5-1.7c0.8-0.2,1.7-0.1,2.5,0c1.5,0.2,2.9,0.7,4.2,1.3c0.1,0,0.1,0.1,0.2,0.1c0,0,0,0,0.1,0c0-0.1,0-0.1,0.1-0.2
		c0.1-0.5,0.4-0.8,0.9-0.9c0.2-0.1,0.5-0.1,0.8-0.1c0.6,0,1.2,0,1.7,0.1c0.1,0,0.2,0,0.3,0.1c0.4,0.1,0.7,0.4,0.8,0.8
		c0.1,0.3,0.1,0.5,0.1,0.8c0,0.2,0,0.4,0,0.6c0,4.2,0,8.3,0,12.5c0,0.4,0,0.8-0.1,1.2c-0.1,0.6-0.5,1-1.1,1.1
		c-0.3,0.1-0.6,0.1-1,0.1c-0.5,0-1,0-1.4-0.1c-0.1,0-0.2-0.1-0.3-0.1c-0.4-0.1-0.6-0.4-0.7-0.8C40.9,34.8,40.8,34.7,40.8,34.6z
		 M40.7,27.3c0-1,0-2.1,0-3.1c0-0.1,0-0.2-0.1-0.2c-0.9-0.4-1.7-0.7-2.6-1c-0.6-0.2-1.2-0.3-1.8-0.3c-0.3,0-0.5,0.1-0.7,0.4
		c-0.1,0.2-0.2,0.4-0.2,0.6c-0.1,0.5-0.2,0.9-0.2,1.4c-0.1,1.6-0.1,3.2,0,4.8c0,0.4,0.1,0.9,0.3,1.3c0.2,0.6,0.5,0.7,1.1,0.7
		c0.4,0,0.8-0.1,1.2-0.2c1-0.3,2-0.7,3-1.1c0.1-0.1,0.2-0.1,0.2-0.3C40.7,29.4,40.7,28.3,40.7,27.3z"/>
	<path class="st0" d="M52.6,20c0.5-0.2,1.1-0.4,1.6-0.6c0.9-0.3,1.9-0.6,2.9-0.7c0.9-0.1,1.7-0.1,2.6,0.1c1,0.2,1.8,0.8,2.3,1.6
		c0.4,0.6,0.6,1.3,0.9,2.1c0.3,0.9,0.3,1.8,0.3,2.7c0,2.9,0,5.8,0,8.7c0,0.4,0,0.7-0.1,1c-0.1,0.5-0.4,0.8-0.9,0.9
		c-0.2,0.1-0.5,0.1-0.7,0.1c-0.6,0-1.3,0.1-1.9-0.1c-0.1,0-0.3-0.1-0.4-0.1c-0.3-0.1-0.6-0.4-0.7-0.7c-0.1-0.3-0.1-0.5-0.2-0.8
		c0-0.2,0-0.4,0-0.6c0-2.9,0-5.8,0-8.7c0-0.5,0-0.9-0.1-1.3c0-0.1-0.1-0.2-0.1-0.4c-0.2-0.4-0.4-0.5-0.8-0.5c-0.6,0-1.1,0.1-1.7,0.3
		c-0.9,0.3-1.8,0.6-2.7,1c-0.1,0-0.1,0.1-0.1,0.2c0,0.1,0,0.1,0,0.2c0,3.1,0,6.2,0,9.2c0,0.4,0,0.8-0.1,1.2c-0.1,0.6-0.4,0.9-1,1
		c-0.2,0-0.4,0.1-0.6,0.1c-0.6,0-1.3,0.1-1.9-0.1c-0.1,0-0.2-0.1-0.3-0.1c-0.4-0.1-0.6-0.4-0.7-0.8c-0.1-0.2-0.1-0.5-0.1-0.8
		c0-0.3,0-0.6,0-0.8c0-4.1,0-8.2,0-12.2c0-0.5,0-0.9,0.1-1.4c0.1-0.5,0.4-0.9,1-1c0.6-0.1,1.2-0.1,1.8-0.1c0.3,0,0.5,0,0.8,0.1
		c0.5,0.1,0.8,0.4,1,1C52.6,19.8,52.6,19.9,52.6,20C52.6,19.9,52.6,19.9,52.6,20z"/>
	<path class="st0" d="M99.2,28.5c0,1.7,0,3.5,0,5.2c0,0.3,0,0.6-0.1,0.8c-0.1,0.7-0.4,1.1-1.2,1.3c-0.8,0.1-1.6,0.1-2.3,0
		c-0.8-0.1-1.1-0.5-1.2-1.3c0-0.3,0-0.6,0-0.9c0-3.6,0-7.2,0-10.7c0-0.3,0.1-0.3-0.3-0.3c-0.3,0-0.6,0-1-0.1c-0.6-0.1-1-0.5-1.1-1
		c-0.1-0.6-0.1-1.1,0-1.7c0.1-0.7,0.5-1,1.2-1.1c0.3-0.1,0.7-0.1,1-0.1c0.2,0,0.2,0,0.2-0.2c0-0.8,0.1-1.5,0.2-2.3
		c0.1-0.8,0.3-1.6,0.5-2.3c0.3-0.9,0.9-1.5,1.7-1.8c0.7-0.3,1.3-0.4,2-0.5c0.9-0.1,1.8-0.1,2.6,0c0.4,0,0.7,0.1,1.1,0.2
		c0.9,0.3,1.4,0.8,1.4,1.8c0,0.2,0,0.5-0.1,0.7c-0.1,0.6-0.5,1.1-1.1,1.4c-0.5,0.2-1.1,0.3-1.6,0.3c-0.3,0-0.7,0-1,0
		c-0.6,0.1-0.9,0.4-0.9,1c-0.1,0.5,0,1.1,0,1.6c0,0.1,0,0.1,0.1,0.1c0.1,0,0.1,0,0.2,0c0.6,0,1.3,0,1.9,0c0.2,0,0.5,0,0.7,0.1
		c0.5,0.1,0.8,0.4,0.9,0.9c0.1,0.5,0.1,1,0.1,1.4c0,0.2,0,0.4-0.1,0.5c-0.1,0.4-0.4,0.7-0.9,0.9c-0.3,0.1-0.6,0.1-0.9,0.1
		c-0.6,0-1.2,0-1.8,0c-0.2,0-0.2,0-0.2,0.2C99.2,24.8,99.2,26.6,99.2,28.5z"/>
	<path class="st0" d="M90.7,27.3c0,2.1,0,4.3,0,6.4c0,0.4,0,0.7-0.1,1.1c-0.1,0.5-0.4,0.9-1,1c-0.2,0.1-0.4,0.1-0.6,0.1
		c-0.6,0-1.3,0.1-1.9-0.1c-0.1,0-0.3-0.1-0.4-0.1c-0.3-0.1-0.5-0.4-0.7-0.7c-0.1-0.3-0.1-0.6-0.2-1c0-0.2,0-0.4,0-0.5
		c0-4.2,0-8.3,0-12.5c0-0.4,0-0.8,0.1-1.2c0.1-0.6,0.5-1,1.1-1.1c0.2,0,0.4-0.1,0.7-0.1c0.6,0,1.2,0,1.7,0.1c0.1,0,0.2,0.1,0.3,0.1
		c0.4,0.1,0.7,0.4,0.8,0.8c0.1,0.4,0.1,0.8,0.1,1.3C90.7,23,90.7,25.2,90.7,27.3z"/>
	<path class="st1" d="M85.1,13.8c0-1.7,1.5-3.4,3.6-3.1c0.7,0.1,1.4,0.4,1.9,0.9c0.5,0.5,0.8,1.1,0.9,1.8c0.2,1.2-0.1,2.3-0.9,3.2
		c-0.6,0.6-1.3,1-2.2,1c-0.8,0-1.4-0.3-2-0.9c-0.6-0.7-1-1.4-1.1-2.3C85.1,14.2,85.1,14,85.1,13.8z M86.3,13.7
		c0,0.6,0.2,1.1,0.6,1.5c0.4,0.3,0.8,0.4,1.2,0.3c1.1-0.3,1.5-1.6,1-2.5c-0.3-0.6-1.1-0.9-1.7-0.7C86.8,12.4,86.3,13,86.3,13.7z"/>
	<path class="st0" d="M86.3,13.7c0-0.7,0.5-1.3,1.1-1.5c0.7-0.2,1.4,0.1,1.7,0.7c0.5,0.9,0.1,2.2-1,2.5c-0.5,0.1-0.9,0-1.2-0.3
		C86.5,14.8,86.3,14.2,86.3,13.7z"/>
</g>
</svg>
