<?xml version="1.0" encoding="utf-8"?>
<!-- Generator: Adobe Illustrator 23.0.0, SVG Export Plug-In . SVG Version: 6.00 Build 0)  -->
<svg version="1.1" id="Capa_1" xmlns="http://www.w3.org/2000/svg" xmlns:xlink="http://www.w3.org/1999/xlink" x="0px" y="0px"
	 viewBox="0 0 113.7 46.8" style="enable-background:new 0 0 113.7 46.8;" xml:space="preserve">
<style type="text/css">
	.st0{fill-rule:evenodd;clip-rule:evenodd;fill:#004481;}
	.st1{fill:#004481;}
</style>
<g>
	<path class="st0" d="M70.3,37.5c-0.2,0.3-0.2,0.4-0.6,0.6c-0.1,0-0.3,0-0.4,0c-0.4-0.1-0.4-0.4-0.6-0.7L55.9,13.3
		c-0.1-0.2-0.2-0.4-0.2-0.6c0,0-0.1-0.6,0.5-0.6c1.4,0,2.5,0,3.8,0c0.4,0,0.7,0.1,0.9,0.4L69,28.4c0.2,0.2,0.2,0.3,0.3,0.4
		c0.3,0.1,0.5,0,0.7-0.3l8-15.3c0,0,0.5-1.1,1-1.1c1.3,0,2.5,0.1,3.8,0.1c0.6,0,0.6,0.4,0.5,0.6c-0.4,0.7-0.6,1-0.7,1.4L70.3,37.5z"
		/>
	<path class="st0" d="M91.6,9c0.2-0.3,0.2-0.4,0.6-0.6c0.1,0,0.3,0,0.4,0C93,8.6,93,8.8,93.2,9.1L106,33.2c0.1,0.2,0.2,0.4,0.2,0.6
		c0,0,0.1,0.6-0.5,0.6c-1.4,0-2.5,0-3.8,0c-0.4,0-0.7-0.1-0.9-0.4l-8.2-15.8c-0.2-0.2-0.2-0.3-0.3-0.4c-0.3-0.1-0.5,0-0.7,0.3
		l-8,15.3c0,0-0.5,1.1-1,1.1c-1.3,0-2.5-0.1-3.8-0.1c-0.6,0-0.6-0.4-0.5-0.6c0.4-0.7,0.6-1,0.7-1.4L91.6,9z"/>
	<path class="st1" d="M54.9,27.5c-0.3-0.7-0.9-1.5-1.3-1.9c-0.6-0.6-1-0.9-1.8-1.2c0-0.1,0.1-0.2,0.2-0.2c0.6-0.4,1.1-0.9,1.5-1.6
		c0.6-1,0.9-2.1,0.9-3.3c-0.1-0.3,0-0.6,0-0.9c-0.1-1.2-0.6-2.3-1.3-3.3c-0.1-0.1-0.1-0.1-0.2-0.2c-0.4-0.3-0.7-0.7-1.1-1
		c-0.2-0.1-0.3-0.2-0.5-0.3c-0.6-0.4-1.3-0.7-2-0.9c-0.1,0-0.2-0.1-0.3-0.1c-0.9-0.2-1.7-0.2-2.6-0.2c-3.9,0-7.8,0-11.7,0
		c-0.1,0-0.3,0-0.4,0c-0.5-0.2-1,0.3-0.9,0.8c0.1,0.2,0.1,0.4,0.1,0.7c0,7.4,0,14.8,0,22.2c0,0.6,0,1.3-0.1,1.9
		c0,0.3,0.2,0.4,0.4,0.4c4,0,12.2,0,12.7,0c1,0,3.1-0.3,3.6-0.5c2.3-0.8,5.3-2.8,5.3-6C55.4,31.6,55.7,29.1,54.9,27.5z M37.7,16.8
		c0-0.5,0.2-0.6,0.7-0.6c2.6,0,5.1,0,7.7,0c0.5,0,3.8,0.3,3.8,3.3c0,2.1-1,3.4-2.8,3.4c-0.8,0-7.4,0-8.8,0c-0.5,0-0.7-0.1-0.7-0.6
		C37.7,20.4,37.7,18.6,37.7,16.8z M48.4,34.2c-0.4,0.1-3.7,0.3-4.9,0.3c-2.5,0-2.5,0-5.1,0c-0.6,0-0.7-0.1-0.7-0.7
		c0-2.1,0-4.2,0-6.3c0-0.6,0.1-0.8,0.8-0.8c1.4,0,3.3,0,5,0c1.2,0,4-0.1,5.4,0.4c1.3,0.4,2.3,1.5,2.3,3.5
		C51.1,32.4,49.8,33.9,48.4,34.2z"/>
	<path class="st1" d="M29,27.3c-0.7-1.4-2.4-2.9-3.2-3.2c0-0.1,0.1-0.2,0.2-0.2c0.6-0.4,1.1-0.9,1.5-1.6c0.6-1,0.9-2.1,0.9-3.3
		c-0.1-0.3,0-0.6,0-0.9c-0.1-1.2-0.6-2.3-1.3-3.3c-0.1-0.1-0.1-0.1-0.2-0.2c-0.4-0.3-0.7-0.7-1.1-1c-0.2-0.1-0.3-0.2-0.5-0.3
		c-0.6-0.4-1.3-0.7-2-0.9c-0.1,0-0.2-0.1-0.3-0.1c-0.9-0.2-1.7-0.2-2.6-0.2c-3.9,0-7.8,0-11.7,0c-0.1,0-0.3,0-0.4,0
		c-0.5-0.2-1,0.3-0.9,0.8c0.1,0.2,0.1,0.4,0.1,0.7c0,7.4,0,14.8,0,22.2c0,0.6,0,1.3-0.1,1.9c0,0.3,0.2,0.4,0.4,0.4
		c4,0,12.2,0,12.7,0c1,0,3.1-0.3,3.6-0.5c2.3-0.8,4.9-2.8,5.3-6C29.6,30.6,29.8,28.9,29,27.3z M11.8,16.6c0-0.5,0.2-0.6,0.7-0.6
		c2.6,0,5.1,0,7.7,0c0.5,0,3.8,0.3,3.8,3.3c0,2.1-1.2,3.1-2.9,3.3c-0.8,0.1-7.3,0.1-8.6,0.1c-0.5,0-0.7-0.1-0.7-0.6
		C11.8,20.2,11.8,18.4,11.8,16.6z M22.5,34.1c-0.4,0.1-3.7,0.3-4.9,0.3c-2.5,0-2.5,0-5.1,0c-0.6,0-0.7-0.1-0.7-0.7
		c0-2.1,0-4.2,0-6.3c0-0.6,0.1-0.8,0.8-0.8c1.4,0,3.3,0,5,0c1.2,0,4-0.1,5.4,0.4c1.3,0.4,2.3,1.5,2.3,3.5
		C25.2,32.3,23.9,33.7,22.5,34.1z"/>
</g>
</svg>
