<?xml version="1.0" encoding="utf-8"?>
<!-- Generator: Adobe Illustrator 23.0.0, SVG Export Plug-In . SVG Version: 6.00 Build 0)  -->
<svg version="1.1" id="Capa_1" xmlns="http://www.w3.org/2000/svg" xmlns:xlink="http://www.w3.org/1999/xlink" x="0px" y="0px"
	 viewBox="0 0 113.7 46.8" style="enable-background:new 0 0 113.7 46.8;" xml:space="preserve">
<style type="text/css">
	.st0{fill:#014B8E;}
	.st1{fill:#F57D31;}
</style>
<g>
	<g>
		<path class="st0" d="M53.6,10.8c3.4-3.1,8.5-4.1,12.8-2.7c1.6,0.5,3.5,1.4,3.9,3.2c0,1.5-0.6,3-0.8,4.5c-2.1-1.9-5.1-2.5-7.8-2.1
			c-2.9,0.6-5,3.1-6.1,5.8c-1.3,3.1-1.8,6.7-0.7,10c0.6,1.7,2,3.2,3.8,3.8c2.8,0.9,5.9-0.2,8-2.2c-0.4,1.9-0.6,3.8-1.2,5.7
			c-0.5,1.5-2.3,2.1-3.7,2.4c-3.8,0.7-8.3-0.1-11-3.1c-2.7-2.9-3.3-7-3.1-10.8C47.8,19.9,49.6,14.4,53.6,10.8z"/>
		<g>
			<path class="st0" d="M28,8.7c2.8-0.5,5.7-0.8,8.6-0.7c2.7,0.1,5.5,0.7,7.5,2.6c2.3,2.2,2.4,6.2,0.5,8.7c-1.1,1.5-2.8,2.7-4.7,3.1
				c1.5,0.6,2.9,1.5,3.6,3c1.7,3.5,0.8,8-2.1,10.6c-2.3,2.1-5.5,2.9-8.5,3.1c-2.3,0.1-4.6,0-6.7-0.7C25,38,24.1,37,23.7,35.9
				c-0.6-1.7-0.3-3.5,0-5.2C25.1,23.4,26.5,16,28,8.7z M33.3,13.2c-0.4,2.1-0.9,4.2-1.2,6.3c-0.1,0.6,0.6,0.8,1.1,0.8
				c1.9,0.1,4.1-0.2,5.5-1.6c1.3-1.4,1.4-4-0.3-5C36.8,12.7,35,13.1,33.3,13.2z M31,25.1c-0.5,2-0.8,4.1-1.2,6.1
				c-0.1,0.9-0.6,1.8,0.1,2.6c2,0,4.3,0.1,6-1c2.1-1.3,2.9-4.6,1.1-6.5C35.4,24.8,33,25.1,31,25.1z"/>
		</g>
		<g>
			<path class="st0" d="M74.2,8.8c2-0.6,4.1-0.7,6.2-0.8c2.9,0,5.9,0,8.4,1.6c1.9,1.1,3.1,3.2,3.3,5.4c0.7,4.8-1.7,10-6.1,12.3
				c-2.9,1.6-6.2,1.7-9.4,1.5c-0.5,2.4-0.9,4.8-1.4,7.2c-0.3,1.3-1.1,2.5-2.4,2.9c-1.5,0.1-2.9,0-4.4,0.1
				C70.5,29,72.2,18.9,74.2,8.8z M80,13.4c-0.6,2.9-1.1,5.8-1.6,8.7c-0.2,0.6,0.2,1.1,0.7,1.4c1.5,0.3,3.2,0,4.6-0.8
				c2.6-1.5,3.7-5.1,2.5-7.8C84.9,12.8,82,13.2,80,13.4z"/>
		</g>
		<path class="st0" d="M9.8,10.3c1-0.5,2.3-0.3,3.1,0.6c1.2,1.8,1.2,4,1.2,6c0,1.7-0.3,3.3-0.9,4.9c-2-2.6-4.5-4.7-7.4-6.1
			C6.4,13.5,7.7,11.4,9.8,10.3z"/>
		<path class="st0" d="M95.1,15.6c0.9-2.2,2.2-4.5,4.5-5.4c1.2-0.4,2.4,0.2,3.1,1.1c1.4,3.3,1,7.1,0,10.4
			C100.5,19.2,98,17.1,95.1,15.6z"/>
	</g>
	<g>
		<path class="st1" d="M12.8,10.9c3,1.9,5.4,4.5,7.3,7.4c1.6,2.4,1.8,5.8,0.2,8.2c-1.9,3.2-4.8,5.8-7.7,8.1
			c-1.6,1.2-3.6,2.7-5.8,2.1c-2-0.5-3.3-2.3-4.2-4.1c4.4-2.6,8.6-6,10.4-10.9c0.6-1.6,0.9-3.2,0.9-4.9C14,14.9,14,12.7,12.8,10.9z"
			/>
		<path class="st1" d="M102.6,11.3c2.6,1.3,4.5,3.7,6.3,6c1.4,1.7,2.3,3.8,2,6c-0.1,1.9-1.1,3.5-2.3,5c-2.2,2.9-5,5.3-8,7.4
			c-1.2,0.8-2.8,1.5-4.3,1c-2-0.5-3.4-2.3-4.2-4.1c4.4-2.5,8.6-6,10.4-10.8C103.6,18.4,104,14.6,102.6,11.3z"/>
	</g>
</g>
</svg>
