<?xml version="1.0" encoding="utf-8"?>
<!-- Generator: Adobe Illustrator 23.0.0, SVG Export Plug-In . SVG Version: 6.00 Build 0)  -->
<svg version="1.1" id="Capa_1" xmlns="http://www.w3.org/2000/svg" xmlns:xlink="http://www.w3.org/1999/xlink" x="0px" y="0px"
	 viewBox="0 0 113.7 46.8" style="enable-background:new 0 0 113.7 46.8;" xml:space="preserve">
<style type="text/css">
	.st0{fill-rule:evenodd;clip-rule:evenodd;fill:#353E90;}
	.st1{fill-rule:evenodd;clip-rule:evenodd;fill:#009540;}
</style>
<g>
	<path class="st0" d="M6.9,32.1h15.5c1.2,0,2.2-1,2.2-2.2V14.6H9.1c-1.2,0-2.2,1-2.2,2.2V32.1L6.9,32.1z M11.1,29.4l9.2-1.6v-9.6
		l-9.2,1.6V29.4L11.1,29.4z"/>
	<path class="st1" d="M71.3,21.7c1.5,0,2.7,1.3,2.7,3.3c0,2-1.2,3.3-2.7,3.3c-0.8,0-1.5-0.3-1.9-1c-0.5-0.6-0.6-1.3-0.6-2.1
		c0-1,0.1-1.7,0.5-2.4C69.7,22.2,70.5,21.7,71.3,21.7L71.3,21.7z M68.8,17.1l0,4.3c1.2-1.2,2.6-1.6,4.3-1.1c1.9,0.5,3,2.3,3.1,4.8
		c0,3.2-2.2,5.2-4.8,5.2c-2.9,0-4.8-2-4.8-4.9v-8.2H68.8L68.8,17.1z M64.6,19.7h0.7V22h-0.7l0,0v0c-0.5,0-0.9,0.2-1.3,0.5
		c-0.3,0.3-0.5,0.8-0.5,1.3h0l0,0v6.3h-2.3v-6.3l0,0h0c0-1.1,0.5-2.1,1.2-2.9C62.5,20.2,63.5,19.7,64.6,19.7L64.6,19.7L64.6,19.7
		L64.6,19.7z M55.7,26.2h-3.3c0,0.1,0.1,0.2,0.1,0.3c0.4,1,1.3,1.6,2.3,1.7l0,0h0c0.1,0,0.3,0,0.4,0.1c0.1,0,0.3,0,0.4,0l0,0
		c1.1,0,1.9-0.3,2.4-0.6c0.1,0.4,0,1.2,0,1.5c-0.2,1-1.9,1-2.5,1v0c-0.2,0-0.4,0-0.6,0c-0.2,0-0.4,0-0.6-0.1l0,0
		c-2.6-0.5-4.1-2.8-4-5.3v0v0l0,0c0.1-2.1,1.3-4,3.3-4.6h0l0,0l0,0c1.6-0.5,3.2,0,4.2,0.9c0.2,0.2,0.4,0.4,0.5,0.6
		c0.2,0.2,0.3,0.4,0.4,0.7l0,0l0,0l0,0c0.2,0.5,0.3,0.9,0.3,1.3c0,0.5-0.2,1-0.5,1.3c-0.3,0.3-0.6,0.6-1,0.8v0
		C57.1,26,56.4,26.2,55.7,26.2L55.7,26.2z M52.4,24.5h3.4c0.8,0,1.6-0.4,1.2-1.4l0,0l0,0l0,0c0-0.1-0.1-0.2-0.2-0.3
		c-0.1-0.1-0.2-0.2-0.3-0.3c-0.6-0.6-1.4-0.9-2.3-0.6v0l0,0l0,0c-0.2,0.1-0.3,0.1-0.4,0.2c-0.1,0.1-0.3,0.2-0.4,0.3
		C52.9,22.7,52.5,23.5,52.4,24.5L52.4,24.5z M46.5,17.2v2.7h3.7l-0.1,0.9c-0.1,0.8-0.5,1-1.4,1h-2.3v4.8l0,0c0,0.1,0,0.5,0,0.6
		c0.1,0.8,0.6,1,1.3,1c0.7,0.1,1.8,0,2.4-0.3c0.1,0.8,0,1.9-0.5,2.1c-0.5,0.2-1.4,0.3-2,0.2c-0.3,0-0.6,0-0.9-0.1
		c-0.5-0.1-1.3-0.5-1.7-0.9c-0.7-0.8-0.7-1.7-0.8-2.7l0-0.1v-9.3H46.5L46.5,17.2z M37.5,19.7h0.8l0,0v0c1.1,0,2.2,0.5,2.9,1.2
		c0.7,0.7,1.2,1.8,1.2,2.9l0,0l0,0v6.3h-2.3v-6.3l0,0h0c0-0.5-0.2-1-0.5-1.3c-0.3-0.3-0.8-0.5-1.3-0.5v0l0,0h-0.8l0,0v0
		c-0.5,0-0.9,0.2-1.3,0.5c-0.3,0.3-0.5,0.8-0.5,1.3h0l0,0v6.3h-2.3v-6.3l0,0l0,0c0-1.1,0.5-2.1,1.2-2.9
		C35.4,20.2,36.4,19.7,37.5,19.7L37.5,19.7L37.5,19.7L37.5,19.7z M29.1,17h2.3v13.1h-2.3V17L29.1,17z M90.9,19.7h0.8h0v0
		c1.1,0,2.1,0.5,2.9,1.2c0.7,0.7,1.2,1.8,1.2,2.9h0l0,0v6.3h-2.3v-6.3l0,0h0c0-0.5-0.2-1-0.5-1.3c-0.3-0.3-0.8-0.5-1.3-0.5v0h0h-0.8
		h0v0c-0.5,0-1,0.2-1.3,0.5c-0.3,0.3-0.5,0.8-0.5,1.3h0l0,0v6.3h-2.3v-6.3l0,0h0c0-1.1,0.5-2.1,1.2-2.9
		C88.7,20.2,89.8,19.7,90.9,19.7L90.9,19.7L90.9,19.7L90.9,19.7z M97.6,17h2.3v13.1h-2.3V17L97.6,17z M106.3,20.2H104l-4.1,4.7
		l4.6,5.2h2.3l-4.6-5.2L106.3,20.2L106.3,20.2z M83.3,25.6L83.3,25.6c-0.5,0-1,0-1.5,0c-0.9,0-1.4,0.1-1.9,0.3
		c-0.5,0.2-0.7,0.6-0.8,1l0,0V27l0,0c-0.1,0.8,0.4,1.4,1.1,1.5h0v0c0.9,0.1,1.6,0,2.1-0.3c0.4-0.2,0.7-0.7,0.8-1.3
		C83.3,26.6,83.3,26,83.3,25.6L83.3,25.6z M80.5,19.8c1.1-0.1,2.5,0,3.4,0.7c0.4,0.3,0.7,0.6,0.9,1.1c0.3,0.5,0.3,1.2,0.3,1.7v3
		c0,1.5-0.5,2.8-2,3.5c-0.5,0.2-1,0.3-1.7,0.4c-2.6,0.1-4.5-1.2-4.3-3.6c0.1-1.7,1.6-2.4,3.3-2.6c0.8-0.1,2.2,0.1,2.7,0
		c0-0.5-0.1-1.2-0.2-1.6c-0.1-0.3-0.4-0.7-0.8-0.8c-0.5-0.2-1.3-0.2-1.8-0.2c-0.8,0.1-1.4,0.2-2.3,0.7l0-0.9c0-0.3,0-0.6,0.2-0.8
		C78.6,20,79.8,19.9,80.5,19.8L80.5,19.8z"/>
</g>
</svg>
