<?xml version="1.0" encoding="utf-8"?>
<!-- Generator: Adobe Illustrator 23.0.0, SVG Export Plug-In . SVG Version: 6.00 Build 0)  -->
<svg version="1.1" id="Capa_1" xmlns="http://www.w3.org/2000/svg" xmlns:xlink="http://www.w3.org/1999/xlink" x="0px" y="0px"
	 viewBox="0 0 113.7 46.8" style="enable-background:new 0 0 113.7 46.8;" xml:space="preserve">
<style type="text/css">
	.st0{fill-rule:evenodd;clip-rule:evenodd;fill:#E20613;}
</style>
<g>
	<path class="st0" d="M10.3,23.3c-0.6-0.9-0.7-2.1-0.7-3.1c0-3.2,2.8-5.8,5.8-5.8h9.2L21,18.1h-5.7C13,18.1,10.3,20.4,10.3,23.3
		L10.3,23.3z M13.8,20.7c0.2-0.8,1-1.7,1.7-2.2c-1.3,0-2.8,0.6-4,2.2H13.8L13.8,20.7z M15.7,18.9c-0.5,0.5-1.1,1.2-1.4,1.8h2.8
		C16.8,20.1,16.2,19.4,15.7,18.9L15.7,18.9z M11.3,21.2c-0.3,0.6-0.5,1.3-0.6,2h2.6c0-0.7,0.1-1.4,0.4-2H11.3L11.3,21.2z M14.1,21.2
		c-0.2,0.6-0.3,1.3-0.4,2h3.9c-0.1-0.7-0.2-1.4-0.4-2H14.1L14.1,21.2z M19.8,20.7c-1.1-1.6-2.6-2.2-3.9-2.2c0.7,0.5,1.4,1.5,1.7,2.2
		H19.8L19.8,20.7z M17.7,21.2c0.2,0.6,0.3,1.3,0.3,2h2.6c0-0.7-0.2-1.4-0.6-2H17.7L17.7,21.2z M11.5,26c1.1,1.7,2.7,2.3,4,2.3
		c-0.7-0.5-1.4-1.5-1.7-2.3H11.5L11.5,26z M15.7,27.9c0.5-0.5,1.1-1.2,1.4-1.8h-2.8C14.6,26.7,15.2,27.4,15.7,27.9L15.7,27.9z
		 M13.7,25.6c-0.2-0.7-0.4-1.4-0.4-2h-2.6c0.1,0.7,0.2,1.4,0.6,2H13.7L13.7,25.6z M17.2,25.6c0.2-0.6,0.3-1.3,0.4-2h-3.9
		c0.1,0.7,0.2,1.4,0.4,2H17.2L17.2,25.6z M17.5,26c-0.3,0.7-1,1.7-1.7,2.3c1.3,0,2.8-0.6,3.9-2.3H17.5L17.5,26z M20.1,25.6
		c0.4-0.6,0.5-1.3,0.6-2H18c0,0.6-0.1,1.3-0.3,2H20.1L20.1,25.6z M21,23.4c0.1,3.1-2.7,5.4-5,5.4h-5.7l-3.6,3.6H16
		c2.9,0,5.8-2.7,5.8-5.8C21.7,25.6,21.6,24.4,21,23.4L21,23.4L21,23.4z"/>
	<path class="st0" d="M48,28.3c-2.4,0-4.1-1.4-4.1-3.7c0-2.2,1.8-3.7,4.1-3.7c2.3,0,4.1,1.5,4.1,3.7C52.1,26.8,50.4,28.3,48,28.3
		L48,28.3z M89,21.1v7.1h-2.4l0-0.7h-0.1c-0.3,0.2-0.8,0.9-2.4,0.9c-1.7,0-3.2-1.5-3.2-3.7c0-2.1,1.3-3.7,3.4-3.7
		c1.4,0,2,0.6,2.2,0.8h0.1l0-0.6H89L89,21.1z M70.6,21.1v7.1h-2.4l0-0.7h-0.1c-0.3,0.2-0.8,0.9-2.4,0.9c-1.7,0-3.2-1.5-3.2-3.7
		c0-2.1,1.3-3.7,3.4-3.7c1.4,0,2,0.6,2.2,0.8h0.1l0-0.6H70.6L70.6,21.1z M58.9,21.1h2.5v7.1h-2.5V21.1L58.9,21.1z M72.1,28.1v-10
		h2.5v3.4h0c0.2-0.1,1-0.7,2.1-0.7c1.9,0,3.3,1.5,3.3,3.6c0,2.5-1.6,3.8-3.3,3.8c-1.3,0-2-0.6-2.2-0.8h0l0,0.6H72.1L72.1,28.1z
		 M48,26.5c1,0,1.6-0.9,1.6-1.9c0-1.1-0.6-1.9-1.6-1.9c-1.1,0-1.6,0.9-1.6,1.9C46.4,25.6,47,26.5,48,26.5L48,26.5z M57.7,26.2
		c-0.1,0-0.5,0.1-0.7,0.1c-0.5,0-1-0.2-1-1.1v-2.4h1.5v-1.8H56v-2.3h-2.5v2.3h-1.1v1.8h1.1v2.8c0,1.5,0.7,2.6,2.5,2.6
		c0.5,0,1-0.1,1.3-0.1L57.7,26.2L57.7,26.2z M29.7,27.9c0.7,0.2,1.7,0.4,2.8,0.4c2.1,0,4.2-0.7,4.2-3.1c0-3.2-4.4-2.7-4.4-4
		c0-0.6,0.7-0.8,1.3-0.8c0.9,0,2.1,0.4,2.3,0.5l0.2-2.2c-0.6-0.2-1.6-0.3-2.5-0.3c-2.1,0-4.1,0.8-4.1,2.9c0,3.1,4.4,2.5,4.4,4.1
		c0,0.6-0.6,0.9-1.4,0.9c-1.1,0-2.1-0.6-2.6-0.7L29.7,27.9L29.7,27.9z M83.6,24.5c0,1.2,0.7,1.9,1.5,1.9c0.8,0,1.5-0.7,1.5-1.8
		c0-1.1-0.7-1.8-1.5-1.8C84.2,22.8,83.6,23.6,83.6,24.5L83.6,24.5z M65.1,24.5c0,1.2,0.7,1.9,1.5,1.9c0.8,0,1.5-0.7,1.5-1.8
		c0-1.1-0.7-1.8-1.5-1.8C65.7,22.8,65.1,23.6,65.1,24.5L65.1,24.5z M43.3,21.2c-0.2-0.1-0.9-0.3-1.8-0.3c-2.2,0-3.9,1.4-3.9,3.7
		c0,2.1,1.5,3.7,3.8,3.7c1,0,1.7-0.3,1.9-0.3l-0.1-2.1c-0.2,0.1-0.7,0.4-1.2,0.4c-1,0-1.7-0.7-1.7-1.7c0-1,0.8-1.7,1.7-1.7
		c0.5,0,1,0.3,1.2,0.3L43.3,21.2L43.3,21.2z M99.5,28.1h2.5v-3.3h0l2.2,3.3h2.7l-2.6-3.8l2.6-3.3h-2.7L102,24h0v-5.8h-2.5V28.1
		L99.5,28.1z M90.6,28.1H93v-3.7c0-0.9,0.6-1.4,1.3-1.4c0.8,0,1.3,0.5,1.3,1.4v3.7H98v-4.3c0-1.6-1-3-2.9-3c-1.3,0-1.9,0.7-2.2,1
		h-0.1l0-0.8h-2.2V28.1L90.6,28.1z M60.2,17.5c-0.8,0-1.4,0.6-1.4,1.4c0,0.8,0.6,1.4,1.4,1.4c0.8,0,1.4-0.6,1.4-1.4
		C61.6,18.1,60.9,17.5,60.2,17.5L60.2,17.5z M77.5,24.6c0-0.9-0.5-1.8-1.5-1.8c-0.8,0-1.5,0.7-1.5,1.8c0,1,0.5,1.8,1.5,1.8
		C76.9,26.4,77.5,25.7,77.5,24.6L77.5,24.6z"/>
</g>
</svg>
