<svg xmlns="http://www.w3.org/2000/svg" width="84.205" height="37.25" viewBox="0 0 84.205 37.25">
  <g id="logo-white-bg" transform="translate(-16.389 -7.5)">
    <g id="Grupo_5185" data-name="Grupo 5185" transform="translate(16.389 7.5)">
      <path id="Trazado_17617" data-name="Trazado 17617" d="M17.1,16.622c0-4.842,3.166-7.822,7.822-7.822a7.383,7.383,0,0,1,4.1,1.118l-.373,3.539a5.8,5.8,0,0,0-3.911-1.3c-2.049,0-3.725,1.49-3.725,4.1a2.888,2.888,0,0,0,2.98,3.166,9.5,9.5,0,0,0,4.284-1.3L27.9,21.651a9.78,9.78,0,0,1-4.284,1.3c-4.1-.186-6.519-2.607-6.519-6.332m24.026-1.3a2.887,2.887,0,0,0-2.98-3.166c-2.235,0-3.911,1.676-3.911,4.284a2.887,2.887,0,0,0,2.98,3.166c2.235,0,3.911-1.676,3.911-4.284M30.51,16.436c0-4.47,3.166-7.45,7.636-7.45A6.157,6.157,0,0,1,44.665,15.5c0,4.47-3.166,7.45-7.636,7.45-3.725-.186-6.519-2.607-6.519-6.519m15.831.186c0-4.842,3.166-7.822,7.823-7.822a7.383,7.383,0,0,1,4.1,1.118l-.373,3.539a5.8,5.8,0,0,0-3.911-1.3c-2.049,0-3.725,1.49-3.725,4.1a2.888,2.888,0,0,0,2.98,3.166,9.5,9.5,0,0,0,4.284-1.3l-.372,3.539a9.78,9.78,0,0,1-4.284,1.3c-4.1-.186-6.519-2.607-6.519-6.332m4.1,20.487c0-4.842,3.166-7.822,7.822-7.822a7.383,7.383,0,0,1,4.1,1.118l-.372,3.539a5.8,5.8,0,0,0-3.911-1.3c-2.049,0-3.725,1.49-3.725,4.1A2.888,2.888,0,0,0,57.33,39.9a9.5,9.5,0,0,0,4.284-1.3l-.372,3.539a9.78,9.78,0,0,1-4.284,1.3c-4.284,0-6.519-2.421-6.519-6.332M70.181,15.319a2.887,2.887,0,0,0-2.98-3.166c-2.235,0-3.911,1.676-3.911,4.284A2.887,2.887,0,0,0,66.27,19.6c2.421,0,3.911-1.676,3.911-4.284m-10.43,1.117c0-4.47,3.166-7.45,7.636-7.45A6.157,6.157,0,0,1,73.906,15.5c0,4.47-3.166,7.45-7.636,7.45-3.725-.186-6.519-2.607-6.519-6.519" transform="translate(-15.776 -6.379)" fill="#267e88" fill-rule="evenodd"/>
      <g id="Grupo_5184" data-name="Grupo 5184" transform="translate(59.806)">
        <g id="Grupo_5183" data-name="Grupo 5183">
          <path id="Trazado_17618" data-name="Trazado 17618" d="M60.047,19.234c0,2.235-1.3,4.284-5.215,4.656L54.46,26.5H52.411l.372-2.607a8.659,8.659,0,0,1-4.284-1.3l.372-3.166a12.3,12.3,0,0,0,5.4,1.676c1.117,0,1.862-.372,1.862-1.3s-1.3-1.118-2.607-1.49c-2.049-.745-4.1-1.49-4.1-3.911,0-2.794,1.676-4.284,4.842-4.47L54.646,7.5h2.049l-.186,2.421a18.782,18.782,0,0,1,3.725.745l-.373,3.166A12.23,12.23,0,0,0,55.2,12.715c-1.118,0-1.863.372-1.863,1.118,0,.931.931,1.117,2.608,1.49,1.676.559,4.1,1.118,4.1,3.911M52.97,43.26l.372-3.166a12.211,12.211,0,0,0,5.4,1.49c1.117,0,1.862-.373,1.862-1.3S59.3,39.162,58,38.79c-2.049-.745-4.1-1.49-4.1-3.911,0-3.166,2.235-4.47,5.96-4.47a18.873,18.873,0,0,1,4.842.745l-.559,3.353a11.294,11.294,0,0,0-4.47-1.118c-1.117,0-1.862.373-1.862,1.118,0,.931.931,1.117,2.607,1.49,1.676.559,4.1,1.118,4.1,3.725,0,2.421-1.49,4.656-6.146,4.656a10.9,10.9,0,0,1-5.4-1.117M70.85,25.752H72.9l-5.215,19H65.635Z" transform="translate(-48.5 -7.5)" fill="#2d9196" fill-rule="evenodd"/>
        </g>
      </g>
      <path id="Trazado_17619" data-name="Trazado 17619" d="M16.409,30.624l.186-1.49a5.949,5.949,0,0,0,2.607.559A2.579,2.579,0,0,0,22,27.085v-.372h-.186a3.218,3.218,0,0,1-2.421.931c-2.049,0-3.166-1.3-2.98-3.911l.373-4.284h1.676l-.373,4.1c-.186,1.3,0,2.421,1.49,2.421a2.2,2.2,0,0,0,2.235-2.421l.372-4.1h1.862l-.745,6.7C22.928,28.947,22,31,18.644,31a3.509,3.509,0,0,1-2.235-.373m10.057,1.118L28.143,17.4h3.725l-1.49,13.224c-.186,1.862,0,2.049.559,2.049H31.5l-.373,2.794a5.51,5.51,0,0,1-1.862.373c-2.235.186-3.166-.931-2.794-4.1m8.195-2.421.745-7.077h3.725l-.745,6.7c-.186,1.862.186,3.539,2.049,3.539s2.98-1.3,3.352-3.539l.745-6.7h3.725L47.327,31c-.186,1.862,0,2.049.745,2.049h.559l-.373,2.607a6.617,6.617,0,0,1-1.862.373q-2.514,0-2.235-2.235h-.186a5.551,5.551,0,0,1-4.47,2.235c-3.539,0-5.4-2.235-4.842-6.705m39.857-.931c0-2.049-.931-3.166-2.794-3.166s-3.539,1.676-3.539,4.284c0,2.049,1.118,3.352,2.607,3.352,2.421,0,3.725-1.862,3.725-4.47m-10.057,1.3c0-4.656,2.98-7.636,6.891-7.636A4.333,4.333,0,0,1,75.264,24.1h.186l.186-1.676h2.98L77.686,31c-.186,1.862,0,2.049.745,2.049h.559l-.372,2.607a6.617,6.617,0,0,1-1.863.373c-1.676,0-2.421-.745-2.421-2.049h-.186a5.408,5.408,0,0,1-4.47,2.049c-3.352,0-5.215-2.794-5.215-6.332" transform="translate(-16.389 1.039)" fill="#267e88" fill-rule="evenodd"/>
    </g>
  </g>
</svg>
