<svg xmlns="http://www.w3.org/2000/svg" width="14" height="14.35" viewBox="0 0 14 14.35">
  <path id="Combined_Shape" data-name="Combined Shape" d="M7,14.175A7.1,7.1,0,0,1,0,7,7.22,7.22,0,0,1,2.049,1.925,6.871,6.871,0,0,1,7-.175a7.4,7.4,0,0,1,4.961,1.761A6.134,6.134,0,0,1,14,6.305a4.471,4.471,0,0,1-.969,2.955,4.084,4.084,0,0,1-3.274,1.31c-.849,0-1.727,0-2-.986a2.817,2.817,0,0,1-2.117,1.109c-1.671,0-2.709-1.174-2.709-3.063A4.635,4.635,0,0,1,4.091,4.471,3.683,3.683,0,0,1,6.826,3.248a2.144,2.144,0,0,1,1.693.63.388.388,0,0,1,.38-.35h1.269a.67.67,0,0,1,.516.245.7.7,0,0,1,.149.581l-.661,3.5c-.067.345-.085.588.031.733a.437.437,0,0,0,.35.135c1.066-.116,1.642-1.335,1.642-2.422,0-2.725-2.135-4.629-5.193-4.629A5.266,5.266,0,0,0,1.806,7,5.266,5.266,0,0,0,7,12.324a5.092,5.092,0,0,0,2.805-.844.653.653,0,0,1,.359-.108.671.671,0,0,1,.527.256l.288.36a.706.706,0,0,1-.158,1.023A6.86,6.86,0,0,1,7,14.175Zm.024-8.826a1.913,1.913,0,0,0-1.654,2.1c0,.728.39,1.18,1.018,1.18a1.982,1.982,0,0,0,1.642-2.1C8.03,5.79,7.654,5.349,7.025,5.349Z" transform="translate(0 0.175)" fill="#9768ff"/>
</svg>
