<svg xmlns="http://www.w3.org/2000/svg" width="31" height="31" viewBox="0 0 31 31">
  <g id="Grupo_5159" data-name="Grupo 5159" transform="translate(-530 -110)">
    <circle id="Elipse_69" data-name="Elipse 69" cx="15.5" cy="15.5" r="15.5" transform="translate(530 110)" fill="#9768ff"/>
    <path id="Combined_Shape" data-name="Combined Shape" d="M8.369,16.734c-1.49,0-2.813-.022-3.452-.059A4.965,4.965,0,0,1,1.41,15.323,4.922,4.922,0,0,1,.059,11.817C-.02,10.43-.02,6.3.059,4.913A4.944,4.944,0,0,1,1.41,1.407,4.944,4.944,0,0,1,4.917.059C5.556.022,6.879,0,8.369,0s2.813.023,3.452.059A4.954,4.954,0,0,1,15.327,1.41a4.922,4.922,0,0,1,1.352,3.506c.079,1.387.079,5.514,0,6.9a4.954,4.954,0,0,1-1.352,3.506,4.921,4.921,0,0,1-3.506,1.352C11.182,16.711,9.859,16.734,8.369,16.734Zm0-1.508c.173,0,.374,0,.595,0,.269,0,.57.006.883.006A11.778,11.778,0,0,0,13.3,14.89a2.826,2.826,0,0,0,1.591-1.59,15.068,15.068,0,0,0,.34-4.336c0-.222,0-.424,0-.6s0-.374,0-.6a15.081,15.081,0,0,0-.34-4.336A2.831,2.831,0,0,0,13.3,1.843,12,12,0,0,0,9.819,1.5c-.308,0-.6,0-.864.005-.218,0-.415,0-.584,0s-.375,0-.6,0C7.505,1.5,7.2,1.5,6.89,1.5a11.792,11.792,0,0,0-3.452.346,2.826,2.826,0,0,0-1.59,1.591,15.217,15.217,0,0,0-.341,4.349c0,.218,0,.414,0,.583s0,.375,0,.6A15.057,15.057,0,0,0,1.848,13.3a2.822,2.822,0,0,0,1.59,1.59,11.99,11.99,0,0,0,3.487.346c.306,0,.6,0,.861-.005C8,15.228,8.2,15.226,8.371,15.226Zm0-2.569a4.29,4.29,0,1,1,4.29-4.29A4.3,4.3,0,0,1,8.371,12.657Zm0-7.079A2.79,2.79,0,1,0,11.16,8.366,2.793,2.793,0,0,0,8.371,5.577ZM12.837,4.9a1,1,0,1,1,1-1A1,1,0,0,1,12.837,4.9Z" transform="translate(536.925 116.825)" fill="#272c3c"/>
  </g>
</svg>
