<svg id="Group" xmlns="http://www.w3.org/2000/svg" width="31" height="31" viewBox="0 0 31 31">
  <circle id="Elipse_24" data-name="Elipse 24" cx="15.5" cy="15.5" r="15.5" fill="#272c3c"/>
  <path id="Combined_Shape" data-name="Combined Shape" d="M11.014,13.241V8.461c0-1.2-.434-2.021-1.523-2.021A1.642,1.642,0,0,0,7.951,7.528a1.983,1.983,0,0,0-.1.724v4.99H4.845s.04-8.1,0-8.934H7.851V5.573c-.005.01-.014.019-.02.029h.02V5.573A2.991,2.991,0,0,1,10.56,4.1c1.978,0,3.46,1.278,3.46,4.021v5.124Zm-10.836,0V4.306H3.183v8.934ZM1.661,3.087A1.549,1.549,0,1,1,1.7,0a1.554,1.554,0,0,1,1.68,1.544,1.56,1.56,0,0,1-1.7,1.544Z" transform="translate(8 8)" fill="#dce3ec"/>
</svg>
