<svg xmlns="http://www.w3.org/2000/svg" width="12" height="11.077" viewBox="0 0 12 11.077">
  <path id="whatsapp-brands_1_" data-name="whatsapp-brands (1)" d="M11.4,7.878C11.1,7.73,9.651,7.021,9.38,6.925s-.468-.148-.665.148-.761.952-.937,1.153-.346.222-.639.074A8.024,8.024,0,0,1,3.119,4.809c-.3-.518.3-.481.868-1.6a.541.541,0,0,0-.027-.513C3.886,2.545,3.3,1.1,3.05.513c-.24-.571-.484-.492-.665-.5S2.018,0,1.821,0a1.1,1.1,0,0,0-.788.365A3.289,3.289,0,0,0,0,2.815,5.731,5.731,0,0,0,1.2,5.851,13.164,13.164,0,0,0,6.25,10.285c1.874.8,2.608.873,3.545.735a3.024,3.024,0,0,0,1.991-1.4,2.44,2.44,0,0,0,.17-1.4C11.887,8.095,11.69,8.021,11.4,7.878Z" fill="#9768ff"/>
</svg>
