<svg xmlns="http://www.w3.org/2000/svg" width="13" height="13.119" viewBox="0 0 13 13.119">
  <g id="Grupo_5154" data-name="Grupo 5154" transform="translate(-1026 -151.9)">
    <path id="whatsapp-brands_1_" data-name="whatsapp-brands (1)" d="M5.136,3.55C5,3.484,4.35,3.164,4.227,3.121s-.211-.067-.3.067-.343.429-.422.52-.156.1-.288.033A3.616,3.616,0,0,1,1.406,2.167c-.137-.234.137-.217.391-.722a.244.244,0,0,0-.012-.231c-.034-.067-.3-.718-.41-.982S1.156.01,1.075,0,.909,0,.82,0A.494.494,0,0,0,.465.165,1.482,1.482,0,0,0,0,1.268,2.583,2.583,0,0,0,.542,2.637a5.932,5.932,0,0,0,2.274,2,2.618,2.618,0,0,0,1.6.331,1.363,1.363,0,0,0,.9-.629,1.1,1.1,0,0,0,.077-.629C5.357,3.648,5.268,3.615,5.136,3.55Z" transform="translate(1030 156)" fill="#9768ff"/>
    <g id="whatsapp" transform="translate(1025.5 150)">
      <path id="Shape" d="M0,13.118H0L.887,9.75A6.245,6.245,0,0,1,0,6.5,6.519,6.519,0,0,1,6.5,0a6.465,6.465,0,0,1,4.609,1.891A6.381,6.381,0,0,1,13,6.5,6.519,6.519,0,0,1,6.5,13a6.945,6.945,0,0,1-3.073-.768L0,13.118ZM3.6,11.05h0l.177.118a5.527,5.527,0,0,0,2.718.768,5.383,5.383,0,0,0,5.377-5.377,5.138,5.138,0,0,0-1.6-3.782A5.348,5.348,0,0,0,1.123,6.559,5.307,5.307,0,0,0,1.95,9.4l.118.177-.532,2.009L3.6,11.05Z" transform="translate(0.5 1.9)" fill="#9768ff"/>
    </g>
  </g>
</svg>
