<svg xmlns="http://www.w3.org/2000/svg" width="31" height="31" viewBox="0 0 31 31">
  <g id="Grupo_5158" data-name="Grupo 5158" transform="translate(-491 -110)">
    <circle id="Elipse_25" data-name="Elipse 25" cx="15.5" cy="15.5" r="15.5" transform="translate(491 110)" fill="#9768ff"/>
    <path id="Trazado_17615" data-name="Trazado 17615" d="M203.827,3419.754c1.835.076,3.137.138,4.44.182,1.536.051,2.331.731,2.4,2.274.073,1.666.037,3.337.008,5.006a2.7,2.7,0,0,1-.764,1.808,1.936,1.936,0,0,1-1.354.655,82.35,82.35,0,0,1-9.77-.011,1.848,1.848,0,0,1-1.7-1.341,6.3,6.3,0,0,1-.35-2,34.484,34.484,0,0,1,.12-4.3,2.143,2.143,0,0,1,2.347-2.1C200.918,3419.847,202.638,3419.8,203.827,3419.754Zm-1.466,7.834,4.174-2.785-4.174-2.781Z" transform="translate(303.281 -3298.754)" fill="#272c3c"/>
  </g>
</svg>
